<?xml version="1.0" encoding="utf-8"?>
<!-- Generator: Adobe Illustrator 26.5.0, SVG Export Plug-In . SVG Version: 6.00 Build 0)  -->
<svg version="1.1" id="Laag_1" xmlns="http://www.w3.org/2000/svg" xmlns:xlink="http://www.w3.org/1999/xlink" x="0px" y="0px"
	 viewBox="0 0 1036.9 1080" style="enable-background:new 0 0 1036.9 1080;" xml:space="preserve">
<style type="text/css">
	.st0{fill:#C1C1C0;}
	.st1{fill:#FFFFFF;}
</style>
<g id="Africa">
	<path id="Path_3" class="st0" d="M42.4,1072.5c7-9.1,13.8-18.5,18.3-29.1c3.2-7.5,10-3,14.5-6c2.9,14.9,9,28.6,29.4,27.5
		c3.9-0.2,9.8-2.1,13.4,2.7c0.2,0.2,0.4,0.3,0.6,0.3c4.5,1.7,9.9-2.4,12.8-0.4c3.6,2.6,6.4,5.2,11.1,7c15.6,5.9,27,0.1,37.5-10.5
		c1.5-1.7,3.9-2.4,6.1-1.6c4,1.6,7.1,1.4,9.4-2.5c0.9-1.6,2-1,2.9-0.1c4.1,4.2,7.3,2.3,10.6-1.2c8.9-9.4,20.7-12.8,33-13.8
		c8.4-0.7,17.4,1.3,25.5,0.5c10.2-1,20.2-2.8,30.7-3.2c12.3-0.4,24.3-3.2,35.2,4.8c2,1.4,4.2,2.8,6.8,1.4c5.1-2.7,10.4-4.2,16.3-3.8
		c0.7,0.1,1.8,0,2.1-0.5c5.8-8.5,12.1-1.8,18.1-0.5c2.4,0.5,4.6,1.3,5.9-0.8c3.7-6.2,7.9-2.5,10.8-0.1c4.1,3.5,8,4.5,12.7,2.2
		c2.2-1,4.5-1.7,5.8,0.7c1,1.9-0.4,4.1-2,5.1c-3.7,2.3-5.1,3.9-1.9,8.5c1.8,2.6-1.1,7.6-1.6,11.6c-0.4,3.1-0.2,6.2,0.4,9.3H29.2
		l4.4-3C37.5,1077.3,39.5,1073.9,42.4,1072.5z"/>
	<path id="Path_4" class="st0" d="M409.8,1080c-0.5-6.3,0-12.6,1.5-18.7c1.1-4.1,0.8-7.9,3.8-12c6.2-8.8,14.6-13.9,24.2-15
		c3.8-0.4,11.8-2.1,15,6.3c3.7,9.9,8.8,10,16.7,2.2c0.8-0.8,1.2-2.2,3.4-1.6c-1,5.1-2.1,10.2-6.5,13.8c-8.9,7.3-8.9,7.4-4.1,17.8
		c1.1,2.4,2.4,4.8,3.6,7.1L409.8,1080z"/>
</g>
<g id="France">
	<path id="Path_5" class="st0" d="M389.2,839.6c-4.8,2.3-8.1,6.4-11,10.4c-7.1,9.9-26.3,7.1-32.1-5.3c-1-2.1-1.8-2-3-1.2
		c-6.3,4.2-11.7,0.2-17.1-2.2c-1.3-0.6-2.3-1.7-3.8-1.6c-13.8,0.5-24.9,13.1-23.4,26.8c0.3,2.5-0.1,3.6-2.7,4
		c-2.9,0.4-5.7,1.1-8.6,1.6c-6.8,2-12.4-0.5-17.4-4.7c-1.8-1.6-3.8-3-5.8-4.3c-7-4.2-12.9-8.1-22.6-4.8c-8.1,2.8-15.7-4.8-23.4-8.3
		c-0.9-0.4-1.5-1.3-2.4-1.7c-7.2-3.5-13.1-8.2-15.4-16.3c10.3-10,11.9-24.3,16.9-36.7c1.5-3.7,0.1-9.4,2.4-13.7
		c0.9-1.7,1.1-4.4,3.3-4.5c2.5-0.1,2.1,2.9,2.9,4.5c0.7,1.3,1.4,2.5,2.3,4.2c1.3-11.9,1.2-11.8-4.7-19.8c-2.8-3.8,0.3-8,0.2-12
		c-0.2-6.1-2.5-9.7-7-12.5c-7.6-4.8-9.1-8.7-7-17.5c0.8-3.3,1.8-7.5-3.5-8.7c-0.7-0.1-1.7-0.7-1.8-1.1
		c-0.1-12.2-12.9-10.4-18.6-16.5c-4-4.2-9.6-6.3-15.4-5.8c-2.1,0.2-2.9-1.6-3.5-3.2c-0.7-2.2,1.2-2,2.4-2.7
		c2.9-1.8,2.1-7.7-1.5-10.3c-1.2-0.9-3.1-1.3-2.5-3.1c0.6-1.8,2.6-0.3,3.7-0.7c7.2-2.1,15.2,3.8,22.1-2.6c2.3-2.2,5,0.9,5.8,2.8
		c3,6.8,6.3,10.7,14.3,5.7c2.8-1.8,6.5,1.2,9.6,2.4c6,2.3,7.7,0.9,7.3-5.4c-0.4-6.5,0.3-12.9-2.4-19.5c-2-4.9,4.6-2.2,7.7-6.5
		c-3.2,13.9,7.3,11.8,12.9,14.8c7.1,3.8,13.6-0.3,20.7-2c0-2.9-3.1-4-4.4-7c5.6-1.9,11-4.1,16.6-5.4c8.9-2.2,15.4-7.5,14.6-16.4
		c-0.9-10.1,6.4-10.6,11.9-12.6c4.8-1.8,6.6,3.9,9.3,6.7c4.1,1.2,7.4,3.2,9.8,7c1.5,2.4,3.8,4.9,6.4,5.9c5.6,2,8.2,5.3,8.1,11.3
		c-0.1,3.5,2.8,3.7,5.3,2.8c2.9-1,5.3-0.8,6.9,2c4,6.6,10.5,9.7,17.2,12.7c2.2,1.3,4.6,1.2,7.1,1.2c4.2,0,8,1.6,9.2,5.8
		c1.1,4,3.7,4.1,6.7,4c5.9-0.2,10.8,2.8,16.1,4.4c3.3,1,4.4,3.8,2.3,6.3c-7.2,8.2-7.9,18.1-8,28.2c-0.2,2-0.6,3.9-1.4,5.7
		c-0.8,1.8-2,4.3-3.6,4.2c-9-0.5-11.5,7.2-15.4,12.4c-4.7,6.2-10.7,12.1-11.1,20.7c-0.4,1.4-2.1,2.1-2.3,3.7c2,1.3,3.6-0.2,5.4-0.6
		c8.4-2,12.7,1.1,11.8,9.5c-0.6,3.9,0.2,7.8,2.2,11.1c3.1,5.1,1.8,9.1-3.1,11.6c-4.4,2.2-4.5,4.3-1.3,7.5c2,2,2.2,4.6,2,7.5
		c-1,10.6-0.8,10.6,8.7,14.3c3.5,1.4,6.4,3.2,0.8,5.9c-0.4,2,0.5,4.3-1.6,5.8C392.2,838.8,390.2,837.8,389.2,839.6z"/>
</g>
<g id="Finland">
	<path id="Path_9" class="st0" d="M703.2,314.3c-11.1,0.9-18.8,9-28.3,13.2c-10.5,4.7-18.1,14.1-29.2,18c-4.2,1.5-7.5,0.4-8.3-3.1
		c-1-4.5-3.4-4.5-6.8-4.5c-6.7,0.1-11.9-4.1-17.8-6.3c-3.4-1.3-2.9-5.1-2.2-7.8c4-15.4-1.1-28.9-8.3-42.1c-2.6-4.8-1-22.7,2.5-26.4
		c1.3-1.4,2-0.1,3,0.4c2.2,1.2,4-0.7,3.6-2.1c-2.1-7.7,3.9-12.1,7.1-17.3c6.5-10.4,10.3-21.9,15.7-32.8c1.2-2.5,2.3-5.5,6-5.8
		c5.3-0.4,3.9-3.6,1.7-5.8c-2.7-2.5-4.1-6.2-3.6-9.9c0.2-2.5-1.2-4-3.3-5.2c-2.9-1.7-5.7-3.8-8.5-5.7c-9.8-2.6-16.6-11.5-14.4-20.5
		c1.3-4.8,0.2-9.9-2.9-13.7c-4.7-6.1-5.2-13.3-6.1-20.2c-1.2-9-8.8-18.1-18.2-19.5c-3.5-0.5-6.8-1.4-8.7-4.8
		c-1.6-2.8-4.5-3.6-7.2-4.8c-2.4-1.1-4.1-3.4-3.6-5.9c0.7-3.1,2.4-5.8,4.8-7.8c1.6-1.3,3.2,0.3,4.3,1.7c2.2,2.7,4.8,5,6.4,8.1
		c1.3,3,4.4,4.9,7.7,4.6c1.7,0.1,3.6,1.3,5,0.4c5.2-3.7,10.4-6.5,16.9-2.8c1,0.4,2.1-0.1,2.5-1.1c0,0,0,0,0,0c1-5.2,5.7-9,4.7-15
		c-1.1-6.3-1.1-12.8,0.2-19.1c2-9.7,13.3-15.1,22-10.8c1.5,0.8,3,1.7,4.5,2.6c8.4,5.2,11.2,14.4,7.3,23.7
		c-3.7,8.8,1.6,21.7,10.1,24.7c5.8,2,9,7.3,13.6,10.8c1.2,1,0.7,2.7,0.3,4.2c-0.5,1.9-1.5,3.7-1.8,5.6c-1.6,8.3-4.2,16.5,3.7,23.7
		c4.5,4,6.8,10,11.1,14.6c2.9,2.8,3.9,6.9,2.8,10.7c-1.9,7.1,1.9,14.2,2,21.5c0,0.3,0.1,0.5,0.2,0.7c6.7,2.3,7.3,10.6,12,13.6
		c6.8,4.4,7.4,9.2,5.4,15.5c-1,3.3-0.2,4.1,2.6,6c6.3,4,13.7,6.3,18.6,12.6c2.9,3.7,3.9,7.4,3,11.6c-2.1,10-6.1,19.5-9.9,28.9
		c-5.8,14.2-13.3,27.7-20.5,41.3C704.6,312.9,704,313.6,703.2,314.3z"/>
</g>
<g id="Portugal">
	<path id="Path_16" class="st0" d="M36.6,982.6c-4.2,6.1-8.8,7.4-15.4,3.2c-6-3.8-12.1-5.8-21.2-3.7c8-6.3,10.6-13,10-21
		c-0.3-3.3,1.3-5.9,3.3-8.6c2.9-4,3.6-7.5-1.8-11.6c-3.6-2.7-5.7-8-8.5-12.1c-0.9-1.4-0.3-3.7,1-4.8c8.9-6.9,12.7-17.6,18.9-26.4
		c9.5-13.3,17.8-28.3,16.7-46.2c-0.5-7.8,5.1-12.1,12.1-10.6c3.7,0.8,1.6,2.7,1.1,4.3c-0.1,0.2-0.3,0.6-0.2,0.7
		c2.8,2.9,16.7,6.9,20,5.8c7.1-2.5,12.7,1.2,16.3,7.7c3.8,6.9,2.2,9.9-4.4,12.4c-2.5,1-3.9,3.6-6,5.3c-1.4,0.9-2.6,1.6-2.7,3.8
		c-0.3,7-2.6,13.8-6.6,19.6c-1.5,2.1-1.3,4-1.5,6.2c-0.7,7.5-3,9.8-10.5,10c-2.9,0.1-4.3,0.5-3.3,3.6c0.2,0.7,0.4,1.4,0.5,2.1
		c0.9,5.5-1.1,18.4-3.8,23.7c-1.8,3.6-1.9,7.8-0.1,11.4c1.7,3.7,1.2,5.5-2.2,7.6C41.6,969.2,37.3,974.9,36.6,982.6z"/>
</g>
<g id="Letland">
	<path id="Path_18" class="st0" d="M669.5,403c1.7-0.1,3.4-0.1,4.8-1.4c8.4-7.4,16.4-4.4,23.8,1.4c3.9,3.1,7.4,4.4,12,1.7
		c6.3-3.6,11.2-0.1,16,3.5c0.6,0.4,1.6,1.2,1.5,1.4c-3.4,8.7,4.5,12,7.9,17.6c2.3,3.8,6.9,7.7,1.8,14.3c-2.9,3.9-6.1,7.4-9.8,10.6
		c-9.1,7.8-14.4,3.2-21.1-2.3c-3-2.3-6.7-3.3-10.4-2.7c-0.5,0.9-1.5,2.1-2.1,1.6c-6.4-5.1-12.2-0.9-18.2,0.9
		c-10.7,0.4-21.4,1.3-32,2.5c-4.8,0.6-7.3,4.6-10.5,7.6c-1.7,1.6-2.6,4.2-5.2,4.9c-3.7-4.5-4.3-18.1-0.9-24.1c1.1-1.9,2.9-3.6,2.4-6
		c-1.9-9.4,2.9-14.8,10.4-19.3c2.6-1.6,3.9-1.9,6.2,0.2c3.7,3.5,7.4,6.9,10.4,11.2c2.9,4.1,7.3,5.8,11.4,2.5
		c3.5-2.9,8.7-5.7,5.9-12.4C671.8,412.5,668.9,408.2,669.5,403z"/>
</g>
<g id="Albanie">
	<path id="Path_25" class="st0" d="M684.2,941.3c-1.9,0.3-3.9-0.7-4.6-2.5c-1.5-2.7-3.6-6.1-6.2-6.8c-11.7-3.4-11.4-12.5-11.3-21.6
		c0-8.4-3.1-16.8-0.1-25.3c0.4-1.2,0.3-3.5-1.4-3.7c-5-0.5-4.3-5-5.9-7.8c-1.2-5.2,0.7-10.5,4.5-12.7c3.5-2,9-0.8,12.2,3.4
		c0.7,0.7,1.5,1.2,2.5,1.5c6.6,2.9,9.9,7,9.8,15.1c-0.2,9.1,1.3,18.4,10,24.7c3.5,2.5,4.5,6.6,2.3,11.2c-2.3,5-3.8,10.5-8.7,13.9
		c-1.6,1.1-1.7,3-1.3,4.7C686.4,937.7,686,939.7,684.2,941.3z"/>
</g>
<g id="Montenegro">
	<path id="Path_37" class="st0" d="M650.2,875.1c-2.7-4.6-8.4-5.3-11.7-9c-9.6-9.2-6.8-25.1,5.1-30.1c2.1-0.8,3.9-0.2,5.5,1.1
		c5.6,4.3,11,9,16.9,13c2.5,1.7,3.6,4.1,2.1,7c-1.4,2.8-3.3,5-6.9,3.1c-3.5-1.9-3.7,1.2-4.1,3.1
		C656.1,867.9,654.1,872.1,650.2,875.1z"/>
</g>
<g id="cyprus">
	<path id="Path_44" class="st0" d="M817.8,1062.6c-8.5-6.1-18.8-1.8-28.5-3.2c-2.1-0.3-4.8,0.2-4.7-3.1c0-2.9,2.5-3.7,4.5-3.9
		c3.7-0.4,7.8-2.9,10.8,2.3c1.8,3,5,2,7.7,0c4.8-3.4,10.1-2.9,15.7-3.5c7.9-0.9,16.4,4.9,23.8-1.5c0.7-0.7,1.9-0.7,2.6,0
		c0.2,0.2,0.3,0.4,0.4,0.7c0.5,1.3-0.8,2.1-1.8,2.9c-3.2,2.4-7.1,1.5-10.6,2.4c-5.3,1.4-11.3,0.4-15.2,5.7
		C822,1062.2,820,1062.1,817.8,1062.6z"/>
</g>
<g id="Polen">
	<path id="Path_10" class="st0" d="M526.3,553.4c2.2-3.3,0.8-6.2-1.2-8.7c-3.2-3.9-1.4-6,2.1-8c6.6-3.8,13.3-7.2,20.9-8.4
		c2.4-0.4,4.6-1.2,5.5-3.1c4.7-10.1,15.4-12,23.6-16.8c8.4-4.9,11.2-2.9,16,5.7c2.7,4.8,7.6,5.9,12.7,4.4c2.5-0.8,4.8-2.3,7.3-3.5
		c16.2-2.8,32.9-0.8,48.8-6.3c8.3-2.9,13.8,1,17.3,9.3c2.4,5.9,5.9,11.3,8.6,17c1.5,3.1,2.7,6.3,3.7,9.6c1.8,5.9,1.2,10.8-3.9,15.2
		c-5.1,4.5-4.6,6.5,1,10.4c2.7,1.8,4.4,4.8,4.6,8c0.7,8.1,3.9,15.8,9.3,21.9c7.3,8.3,6.7,14.5-0.5,23.3c-5,6.1-10.5,11.7-11.8,20
		c-0.6,3.9-1.7,7.6,0.4,11.5c1.1,2,1.2,4.4-0.8,6.1c-1.8,1.6-3.9,0.8-5.5-0.2c-12.6-8.6-25.7-3.9-37.2,0.9
		c-7.3,3.1-11.2,5.4-15.8-2.4c-1.7-2.8-4.6-1.7-7.2-0.2c-4.6,2.8-8.7,1.6-11.3-3c-2.7-5.1-8-8.3-13.8-8.4c-3.1-0.2-5.9-0.7-6.7-4.4
		c-0.1-1.2-1.1-2.1-2.4-2c-0.1,0-0.2,0-0.2,0c-4,0.7-7.1-1.4-10.3-3.7c-2.2,3.2-2.4,8.5-7.3,7.4c-4.5-0.9-7.1-4.2-6.6-9.2
		c0.2-2-1.4-2.5-2.9-2.5c-5.1-0.1-9-3.6-13.8-4.8c-3.4-0.8-7.2-3.6-7.6-6.4c-1.1-7.6-6.5-12.9-9.1-19.6c-0.6-1.7-0.4-3.3-0.5-5
		c-0.4-8.8-0.9-17.6-8.2-24.1c-1.8-1.6-4.1-3.9-2-6.2C525.5,563.1,524.3,557.7,526.3,553.4z"/>
	<path id="Path_76" class="st0" d="M617.9,501.7c3.7,4.5,0.6,8-1.5,11.8C607.6,508.4,617.2,505.6,617.9,501.7z"/>
</g>
<g id="Netherlands">
	<path id="Path_24" class="st0" d="M347.8,596.1c-1.1-0.5-2.8-1.8-2-2.5c5.9-5.6,5.9-13.8,9.3-20.4c0.8-1.6,1.4-3.5,3.5-3
		c2.3,0.6,2.6,2.6,1.9,4.8c-0.8,2.5-1.7,5-2.5,7.7c11-0.4,14.5-5,11.4-14.2c-1.3-3.9,3-10.9,8.2-11.9c6.4-1.2,13.1-1.9,18.8,2.7
		c4,4.6,2.2,13.7-3.7,18.7c-1.8,1.5-3.3,2.3-1.8,5.2c3.7,7.2-0.5,16.6-8.4,18.2c-5.8,1.2-7.1,2.5-4.6,8.5c1.9,4.6,1.8,10.4-4.1,13.6
		c-2.3-0.6-2.7-3.2-4.7-4.1c-8.5-2.3-14.9-11-25.1-8.3c-0.6,0.2-1-0.8-0.6-1.6c-0.1-2.5,1.9-4.5,4.3-4.5c0,0,0.1,0,0.1,0
		c1.9-2.5,5.9-1.9,7.5-5.1C353.5,596.9,349.6,598.7,347.8,596.1z"/>
	<path id="Path_70" class="st0" d="M347.8,596.1c3.4,0.8,9.3-2.1,9.7,3.2c0.5,5.9-5.9,4.7-9.8,5.6c0-0.4,0-0.9,0-1.3
		c4.5-3.2-2.9-3.5-1.5-6C346.8,597.1,347.3,596.6,347.8,596.1z"/>
	<path id="Path_79" class="st0" d="M346.3,597.6c2,2.7,5.4,0.5,7.9,2.1c-1.2,3.1-4.7,2.1-6.4,3.9c-1.4-1.2-2.9-2.4-4.2-3.7
		c-0.7-0.7-2.1-1.9-0.6-2.8C343.7,596.7,345.2,597.4,346.3,597.6z"/>
</g>
<g id="ireland">
	<path id="Path_20" class="st0" d="M166.4,509.1c2.1,2,3.5,4.2,2.3,7.1c-1.1,2.8-1.3,5.8-0.7,8.7c2.4,11.3-5.3,19.3-8.8,28.7
		c-0.8,2.2-3,3.9-6.5,3.7c-10.3-0.6-20.2,2.3-30,4.9c-4,1.1-7.1,3.7-11,5.1c-6.2,2.3-10.4,0.1-15.5-1.4c4.1-5.7,2.5-10.3-3.7-10.6
		c-2.2-0.1-4.1,0.2-4-2.5c0.1-2.4,2.2-2.1,3.9-2.3c1.9-0.2,4,0.4,5.2-2c-1.7-1.8-4.9-0.5-6.2-3c8.6-1.8,15-9.2,25-8.4
		c-1-1.7-1.2-2.3-1.5-2.4c-2.6-1-7.2,3.1-7.5-0.9c-0.2-3.1,2.8-7.9,7.2-8.9c2-0.5,4-0.1,4.4-2.5c0.5-2.9-2.2-2.6-3.8-3.6
		c-1.5-0.8-2.9-1.7-4.2-2.8c-4-3.5-6.2-7.2-0.4-11.1c3.6-2.4,6.1-4.7,1.8-9c-1.3-1.3-1.3-4.4,0.2-6.2c1.4-1.7,3.5-0.3,4.7,0.4
		c7.3,4.3,14.3,5.5,21.3-0.4c0.8-0.5,1.7-0.9,2.7-1.2c2.6,2.1,3.9,4.9,4.9,8c1.7,5.1,4.4,6,8.8,3.4c5.8-3.4,6.7-3.2,8.9,3.2
		C164.6,505.1,164.8,507.4,166.4,509.1z"/>
	<path id="Path_34" class="st0" d="M159,478.1c3.9-1.9,8.4-1.8,12.5-3.7c4-1.8,6.4,1.9,7.8,4.9c2.4,5.4,1.2,11.7,5.1,17
		c2.1,2.9-5.4,10.5-10.6,11.3c-1.9,0.2-3.9,0.2-5.8,0.1c-4.6-0.5-3.6-5.2-5.4-7.7c-2.1-3.1-3.7-3.9-6.1-1.2
		c-3.3,3.7-6.6,4.3-9.7,0.2s-2.2-9.4,1.7-11.8C152.4,484.6,155,480.5,159,478.1z"/>
	<path id="Path_51" class="st0" d="M159,478.1c-1.3,4.5-4.6,8.2-9,10c-6.8,2.7-3.5,7-2.1,9.8c2.2,4.4,5.2,2.2,8-0.6
		c2.5-2.5,5.4-2.1,7.3,1.1c1.7,3,3.2,6.1,4.7,9.2l-1.5,1.5c-6.9-0.6-2.3-8.3-7.6-10.7c-1-0.1-1.4,1.9-2.6,2.9
		c-3.5,3.1-9.4,2.5-11.2-1.4c-1.6-3.6-2.5-7.6-3.8-11.4c0.5-0.5,1-1,1.5-1.5c3.7-4.7,10.2-6.3,13.3-11.8l1.5,0
		c0.5-0.6,0.9-0.6,1.4,0C158.9,476.1,157.4,477.1,159,478.1z"/>
	<path id="Path_52" class="st0" d="M156.1,475.1c-0.2,4.5-1.7,8.1-7.1,7.7c-3.3-0.2-2.2,5.7-6.2,4.1c0-3.5-2.9-4.8-5.1-6.7
		C148.9,468.6,152.2,467.7,156.1,475.1z"/>
	<path id="Path_121" class="st0" d="M159,475.2c-0.5,0-0.9,0-1.4,0c0.1-0.5,0.3-0.9,0.6-1.3c1-1.2,0.2-3.8,2.5-4
		c0.9,0.1,1.7,0.7,2.1,1.6C163.1,474.1,160.4,474.1,159,475.2z"/>
</g>
<g id="icelamd">
	<path id="Path_15" class="st0" d="M38,106.4c1.8-1.6,2.2-4.3,5.8-4.7c4.5-0.4,1.8-4.9,2.1-7.5c0.2-2,0.4-3.5,2.5-3.6
		c1.8-0.1,2.6,1.4,2.8,2.9c0.3,2.2,1.2,4.2,2.6,6c1.3,1.8,2.6,3.1,4.8,2.1c2.3-1,1.2-2.8,0.7-4.4c-0.3-0.9-0.7-2.2-0.3-2.8
		c1.5-2.1-0.1-6.4,3.3-6.6c3.4-0.2,2.6,3.8,3,5.8c1.5,7.5,6.2,15.3-1.5,22.4c-1.3,1.2-1.5,4.1-1.5,6.3c0,2.8,2.8,4.6,4.3,2.5
		c2.9-4,5.5-3.6,9.6-2.6c2.9,0.6,4.5-2.9,4.9-6.2c0.2-1.8,0.6-4.5,3-4.3c2.8,0.3,2.7,3,2.7,5.3c0,2-2.1,4.8,1.4,5.4
		c3.7,0.7,4.4-2.1,4.5-5.1c0.1-5.5,4.3-2.2,6.6-3c3.3-1.1,3.6,1.3,3.7,3.7c-0.1,1.7,0.1,3.4,0.4,5.1c0.5,1.7,1,4.4,3.7,3.6
		c2.6-0.8,0.4-2.9,0.4-4.3c0-1.3-1.7-3.1,0.3-3.8c1.9-0.7,3.5,0.9,3.7,2.7c0.5,5.2,2.7,4.1,5.6,1.8c0.7-0.6,1.9-1.4,2.6-1.2
		c6.3,2.1,11.2,2.2,13.4-5.9c0.5-1.8,3.1-2,4.2,1.6c1.1,3.7,0.2,10.3,7.6,9.1c-3.2,6.9-0.4,19.8,5.5,24.9c1.3,1.1,2.6,2.1,2.3,4.2
		c-1.2,9.5-6.1,14.9-15.9,17.4c-0.7,0.2-1.6,0.5-1.8,1c-2.9,7-8.8,7.2-15.1,7.1c-4.9-0.1-9.7,1.2-13.9,3.7
		c-5.5,3.2-11.5-0.3-17.2-1.1c-2.4-0.4-4-0.7-5.5,1.7c-3.9,6.2-13.6,6.9-18,1.1c-2.9-3.8-6.3-6.8-9.5-10.2c-1-1-2.7-1.4-2.3-3.3
		c1.8-7.8-5-9.2-9.3-10.3c-3.7-1-7.2-2.6-10.3-4.9c-1.2-0.8-3.1-1.4-1.9-3.2c1.1-1.6,2.2-0.4,3.6,0.3c3.6,1.9,11.9-2.2,12.1-5.9
		c0.1-2.7-3.6-2.1-4.4-4.4c0.3-2.1,2-1.6,3.4-1.7c1.4-0.1,2.7-0.3,4-0.8c-6.9-1.6-5.8-8.8-9.5-12.5c1.1-3.9,3.7-2,5.9-1.5
		c1.4,0.4,2.8,0.9,4.2,1.2c2.3,0.4,3.9-0.5,4.3-2.8c0.4-2.5-1.5-2.6-3.3-2.8c-0.9-0.2-1.7-0.6-2.6-1c0.1-0.7,0.1-1.4,0.3-1.5
		c2.7-1.2,7.6-0.6,6.8-4.9c-0.9-5-5.3-7.8-10.4-8.9C43.6,107.2,40.5,108.9,38,106.4L38,106.4z"/>
	<path id="Path_83" class="st0" d="M46.9,128.5c-2,0.3-4.4-0.7-5.9,1.5c-3.1-2-7.6-1.5-10.5-6.6C36.6,125.3,41.8,126.9,46.9,128.5z"
		/>
	<path id="Path_122" class="st0" d="M38.1,106.3c-4,0.5-5.2-2.2-6.7-5.7C35.7,100.7,36.2,104.4,38.1,106.3L38.1,106.3z"/>
</g>
<g id="Sweden">
	<path id="Path_7" class="st0" d="M619.2,171.2c-6.4,0.4-11.4,5.9-18.2,4.7c-0.7,0.1-1.4,0.5-1.7,1.1c-1.4,10.4-10.1,17.6-12.1,27.8
		c-0.6,3.1,0.7,5.1,2.7,7.1c4.3,4.6,2.5,9.2,1,14.7c-4.1,15.2-18.2,22.1-26.2,33.9c-1.4,2-3.4,3.7-3.9,6.1c-1.3,6.1-4,4.7-6.9,1.1
		c-1.2,1.8-1.2,3.5-0.2,4.6c3.8,4.1,1.8,7.2-1.7,9.7c-2.5,1.8-4.2,3.3-2.3,6.5c3.4,5.4,1.4,11.3,0,16.4c-2.8,10.1-1.2,19.5,1.3,29.1
		c0.5,2.4,2.3,4.4,4.7,5.1c6.1,2,11.1,5.3,14.1,11.3c1.6,3.2,7.3,1.5,7.8,6.6c0.3,2.4,1.4,4-0.6,6.5c-4.2,4.9-6.2,11.2-5.8,17.7
		c0.1,2.2-0.9,4.3-2.7,5.5c-2.1,1.1-1.2-3.3-3.8-3.5c-4.2,7.4-8.6,14.9-19.8,13.7c6.6,7,9.6,14.4,5.1,23.1c-0.7,1.3-0.1,2.3,0.1,3.5
		c2.3,14.6,3.7,29-4,42.8c-1.7,3.1-3.2,4.5-6.6,4.4c-9.3-0.4-16.2,3.9-21.7,11.1c-1.1,1.3-1.6,3-1.5,4.7c0,2.4,4.3,5.7,0.6,6.9
		c-5.2,1.7-10.2,5.1-16.2,3.6c-1.5-0.2-2.5-1.6-2.3-3.1c0-0.3,0.2-0.6,0.3-0.9c1.7-3.5-0.1-6.2-1.7-8.9c-5.3-9-5.3-9,0.1-18.3
		c0.9-1.6,1.5-3.3-0.3-4.6c-12.1-8.7-16.4-21.8-20.3-35.2c-0.5-1.8-2.1-3.7-0.8-5.6c4.2-6.2,0.8-9.4-4.5-11.6
		c-3.2-1.3-3.8-3.4-3.8-6.3c0-2.9,0.2-5.9-1.4-8.6c7.5-4.1,7.6-5.1,6.6-15.3c-0.6-5.6,1.9-10.4,5.9-14.4c7.5-7.4,7.9-10.7,3.3-19.9
		c-2.7-5.4-4.9-10.7,2.4-15.2c3.6-2.3,2.9-7-0.2-9.6c-7.7-6.7-8.6-14.8-6.4-23.9c0.8-3.4,0.4-6.9-1.1-10c-3-7-0.8-14.4-1.4-21.7
		c1.1-6.2,0.8-12.7,5.7-17.8c3.2-3.3,6.4-5.7,11.3-6.1c7.2-0.6,10.1-5.6,6-11.3c-3.6-5-2.4-8.6-0.1-13.4c5.3-10.7,5-22.2,3.9-33.8
		c-0.1-1.9,0.5-3.7,2.4-4.1c7.1-1.6,8.6-6.4,9.2-13c0.4-5,5.3-8.7,6.6-13.8c0.6-2.4,2.2-4.7,1.2-7.1c-3.5-8.7,1.2-15.6,4.6-22.8
		c1.3-2.7,3.6-5.1,7-4.4c4.4,0.9,5.2-1.2,5.1-4.7c0-1.7,0-3.4,0.1-5.2c0.3-4.2,2.1-6.1,6.7-5.5c3.9,0.6,7.7,1.2,11.6,2.1
		c4.3,1,6.5-0.3,5-4.9c-1.2-3.6-0.5-7.3-0.9-10.9c-0.6-4.9,2.3-4.9,5.4-2.9c2.1,1.2,4.2,2.5,6.2,3.9c5.6,4.9,12,7.6,19.1,9.9
		c6.7,2.2,10.9,8.8,12.2,15.6c1.9,9.4,3.4,18.7,8.9,26.8c1.2,1.8,2.1,4.2,1.4,6.3c-2.4,8,0.6,14.3,5.7,20.2
		C620,168.4,620.5,169.8,619.2,171.2z"/>
	<path id="Path_61" class="st0" d="M585.1,418.1c0.4,5-1.9,9.2-0.1,13.6c0.7,1.8-1,4.2-3.2,5.3c-1.3,0.7-2.8,0.6-3.1-0.7
		c-0.7-3.2-2.8-6.9-0.9-9.7C579.5,423.8,580.8,420.4,585.1,418.1z"/>
	<path id="Path_69" class="st0" d="M557.7,445.7c-1.6,6.9-3.1,13.9-4.6,20.8c-3.1-7.7,1.4-14,2.5-20.9L557.7,445.7z"/>
	<path id="Path_102" class="st0" d="M597.2,350c-3.4-1.5-6.5-1.2-6.2-4.6c0.1-0.8,1.9-2.3,2.5-2.1
		C596.5,344.2,595.4,347.1,597.2,350z"/>
	<path id="Path_137" class="st0" d="M532,505.3c-2.4-0.8-4.1-1.3-4.8-4C530.4,500.8,531.2,502.6,532,505.3z"/>
</g>
<g id="Spain">
	<g>
		<path id="Path_6" class="st0" d="M288.9,873.5c1.6-0.5,3.3-0.8,5-1c3.6,0,5.1-0.1,5.1,5.4c0.1,13.1-9.5,14.6-17.7,19.4
			c-10.2,5.9-22.4,4.3-32.3,10.3c-3.7,2.2-10.8,1.8-7.9,9.6c0.4,1.1-1,1.4-1.8,1.9c-10.6,7.4-18.6,17.2-26,27.6
			c-3.2,4.6-1.5,18.5,3.8,23.4c4,3.7,1.3,4.6-1,5.9c-3.3,1.8-6,4.2-9.2,6c-6.6,3.8-11.2,8.3-11.4,16.5c0,2.9-2,5-5.4,4.7
			c-13.7-1-22.8,5.5-28.8,17.3c-0.7,1.5-1.8,4-3.6,2.9c-4.1-2.7-8.8-0.4-12.3-1.7c-11-3.9-22.9-1.9-33.7-6.3
			c-3.5-1.4-7.8-1.2-10.9,2.3c-0.3,0.4-0.8,0.8-1.2,0.8c-10.2,0.2-19.2,2.8-25.8,11.2c-0.5,0.7-1.5,0.8-2.2,0.2
			c-0.2-0.1-0.3-0.3-0.4-0.5c-2.9-5.1-9.1-7.3-9.9-14.7c-1-9-1.9-18.4-10.4-25.1c-4.1-3.3-9-3.2-13-5.8c-2.4-9.1,2.5-14.7,9.5-19.2
			c2.7-1.7,4.7-3.2,2.6-6.9c-3.6-6.3-1.5-11.9,3.5-16.4c4.1-3.7,5.4-7.3,1.8-12c-1.2-1.5-1.2-3.7-1.7-5.6c-1.3-5.1,0-8.3,5.8-8.2
			c4.3,0,6.2-2.6,6.9-6.3c2-10.6,8.3-19.7,9.9-30.4c0.1-0.9,1.1-1.6,1.8-2.3c2-1.7,3.9-3.7,6.1-5.3c7.8-5.5,7.8-5.5,3.4-15
			c-1.9-4.2-9.6-6.7-15.1-4.7c-7.3,2.7-12.3-2.8-18.2-5c0.7-2.2,4.1-3.6,2.3-6.4c-1.5-2.4-4.1-1.7-6.6-1.5c-4.3,0.2-7.8-0.9-5.4-6.6
			c1.6-3.8-0.3-7.4-1.7-10.5c-1.9-4.3-1.7-8.6-2-12.9c-0.2-2.7,6.9-7.4,9.7-6.1c4.9,2.2,9.1,5.9,11.8-3.1c1.2-4.1,13.2-4.7,15.8-0.9
			c8.1,11.7,21.1,9.7,32.4,12.5c6.9,1.7,14,2.7,20,6.5c7.6,5,15.1,9.3,24.5,4.7c0.6-0.3,1.6-0.6,2.1-0.3c12.9,7.7,28.3,6,41.8,11.5
			c1.3,0.7,3.3,0.4,3.8,1.9c3.4,9.6,13.1,11.7,20.3,16.6c4.5,3.1,9.6,6.6,15.9,6c1.9-0.2,4.5,0.8,5.8-0.2c6.9-5.2,11.7-0.7,16.2,3.5
			C268.7,868.4,278.5,872.7,288.9,873.5z"/>
	</g>
	<path id="Path_54" class="st0" d="M279.1,954.1c1.7-0.8,3.4-1.2,4.2-2.2c5.6-8,9.5-2.1,13.2,1.8c2.2,2.3-0.7,4.3-1.9,6.2
		c-2.2,3.5-5.5,3.3-8.2,1.3C283.6,959.4,281.6,956.6,279.1,954.1z"/>
	<path id="Path_89" class="st0" d="M320,950.3c-3.8-1.4-7-0.8-8.4-4.1c-0.1-0.3,0.6-1.4,1.1-1.6C316.1,943.8,318.1,945.5,320,950.3z
		"/>
	<path id="Path_138" class="st0" d="M248.7,971.6c-0.3-2,0.5-3.2,2.4-3.6c0.7-0.2,1.6,0.3,1.2,1.1
		C251.6,970.6,250.8,972.1,248.7,971.6z"/>
</g>
<g id="Turkey">
	<g>
		<path id="Path_2" class="st0" d="M1034,941.3c-5.1-2.1-6.7,2.6-8.2,5.2c-2.5,4.3-5.2,8.7-6.9,13.6c-1.7,4.9-7.2,6.8-10.8,10.2
			c-12.9,12.1-27.5,9.3-42.5,7c-7.3-1-14.6-1.3-21.9-1c-3.9,0.1-7.9,1.6-6,7.5c0.6,1.9-0.3,4.4,0,6.5c0.5,3.2-0.2,4.1-3.4,3.1
			c-2.7-0.9-5.7,0.3-7.7,1.5c-8.7,5.4-16.9,2.2-21.9-3.9c-5.7-6.9-11.5-4.2-15.6-1.5c-4.4,3-8.8,1.8-12.9,3.5
			c-1.6,0.4-1.9-0.3-1.6-1.7c2.2-3.1,9.5-4.7,7.7-7.2c-3-4.4-7.5,1.6-11.5,2c-2.9,0.3-4.6,3.7-7.8,3.7c-0.8-0.6-1-1.7-0.4-2.5
			c0.1-0.1,0.2-0.2,0.3-0.3c1.7-1.2,4.6-1.2,4.2-4.3s-4.1-3.8-5.5-3.9c-8.5-0.4-10.6-4.7-9.2-12.4c0.6-3.5-0.3-5.7-5.3-5.1
			c-5.3,0.7-10.2-3.7-16-2.6c-0.8,0.1-1.5-0.5-1.6-1.3c0-0.2,0-0.5,0.1-0.7c0.5-1.6,0.9-3.3,3.3-3.2c4.5,0.3,8.6-1.3,12.6-3.8
			c-4.3-2.9-10.7-4.5-5.6-11.7c1.6-2.2-0.9-3.1-2.3-4.5c-3.5-3.3-7.3-6.5-3.8-12.5c2.2-3.9-0.3-4.8-3.8-3.6
			c-2.1,0.7-4.1,1.6-5.9,2.8c-2,1.3-3.3,3.8-6.3,1.8c-2.9-1.9-2.6-5-1.8-7.2c1.8-4.7,0.3-9.1-0.4-13.6c-0.3-4.5,3.5-6.8,5.6-10
			c3.4-2.4,6.9-3.8,10.9-1.6c4.7,2.6,8.5,1.1,11.6-2.8c1.1-1.4,2.2-3.4,4-2.6c7,3.4,12.8-1.7,19.1-2.4c1.7-0.2,7.7,0.6,3.6-5
			c-0.8-1.1,1.7-2.7,3.1-3.6c3-2,6-4.1,8.3-4.6c-0.6,0.3-2.5-0.2-4.5-0.6c-3.9-0.8-8.3-1.4-8.3-6.6c0-5.3,4.1-6.3,8.3-6.3
			c10.2-0.1,19-6.4,29.2-6.6c2.7,0,4.9-2.1,6.4-4.5c9.3-14.6,21-26.8,35.7-36c5.4-3.4,11.6-3.8,17.5-5.6c6.6-2,13.3-3.2,17.7-9.5
			c2-2.8,6.9-3.9,7.6,0.1c1.3,7.3,6.1,6.7,10.3,5.4c6.2-1.8,10.9-1.1,15.2,3.8c2.3,2.7,5.2,2.1,7.9,0.1c2.8-2,5.6-4.3,9.2-1.4
			L1034,941.3z"/>
		<path id="Path_29" class="st0" d="M839.2,844.1c1.6,7.8,5.3,11.4,12.7,11.1c4.2-0.2,7.7,3.1,12.1,1.3c1.5-0.6,2.2,1.6,2.8,2.9
			c0.8,1.8,0.3,3.6-1.4,4.4c-2.1,1-4.4,2.3-7,1.5c-9.1-2.8-15.5,4.6-23.5,6.2c-0.6,0.1-1.4,1.6-1.4,2.4c0.1,7.1-5.7,9.9-9.8,13.8
			c-1.6,1.5-3.8,2.3-3.8,5c-1.2,3-3.4,5.2-5.8,7.3c-3.5-0.3-3.3-2.2-1.8-4.5c1.1-1.8,3.5-2.6,3.7-5.1c-2-1.3-3.8,0.2-5.7,0
			c-1.4-0.1-3.5-1-2.2-2.7c3.9-5.1,0.3-12.2,4.7-17.1c-0.5-4.7,2.2-10.3-5-12.8c-2.6-0.9-0.6-3.4,0.3-5c2.9-5.3,13.9-10.5,19.9-8.8
			C831.8,845.2,835.5,841.5,839.2,844.1z"/>
	</g>
	<path id="Path_40" class="st0" d="M1031.2,982.2c0.8,6.9-10.4,11.5-0.5,18.3c-9.1,1.9-10.3,11.7-18,15.2
		c-5.1,2.3-13.1,4.5-17.6,0.9c-2.9-2.3-0.9-8.1,3.8-11.2c6.1-4.1,12.1-8.4,19.3-10.6C1024,993,1026,986.5,1031.2,982.2z"/>
	<path id="Path_64" class="st0" d="M812.8,935c4-1.6,5.8-10.5,12.4-3.9c1.8,1.8,2.3,4,1,6c-1.8,2.7-3.6,0.4-4.8-0.7
		C818.7,934,815.8,936.8,812.8,935z"/>
	<path id="Path_73" class="st0" d="M884.8,1002c-0.6,6.3-2,11.2-6.1,15.2C876.5,1010.7,879.3,1006.4,884.8,1002z"/>
	<path id="Path_77" class="st0" d="M818,953.2c5-1.2,7,0.1,7.3,3.9c0.2,2.1-0.1,3.9-2.4,4.6c-1.1,0.3-1.9-0.1-1.9-1.3
		C820.9,957.9,820.7,955.5,818,953.2z"/>
	<path id="Path_91" class="st0" d="M874.6,991.4l1.6,1.7c-0.6,0.4-1.2,1.2-1.7,1.2c-2.7-0.2-4,4-7.1,2.1c-0.5-0.5-0.7-1.1-0.5-1.8
		C868.9,992.2,871.6,991.5,874.6,991.4z"/>
	<path id="Path_108" class="st0" d="M849,971.9c-3.1,2.3-5.2,3.6-8.8,1.4C842.9,971.3,845.2,970.8,849,971.9z"/>
	<path id="Path_112" class="st0" d="M857.3,997.5c0.5-3.6,2.7-4.5,6.5-4.5C862.4,995.4,860.1,997,857.3,997.5z"/>
	<path id="Path_135" class="st0" d="M794,908.3l4.4-4.3c0.5,0.9,0.8,1.3,0.8,1.6C799.1,908,798.3,909.8,794,908.3z"/>
	<path id="Path_145" class="st0" d="M829.4,980.1c0.9-1.5,2.5-2.6,3.5-1.8c1.9,1.7,0,2.1-1.4,2.2
		C830.8,980.4,830.1,980.3,829.4,980.1z"/>
	<path id="Path_149" class="st0" d="M863.7,987.9c0,1,0.1,1.9,0.1,2.9c-1.4-0.2-3.8,0.9-3.7-1.7
		C860.3,987.6,862.4,988.1,863.7,987.9z"/>
</g>
<g id="Germany">
	<path id="Path_133" class="st0" d="M452.6,432.4l-2.9,1.5c-1.3-2.5-0.8-4.3,2.2-4.2C453.8,429.7,454.2,431,452.6,432.4z"/>
	<g>
		<path id="Path_66" class="st0" d="M479.2,516.5c-3.2,3.7-6.7,3.3-10.3,0.6c-1.5-1.1-3.5-2.3-2.2-4.7c1.2-2.1,3-2.2,5-0.9
			c0.9,0.6,1.8,1.9,3.1,0.6C478,511.8,478.5,514.2,479.2,516.5z"/>
		<g>
			<path id="Path_8" class="st0" d="M430.5,515c2.4,1.5,4.8,1.5,7.7,0.9c3.9-0.9,7.4,0.6,8.2,5.1c1.5,8.1,7.8,11.7,15.8,8.8
				c0.6-0.2,1.3-0.9,2,0.2c0,0.6,0,1.3-0.2,1.9c-1,2.5-5.2,6.1-2.6,7.1c3.3,1.3,7.3,4.7,12.4,0.6c5.7-4.5,13.6-6.3,18.4-12.6
				c1.2-1.4,3.1-1.8,4.7-0.9c7.1,3.9,7.1-0.9,7-6.8c3.1,3.4,6,5.2,2.5,9.8c-1.4,1.8-2.4,4.7,3.2,6.1c5.2,1.3,10.3,7.2,12,13.9
				c0.6,2.4,1.2,4.7,1.8,7.1c2.5,3,1.8,6.2-0.2,8.8c-2.5,3.4-1.5,5.8,1.3,8.2c6.7,5.6,7.1,13.9,7.4,21.3c0.2,6.1,1.5,10.9,5.1,15.4
				c2.6,3.2,4.1,7,3.1,10.9c-0.9,3.7-2.1,8.4-7.8,5c-1.8-1.1-3-0.2-4.6,0.8c-12.7,7.6-24.5,16.7-39.4,21.8c4.5,4.1,6.5,8.6,7.1,14.6
				c0.7,6.8,7.9,10.2,12.4,14.9c3,3.2,6.7,5.7,10.3,8.3c6.1,4.6,6,6.1-0.7,10.4c-3.2,4.3-6.3,8.7-11.2,11.1c-3.4,1.7-2.6,4-1,6.6
				c2,3.2,3.5,6.6-1,9.3c-8.3-0.5-15.8,2.5-23.2,5.6c-4.9,2-9.7,3.2-14.9,1.1c-1.6-0.7-3.7-1.5-5-0.7c-5.8,3.9-10.3,2.5-16.3-0.9
				c-6.5-3.8-15.1-3.1-22.5-5.8c-4.3-1.6-6.7,4.5-11.1,4.1c-1.1,0.2-2.1,0.2-3.2,0c-5.4-0.6-7.1-3.4-6.7-8.9
				c0.6-10.2,1.8-19.8,9.1-27.7c2.8-3,1.9-5.1-2.3-5.9c-5.9-1.2-11-4.6-17.3-5c-5.3-0.3-11.3-9.7-10.4-15.2c0.5-2.9-1.1-3.9-2.8-5.3
				c-2.7-2.2-4.6-5.6-2.2-8.3c4.9-5.6,2.6-11.1,0.6-16.5c-1.7-4.6-2.7-8.3,0.1-13.1c2.2-3.6,2.6-8.1,0.9-12.1
				c-2-4.7,0.4-6.5,4.7-7.8c8.1-2.4,11.7-9.6,8.9-18.1c-0.9-2.7,0.3-4,1.9-5.7c4.7-5.2,6.8-11.2,5.4-18.2c0.1-3.5-1.6-8.4,3.9-8.5
				c3.7-0.1,9.8-5,11.3,4c0.6,3.9,9.3,3.5,9.7-0.6c0.9-9.3,6.8-7.6,12.9-6.9c-0.3-5-6.1-6.5-5.7-12c0.2-3-2.1-6.1-0.1-9.9
				c2-3.8-2.8-5.7-4.1-8.7C426.4,512.9,428.6,514.4,430.5,515z"/>
			<path id="Path_26" class="st0" d="M452.6,432.4c1.7,6.4,3.2,12.5-1.4,18.8c-3.1,4.2,0.6,14,5.2,17c1.2,0.8,3.2,0.9,3,2.8
				c-0.3,2.5-2.2,1.8-3.9,1.6c-2.9-0.3-3.9,2.2-4.1,4.2c-0.5,6-3.9,10.1-8.6,13.1c-2.2,1.4-1.8,3.2-1.9,5.1c-0.2,2.7,0.8,6-0.5,8
				c-3.5,5.3-1.2,7.9,4.2,10.1c-3.8,0.6-7.5,2.3-9.7,1.2c-3.8-1.9-12.4-0.9-7.7-10.4c2-4-2.8-7.1-6.4-9.6c-4-2.8-6.2-5.9-0.1-9
				c3.4-1.8,2.1-4.1,0-5.8c-4.2-3.3-3.8-7.7-2.9-12.1c0.4-1.7,1.2-4.4,3.9-3c3.3,1.6,5.8,2.3,7-2.3c0.3-1,2.2-1.8,2.9-0.2
				c1.3,3.3,4.2,4.3,6.3,2.5c2.9-2.5-2.5-3.8-2.1-5.8c1.2-5.2-0.9-8-6.2-9.6c10-1.2,14.6-8.7,20.2-14.9
				C450.3,432.7,451,431.7,452.6,432.4z"/>
			<path id="Path_43" class="st0" d="M477.7,510.6c0.2-4-1.5-6.7-5.5-7.5c-7-1.4-5.4-7.5-4.8-11.2c0.5-2.9,4.7-5.4,7.7-7.4
				c1.4-1,2.6,0.9,2.5,2.5c-0.1,2.3,0.5,4.5,3,3.5c3.6-1.5,0.4-2.4-0.8-3.4c2-2.2,0.3-6.4,4.2-7.7c1.9-0.6,5-1.1,5.2,0.5
				c0.5,3.6,2.4,8.4-1.2,10.9c-4,2.9-5.2,4.8-0.9,8.1c0.8,0.7,0.9,1.9,0.2,2.7c-0.2,0.2-0.3,0.3-0.6,0.4c-5,2.7-1.5,6.2-1.4,9.7
				L477.7,510.6L477.7,510.6z"/>
			<path id="Path_57" class="st0" d="M458.5,506.1c-2.6-0.8-5.5,2.8-7.6,0.1c-2.2-2.8-7.5-4.4-5.2-9.4c1.8-3.9,6.5-3.2,9.2-2.9
				c4.1,0.4,4.1,5.3,4.4,8.8C459.4,503.8,458.7,505,458.5,506.1L458.5,506.1z"/>
			<path id="Path_93" class="st0" d="M458.4,506.1c1.1,0.2,4.4-3.5,2.9,1.3c-0.9,2.9-2,6-5.2,8.4
				C454.9,511.8,458.6,509.4,458.4,506.1L458.4,506.1z"/>
			<path id="Path_110" class="st0" d="M421.3,459c-2-4.2,0.8-5.5,3.2-7.7C425.1,455,423.5,456.8,421.3,459z"/>
			<path id="Path_111" class="st0" d="M479.2,516.5c-2.3-0.6-2.6-3.3-4.4-4.4c0.5-1.3,1.7-1.5,2.9-1.5l-0.1-0.1
				C478.1,512.5,484.8,512.9,479.2,516.5z"/>
			<path id="Path_119" class="st0" d="M430.5,515c-1.6,0.1-3.4-0.2-4.5,1.5l-5.4-4.6l0.6-1L430.5,515z"/>
		</g>
		<path id="Path_150" class="st0" d="M459,433.7c-0.6,0.4-1.2,0.7-1.9,0.9c-1.3,0.1-1.5-1-1.2-1.9c0.1-0.5,0.9-0.8,1.4-1.1
			L459,433.7z"/>
	</g>
</g>
<g id="uk">
	<path id="Path_13" class="st0" d="M164.9,621.3c9.5-4.7,16.3-12.6,24-19.5c4.7-4.2,9.7-3.7,14.2-1.5c5.2,2.5,8.4,2.2,11.7-2.8
		c2.2-3.4,5.6-6.1,8.1-9.7c-4.2,4.8-10.9,2.6-15.6,6c-1.3,1.2-3.4,1-4.5-0.3c-0.2-0.3-0.4-0.5-0.5-0.8c-2.1-4.7-7.2-6.1-10-10.2
		c-2.3-3.3-6.4-3.2-10.2-2.2c-1.9,0.5-4.3,1.6-4.4-1.4c-0.1-1.7-1.4-4.9,1.9-5.5c4.8-1,8.1-5.6,13.5-5.4c3.4,0.1,4.9-2.4,5.8-5.6
		c2.1-8.2,0.3-16.1-2-23.8c-0.4-1.5-1.4-2.9,0.2-3.9c1.4-0.9,3.4-0.3,3.8,1c1.9,6.1,6.1,5.1,10.9,4.7c3.2-0.3,6.6,1.5,9.9,2.2
		c2.5,0.6,5.8-0.5,3.8-2.8c-5.6-6.6,0.6-11.1,2.3-16c1.8-5,3.2-7.9-3.9-9.3c-4.2-0.8-3.9-5.7-4.4-9.2c-0.4-2.9-0.4-5.9,3.2-7.4
		c2.5-1,4.8-2.5,7.2-3.8c-6.7-3.5-6.7-3.5-12.9-0.4c-1.3,0.6-3.9,1.4-4,1.2c-2.6-5.3-8.1-2.4-12-4c-5.7-2.4-4.4-3.6-1.6-7.3
		c3.9-5.2,8.4-10.4,5.8-17.8c-0.5-1.5-0.6-3,1.3-3.6c2.3-0.7,2.6-1.8,1.2-3.8c-2-2.9-3.1-0.4-4.5,0.6c-0.2,0.1-0.4,0.4-0.6,0.4
		c-2.4,0.6-2.5-0.9-3.1-2.7c-0.8-2.5-1.4,0.3-1.9,0.5c-1.6,0.7-3,1.6-4.7,0.3c2.7-5.2,2.6-12.2,10-14.4c0.8-0.3-0.3-4.5,1.7-6.5
		c-4.5-0.8-6.4,4-10.3,3.3c-0.9-1.7,0.6-2.2,1.5-3c-0.3-3.2,0.5-6.4,2.3-9.1c2.5-4.2,5.1-7.9,2.1-13.6c-0.7-1.4-0.2-10.8,7.3-11.2
		c2.8-0.2,4.7-0.4,3.5-4.3c-0.8-2.7,0.4-5.3,3.8-6c0.7-0.1,1.9-0.6,1.9-0.8c-0.6-11.3,5.4-6.2,10.4-4.4c4,1.4,8.3,0.5,12.4,0.7
		c1.6,0.1,4.1-2.1,4.9,1.1c0.5,2.2,0.2,4.4-2.1,5.8c-2.1,1.3-4.1,2.7-6.2,4c-6.5,4.1-11,9.5-11.7,17.5c0.4,0.2,1,0.7,1.2,0.5
		c9.8-6,19.2,0.5,28.7,0.9c4.8,0.2,5.9,4.8,3.1,9.1c-2.2,3.2-4.2,6.6-6.1,10c-3.7,6.6-8.2,12.9-16.8,13.5c0.6,2.4,4,0.9,3.3,2.5
		c-2.1,4.9-7.3,4.9-11.9,6.6c3.2,4.4,5.8,8.4,12.4,4.7c3.6-2,6.6,1.6,8.5,4.1c6,8,9.5,17.1,9.3,27.2c-0.1,7.3,1.7,12.9,8.5,17.2
		c8.3,5.2,7.1,14.9,7.3,23.1c0.1,3.3,0.6,5.3,2.6,7.7c4.2,5.1,3.4,10.2-1.8,14.4c-2,1.6-2.1,3.6-0.6,5c2.3,2.1,5.4,3.3,8,0.8
		c3.2-3.2,6-3.1,9.8-1.1c12.9,6.7,13.8,18.4,1.3,26.2c-5.7,3.6-9.2,9.6-15.7,12.3c-3,1.2-0.8,4,1.3,4.8c3,1.1,6.2,1.4,9.2,2.2
		c3.7,1,4.5,3.2,1.2,5.4c-7.1,4.8-15,7.3-23.7,6.6c-13.2-1-26.4-6.6-39.7-0.3c-1.8,0.8-3.9-0.1-5.6-1.2c-9.7-6.2-15.6-5.3-23.3,3.7
		c-1.5,1.7-3,3.8-5.4,1.6c-7.1-6.5-14.1-4-20.5,0.5c-3.2,2.2-4.8,0.9-7-0.7C161.1,621.2,164.3,622.5,164.9,621.3z"/>
	<path id="Path_59" class="st0" d="M192.9,457.4c4.9-0.1,6.1-6,10.5-7c2,2.6-0.7,3.4-1.6,4.6c-1.7,2.2-1.3,3.4,1.4,3.9
		c-1.2,2.6-1.9,5.5-4.4,7.3c-1.4,1.2-1.1,3.6-3,4.5c-1.8,3.1-4.6,2.5-6.2,0.5c-3.1-3.8,3.3-3.6,3.3-6.3c1.4-1.8,3.6-3.4,1.5-6
		L192.9,457.4z"/>
	<path id="Path_68" class="st0" d="M195.9,386.7c0,0.5,0,1-0.1,1.4c-1.5,4.9-6,5.8-9.8,7.7c-1,0.5-1.9-0.2-1.8-1.4
		c0.4-4.4,5-4.5,7.3-7c0.9-0.8,1.8-1.5,2.9-2.2C195.8,384.8,196.3,385.3,195.9,386.7z"/>
	<path id="Path_82" class="st0" d="M215.4,278.7c-1.5-1.4-2.7-2.6-4-3.6c-1-0.8-3.3-0.5-2.9-2.4c0.2-0.8,1.7-1.6,2.8-2
		c1.7-0.7,2.8,0.5,3.4,1.9C215.5,274.2,217.2,275.8,215.4,278.7z"/>
	<path id="Path_84" class="st0" d="M194.1,418.1c-0.9,0.2-1.1,0.4-1.3,0.3c-3.5-1.4-4.1-4.4-4-7.6c0-0.3,1.1-1.1,1.5-0.9
		C194.4,411.4,192.8,415.3,194.1,418.1z"/>
	<path id="Path_88" class="st0" d="M195.9,436.8l-1.5,3c-1.6,0.6-1.4,3.2-4.1,3.3c0.1-2.4-2.3-5-0.5-7.1
		C191.4,434.2,193.7,437,195.9,436.8z"/>
	<path id="Path_106" class="st0" d="M282.2,344.3c-1.3-2.3-0.8-4.6-0.2-6.9C285.4,340.1,285.4,340.1,282.2,344.3z"/>
	<path id="Path_117" class="st0" d="M253.7,377.3c-2.2-0.4-4.7,0.8-6.6-1.1c-0.2-0.2,0.4-1.5,0.9-1.8
		C251,372.9,251.9,376,253.7,377.3z"/>
	<path id="Path_120" class="st0" d="M202.7,506.5c-0.2,3.3-1.7,4.6-4.8,5.1C198.1,508.4,199.6,507.1,202.7,506.5z"/>
	<path id="Path_123" class="st0" d="M164.9,621.3l-2.9,2.8c-1.6-0.1-3.4,0.6-5-0.8C159.1,619.9,162.3,621.7,164.9,621.3z"/>
	<path id="Path_136" class="st0" d="M194.4,458.9c4.2,3.1,2.3,4.8-1.5,6C193.4,462.9,193.9,460.9,194.4,458.9z"/>
	<path id="Path_140" class="st0" d="M195.8,470.7c-0.1-2,1.1-3.8,3-4.5C198.1,468,201,472,195.8,470.7z"/>
	<path id="Path_143" class="st0" d="M183.3,458.2c1.4-0.2,2,0.3,1.7,1.1c-0.1,0.9-0.6,1.8-1.3,2.5c-1,0.7-1.1-0.6-1-1.2
		C182.8,459.8,183,459,183.3,458.2z"/>
	<path id="Path_144" class="st0" d="M189.2,453.8c1.3-0.2,1.9,0.4,1.6,1.1c-0.3,0.8-0.9,1.5-1.7,2c-0.8,0.4-1.4-0.2-1.1-1
		C188.4,455.1,188.8,454.4,189.2,453.8z"/>
	<path id="Path_148" class="st0" d="M289.1,332.6c0.6,1.7-0.1,3-1,4.4c-1.8-0.4-1.6-1.5-1.1-2.7
		C287.4,333.5,287.8,332.5,289.1,332.6z"/>
	<path id="Path_152" class="st0" d="M195.9,386.7c-0.5-0.5-1-1-1.5-1.5c0.8-1.3,1.8-3.6,3.4-2C199.5,384.8,197.1,385.8,195.9,386.7z
		"/>
</g>
<g id="Litouwen">
	<g id="Litouwen1">
		<path id="Path_19" class="st0" d="M707.8,501.7c-5.3,2.4-7.1,8.3-11.9,11.4c-7.9,5.2-12.4,5-18.7-1.9c-1.6-1.7-3.3-1.7-5.1-2.2
			c-5.6-1.6-9.7-4.5-8.4-11.4c1.1-5.7-3.7-9.3-7.2-8.6c-7.1,1.4-12.9,0.5-18.7-3.2c-0.9-0.6-2.4-0.2-3.6-0.3
			c-1.6-5.1-3.1-10.3-4.8-15.3c-0.5-1.4-1.2-2.6,0.3-3.8c4.2-11.7,13.1-16.7,26.2-15.7c7.8,0.6,15.6-1.2,23.4-1.8
			c4.6-1.7,9-6,13.7,0.3c1.2,1.5,5.1-0.6,7.5,0.9c5.8,3.2,12,5.9,17.2,9.9c3,2.3,2,8.8,7.8,9.3c-0.1,0.3-0.1,0.6-0.2,1
			c-1.4,2.8-4.2,4.1-6.4,5.9c-3.9,5-7.1,10-5.9,17.1C713.4,496.2,712.2,500.6,707.8,501.7z"/>
	</g>
	<path id="Path_35" class="st0" d="M635.5,488.5c2.4-0.4,4.2,0.8,6,2.1c2.2,1.6,4.9,1.8,7.6,2.4c3.2,0.6,5.8-4.1,9.3-0.4
		c3.6,3.8,1.5,8.4,2.9,12.6c1.3,4-2.9,3.9-5.1,4.6c-13,4.2-26.4,4.1-39.8,3.8l0,0c-0.4-0.3-0.9-0.9-0.7-1.2c2-3.1,2.8-6.9,2.2-10.6
		c4.3-0.6,8.7-0.8,12.8-1.8C637,498.3,635.1,492.8,635.5,488.5z"/>
	<path id="Path_154" class="st0" d="M628.6,494.7c0.1-3.2,0.6-4.4,1.9-5.2C631.7,491.4,630.3,492.4,628.6,494.7z"/>
</g>
<g id="Estland">
	<g>
		<path id="Path_22" class="st0" d="M712.2,371.9c2,2.6,3.4,5.3,3,8.7c-0.3,2.4,0,4.5,2.2,6.5c4.6,4.2,3.2,10.4-2.6,13.1
			c-5.8,2.7-10.4,4.5-17-0.9c-7.8-6.4-17.9-8.1-26,1.6c-2.3-4.7,0.8-9.3-2.5-12.8c-2.8,0.1-3.4,5.7-7.2,3c-3.6-2.5-9.2-3.6-7.1-10.1
			c0.9-2.8-1.7-4.1-3-5.4c-3.8-3.7-2.2-6.4,0.5-9.9c8.2-10.8,20.5-14.2,32.3-18.4c2.8-0.9,5.8-1.1,8.7-0.4c5,1.3,10.2,1.3,15.2,0
			c2.1-0.6,5.7-1.8,6.4,2.6C713.5,357,711.6,364.3,712.2,371.9z"/>
		<path id="Path_55" class="st0" d="M646.5,386c1.1-0.3,2.4-0.3,2.6,0.6c0.3,1.3,0.4,3.4-0.4,4.1c-4,3.7-8.2,7-12.4,10.5
			c-1.4,1.2-1.9,0.2-2.7-0.8c-1.5-2-2.9-3.7-1.6-6.5C634.8,387.4,641.4,388.2,646.5,386z"/>
		<path id="Path_67" class="st0" d="M643.6,378.7c-1.6,2-2.7,5-5.9,4.4c-1.7-0.3-4.8-1.1-4-3.2c0.8-2.4,2.3-5.7,5.5-5.7
			C641.2,374.2,642.8,376.4,643.6,378.7z"/>
	</g>
	<path id="Path_156" class="st0" d="M718.2,338l-1.6,4.4c-0.9-0.1-2.1-0.2-1.9-1.5C714.9,339.1,716.4,337.8,718.2,338z"/>
</g>
<g id="Norway">
	<path id="Path_60" class="st0" d="M381.7,329c2.5-2.4,5.6-1.1,8.4-1.4c2.6-0.2,5.5,0.7,7-2.4c0.5-0.9,1.9-1.7,2.3-0.8
		c3.8,7.6,7.6,1.1,11.7-0.4c0.3,5.2-4.7,6.5-6.1,9.9c-0.1,0.3-1.4,0.4-1.8,0.1c-6-4.9-13.2-2.8-19.9-3.4L381.7,329z"/>
	<path id="Path_80" class="st0" d="M404,292.1l6.6,2.3c-2,2.1-4,4.2-4.4,7.6c-2.8-2.8-3-5.7-3.7-8.4L404,292.1z"/>
	<path id="Path_105" class="st0" d="M401,292.3c-2.1,2.2-0.8,5.4-2.4,7.9c-3.3-2.1-1.6-5.3-2.2-7.9
		C397.9,292.3,399.5,292.3,401,292.3z"/>
	<path id="Path_113" class="st0" d="M389.1,305.6c3.5,1.4,7.7,0.5,12.1,3.7c-4.2,0.3-8.3-0.6-12.1-2.5
		C389.1,306.5,389.1,306.1,389.1,305.6z"/>
	<g>
		<path id="Path_11" class="st0" d="M541.1,60.6c0.1,1.5,0.6,3.8,1.7,3.5c6.2-1.4,5.6,3.7,7.2,6.8c1.2,1.4,3.2,0.1,4.4,1.5
			c-0.2,1.1-1.1,2.8-0.6,3.3c1,1.3,2.1,0,2.9-0.9c4.4-4.5,3.7-10.2,3.6-16.5c6.7,4.3,6.8-0.3,6.6-4.6c3.3-0.3,4,3.2,6.7,3.4v-5.5
			c1.3-0.7,0.1-3.8,2.9-3c8.1,2,11.2-0.5,10.3-8c-0.5-4.1-0.4-7.2,5-9c5.3-1.7,5.3-7.7,5.2-12.8c4.7,1.6,7.9,3.6,4.9,8.8
			c-0.4,0.6-0.5,1.4-0.2,2.1c1.7,3-0.4,8.9,3.5,9.3c4.2,0.4,1.7-5.1,2.8-7.8c1-2.7,2.3-5.3,3.9-7.7c0.8-0.8,1.1-2.4,2.8-1.4
			c2.4,1.6,3.7,3.6,2.8,7c2.5-3.8,8.2-5.4,6.4-11.3c-0.2-0.5,0.9-1.7,1.6-2.1c1-0.5,1.7,0.4,2.2,1.3c0.1,0.2,0.2,0.5,0.3,0.7
			c2.2,3,3.8,8.6,7.5,7.5c3.3-1,1.3-6.5,1.4-10c0.1-3.9,0.2-4.3,4.9-3.3c5.4,1.1,9.6,6.6,15.9,4.6c0.7-0.2,2.1,1.7,3.2,2.6
			c-3.4,2.1-2.3,8.1-7.5,8.8c-4,0.6-8.1,0.7-12.2,4c7.9,2.8,12.8,9.6,20.7,10.7c0.9,5.8-4.8,8.8-6,13.7c-0.4,1-1.5,1.4-2.4,1.1
			c0,0,0,0,0,0c-1-0.4-1.5-1.4-1.4-2.4c2.5-8.4-4.8-9.9-9.3-13.3c-0.6-0.4-1.3-1.1-1.9-1c-4,1-5.2-7.2-9-3.7
			c-5.9,5.4-16.6,7.5-14.2,19.3c0.6,2.8-0.7,6.2,0.4,8.8c3.2,7.5-2.8,12.9-3.9,19.3c-0.3,2-2.5,2.4-4.2,1.7
			c-5.7-2.6-10.7-2.6-14.9,2.9c-0.7,1-2.3,0.7-3.5,0.3c-8.6,0.3-11.8-6.6-15.9-12.1c-2.9-3.9-5.3-6.4-7.9,0.1
			c-0.3,0.7-0.9,1.2-1.6,1.5c-8.7,4.6-5.6,12.5-4.9,19.3c0.5,5.3-0.1,6.5-5.5,5.5c-3.4-0.5-6.7-1.3-10-2.2c-7.2-2.4-7.1,1.4-7,6.4
			c0.1,4.7,1.3,9.5-7.4,8.5c-5.7-0.7-7.3,7.3-9,12.1c-1.7,4.7-3.7,9.3-0.9,15.2c2.2,4.7-1.6,10-4.4,14.2c-2,3-3.5,5.7-3.2,9.4
			c0.4,5.3-2.4,8.7-7.3,9.4c-4.7,0.7-5,3-3.8,6.6c0.3,8.3,0.4,16.7-1.3,24.9c-0.5,2.4-0.9,4.9-2.4,6.9c-3.4,4.7-5.3,8.6,0,13.9
			c4,4.1,0.8,10.8-4.6,11.4c-12.5,1.3-17.9,7.4-18.2,20.5c-1.5,7.6-1.4,15.5,0.4,23c1.5,5.6,1.7,11.5,0.8,17.3
			c-1,6.3,0.1,11.1,5.1,15.8c6.8,6.3,6.2,9-1.4,14.4c-2,1.4-1.8,3.3-1.8,5.2c0,1.5,0.5,2.9,1.3,4.2c6.6,10,6.1,18.1-4.2,26
			c-2.8,2.2-6.9,8.2-2.6,14.4c2.4,3.5-0.8,7.5-2.1,11.1c-0.4,1-2.1-0.1-2.7-1.2c-0.1-0.5-0.1-1.2-0.4-1.4
			c-7-4.6-12.5-10.1-10.4-20.8c-3.6,3-2.9,6.5-5.9,7.4c-2.4,0.7-2.3,2-1,3.8c3.1,4.6-1,12-7,11.6c-3-0.4-5.8,1.4-6.8,4.2
			c-3,7.2-9.1,11.5-14.3,16.5c-8.4,8.2-20.4,7.6-31.4-2.2c-4-3.6-11.8-4-11.7-11.9c0-1.6-1.3-3.3,0.5-4.7c1.5-1.2,2.7-0.2,3.9,0.7
			c3.6,2.4,3.7,0.2,5.2-2.8c2.3-4.7-2.9-11.7,4.7-14.5c0.2-0.6,0.1-1.3-0.2-1.9c-1-1.4-2-0.4-3.1,0.1c-2.9,1.5-5.7,4.5-9.2,1.2
			c-0.4-0.4-0.6-0.7-0.4-1.1c0.1-0.4,0.3-0.5,0.4-0.5l9.9-6.2c-6.4-1.7-3.5-4.6-2-8.1c2.7-6.2,10.3-7,13.8-13.1
			c-6-1.5-10.4,1.1-13.6,4.4c-3.6,3.7-7,3.4-11.5,1.9c0.7-2.5,2.8-4.5,5.3-5.1c2.1-0.7,2.6-2,2.4-3.9c-0.2-1.6-0.9-3.1-2.6-3.1
			c-2.2-0.1-4.8,0.7-4.1-3c0.6-2.9-1.2-7.1,3.8-7.9c6.1-3,12.4-1,18.5-0.5c2.1,0.2,3.8,0.6,5.1-1.2c-8.3-1.1-16.8,0.7-25.2,0.2
			c-2.8-5.7,1.8-12.4-2.4-18.5c-0.9-1.4,5.8-4,9.9-3.6c2.9,0.1,5.6,1.1,8.5,1.3c-2.9-0.7-6.1-0.5-8.5-2.6c-2.2-0.1-4.3-0.2-7.3-3.3
			c1.4-0.8,3.3-2.6,4.1-2.2c8.7,4.1,6.8-5.6,10.5-7.8c1.5,1.2,1.8,2.7,1.2,6.2c0.7-3.7,1.5-5.4,3.5-6.3l1.4,1.4
			c1.9,0.7,2.5,4.4,3.3,3.8c3.3-2.6-1.7-3.3-1.8-5.4c-0.7-1.8-2.5-3.1-1.8-5.7c6.7,0.5,13.4,0.6,17.8-5.9c0.4-0.5,1-0.8,1.6-0.9
			c1.3,0,2.9,0.8,3.6-1.3c0.1-1.7,3.7-1.2,2.3-3.8c-0.5-1.3-2.9-3.1-2.2-3.2c8.3-1,3.6-7.2,4.6-11.1c0.3-1.2-0.1-2.5,1.4-2.9
			c0.5-0.1,1.6,0.5,1.6,0.9c2.3,12.9,6.6,4.4,10.3,0.8c3.2,6.2,8.4,7.9,12.6,2.6c4.6-5.6,10-11.8,9.4-22.1c-3.9,4.8-9,5.8-9.4,11.9
			c-0.2,3.4-4.1,5-7.2,5.2c-6.1,0.4-2-3.7-1.5-5.2c1.4-4.4,2.1-8.9,4.6-13.1c3.1-5.1,5.7-9.9,12.9-7.9c2.1,0.6,3.2-1,2.5-2.3
			c-1.9-3.3,5.5-9.3-3.6-10.3c12.8-4.6,15.7-6.7,18.9-13.3c-2.4-0.9-5.4,0.3-7.6-2.6c2.7-1.5,3.9-3.4,4-7.1c0-3.5,0.9-10.3,8-5.4
			c0.8-2.7-1.4-3-2.5-4.2c-1.3-1.5-2.4-3-1.7-5.3c0.8-3,3.4-2.3,5.3-2.8c1.1-0.3,2.4,0.6,3.6,0.4c1.9-0.3,4.6-1.1,4.4-3.2
			c-0.4-3.4-2.9-1-4.5-0.8c-2.1,0.3-4.7,1.2-6-1.2c-1.5-2.7,2.1-3.5,2.5-5c2.3-8.2,8.9-13.2,13.5-19.7c1.7-2.4,2.9-0.5,4.3-0.5
			c2.4,0.1,5.7,0.9,6.4-2c0.8-3.2-3.2-2-4.7-3.3c-0.9-0.5-1.9-0.9-2.9-1.1c0.6-2.9,2.4-3.7,4.7-2.8c1.2,0.4,2.3,2.5,3.3,0.1
			c0.7-1.3,0.2-2.8-1-3.5c-0.1-0.1-0.2-0.1-0.3-0.2c-2.6-1-5-1.6-0.6-4.1c1.7-1,0.8-3.2-1.6-3.4c-1.7-0.1-3.6,2.3-5.5-0.6
			c1.8-2.9,5.3-1.1,7.6-2.6c2.6-1.8,1-2.5-0.9-2.9c-1.1-2.9,2.3-1.5,2.8-2.9c0.9-1.1,1.9-2,2.2,0.3c0.4,2.8,1.9,4.7,4.2,6.6
			c-2.1-5.6,5.6-10,1.2-16.2c2.6,0.3,4.4,1.9,6.9,1.3c2.2-0.4,3.9-2.3,4-4.5c0.4-3.2-2.5-1.9-4.2-2.3c-1.7-0.4-4.4,1-4.8-1.8
			c-0.2-1.5,1.6-2.5,3-2.8c6.2-1.2,7.1-4.8,5.5-10.3c-0.5-1.6,0.7-3.7,1.1-5.6c2-1,2.5-3.5,4.5-4.5c4.7,1.7,8.8-6,14.7,1.1
			c-1.8-7-7.5-7.9-9.8-8.6C529.9,67.2,539,64,541.1,60.6L541.1,60.6z"/>
		<path id="Path_62" class="st0" d="M509.8,94.4c2.6,3.4,1.2,6.3,2.2,9.2c3.2-1.9,1.9-6.4,5-8.1c2.4,4.5-1.3,12.6-6.1,12.6
			c-0.6,0-4.7-2.8-3.6-6.2C507.9,99.6,508.8,97.4,509.8,94.4z"/>
		<path id="Path_63" class="st0" d="M536.7,78.3c-1,2-1.5,4.4-4.5,4.5c-2.9-0.4-5.6,0.3-8.7,2.8c0.7-2.3,1.3-4.6,1.8-7
			c0.3-2.8,1-5.8,4.2-5.9c4.1-0.2,2,3.5,2.8,5.5C533.5,81.2,535.2,76,536.7,78.3z"/>
		<path id="Path_71" class="st0" d="M421.6,280.4c-0.5,0-1.1,0-1.6,0c-3.4,0.2-6.7,1.2-10.3-0.4c-1.6-0.8-4.3-0.3-3.6-2.8
			c0.5-1.7,3.2-2.4,4.9-1.2c1.3,1,3,1.5,4.6,1.3C418.7,276.4,422.1,274.6,421.6,280.4z"/>
		<path id="Path_85" class="st0" d="M631.6,9.7c-0.5,2.2-2.4,2-3.9,2.5c-1.7,0.6-3.5-0.2-4.1-1.9c-0.1-0.2-0.1-0.5-0.2-0.7
			c-0.3-2.1,2.2-1.8,3.7-2.4C629.7,6.2,630.2,8.7,631.6,9.7z"/>
		<path id="Path_86" class="st0" d="M576.5,48.8l-2.9,3c1-5.5-4.6-3.5-7.1-5.7C571.5,42.5,574.6,43.5,576.5,48.8z"/>
		<path id="Path_94" class="st0" d="M554.4,72.4c-1.6-0.1-3.4,0.3-4.4-1.5c3,0.2,4.5-0.9,4.5-4.1c0-2.5-0.7-5.2,1-7.6
			C554.4,63.6,558.8,68.3,554.4,72.4z"/>
		<path id="Path_96" class="st0" d="M427.5,274.5c3,2.7-1.4,2.9-1.5,4.5c-3.7,1.4-5.4-3.5-8.8-3c0.3-2.8,1.7-2.5,4-2
			C423.1,274.5,425.2,277.1,427.5,274.5z"/>
		<path id="Path_99" class="st0" d="M502.9,91.5c1.1,4.4,3.4,6.3,1.7,9c-0.6,1-1.5,0.1-2.2-0.5C499.3,97.5,501.5,95.7,502.9,91.5z"
			/>
		<path id="Path_101" class="st0" d="M417.1,276c3.7-1.2,5.9,2.1,8.8,3c0.3,1,1.4,2.2,0.3,3.1c-2.2,1.7-2.9-1.6-4.6-1.7
			c-0.5-3.9-3.6-2.7-5.9-3.1C416.2,276.9,416.7,276.5,417.1,276z"/>
		<path id="Path_109" class="st0" d="M541.1,60.6c0.1-1.7-0.8-4.3,2.5-3.8c1.2,0.2,3,0.8,2.1,2.9C544.6,62.8,542.8,61.2,541.1,60.6
			L541.1,60.6z"/>
		<path id="Path_116" class="st0" d="M614.7,22.4l-2.8,1.4c-0.1-3.4,1.2-6.7,3.6-9.2C615.3,17.2,615,19.8,614.7,22.4z"/>
		<path id="Path_124" class="st0" d="M381.7,374.8c0,0.5,0,1.1,0,1.6c-2.1,0.9-0.8,4.4-4.5,5C379,378.9,375.9,374.4,381.7,374.8z"/>
		<path id="Path_127" class="st0" d="M486.5,117.4c1.1-2.4,1-4.8,3.7-4.5c0.5,0,1.4,1,1.3,1.4C491.2,116.5,489.2,116.9,486.5,117.4z
			"/>
		<path id="Path_130" class="st0" d="M388.5,356.4c0.3,2.4-0.6,3.7-2,4.5c-0.2,0.1-1.3-0.6-1.4-1.1
			C384.5,357.5,386.4,357.1,388.5,356.4z"/>
		<path id="Path_132" class="st0" d="M578,46.5c0.2-4.7,3.3-3.1,6.1-5.4C582.4,44.9,580.6,45.7,578,46.5z"/>
		<path id="Path_139" class="st0" d="M495.4,114.9c1.8-4.4,4.1-4.5,6.3-5.7C501.1,113.1,498.3,112.2,495.4,114.9z"/>
		<path id="Path_158" class="st0" d="M513,118.1c-0.9,1-1.9,2-2.8,2.9c-1.3-0.6-2-1.8-1.2-2.9C510.1,116.7,511.7,118.4,513,118.1z"
			/>
	</g>
</g>
<g id="Greece">
	<path id="Path_17" class="st0" d="M814.1,869.1c-0.7,1.3-1.3,2.6-2.1,3.9c-2.1,3.6,0.9,9.5-3.5,11.4c-5.4,2.3-11.7,1.6-17.4,0.6
		c-4.3-0.8-7.6-0.7-10.7,2.3c-1.1,1.3-2.9,1.8-4.6,1.3c-4.3-1.1-7.3,0-9.4,4.5c-1.8,4-6.3,4.1-10.6,4.2c0.2,1.1,0.5,2.2,0.9,3.2
		c1.5,3.6,5.7,6.7,2.4,11.2c-1.7,2.2-14.1,2-16.8,0c-0.7-0.5-1.3-1.3-1.7-2.1c-0.6-1.5,2.4-4.7-0.9-4.5c-3.1,0.2-5.9,3.5-6.6,6.8
		c-1.5,6.7,2.6,16,8.7,18.8c4.9,2.3,5.2,8.2,9.8,10.2c-1.1,3-3.7,1.3-5.6,2.7c2.4,1.8,3.9,4.6,4,7.7c-0.1,4.1-4.3,4-7,5.2
		c-1.2,0.5-2.4,1.3-2,2.7c0.4,1.6,1.9,2.1,3.5,2c9.1-0.3,17.2,2.6,24.5,8c0.6,0.4,1.2,1.3,1.8,1.2c10.2-0.8,7.4,6.9,8.1,12.3
		c-0.9,0.8-2.2,0.9-3.1,0.1c-7.3-5.6-13.8-0.6-20.6,1.4l0.1,0.1c0.8-1.5,1.7-3,2.7-4.3c2.7-2.9,1.5-3.5-1.7-4.7
		c-10.2-3.9-20.3-4.8-30.3,0.1c-4.5,2.2-9.2-0.2-14.1,1.3c-3.3,1-6.5-6.4-8.7-10.5c-1.9-3.5,2.9-1.8,4.1-3.2
		c0.6-0.7,1.7-1.8,1.5-2.2c-1.1-2.7-4.1-3.2-6.1-2.9c-4.7,0.9-7.4-1.7-11.1-3.8c-5.6-3.2-6.1-7.4-5.5-12.7
		c-0.5-5.5,0.5-10.1,4.4-14.7c4.1-4.6,6.3-10.6,6.3-16.8c0-3,1.5-5.1,4.1-6.5c5.5-0.6,10.4-2.3,13.7-7.3c0.5-0.9,1.3-1.5,2.2-1.9
		c8.6-1.5,15.3-6.8,22.6-11c6.7-3.8,14.6-5.4,21.3-9.7c4.8-3.1,9.6-3.4,15.2-0.5c10.1,5.3,19.4,0.7,28.3-4c1.9-1,2.2-3.1,1.5-5.2
		c-0.8-2.6-2.2-5.7,2.2-6c3.5-0.2,7,0.6,7.9,4.9C815.9,865.1,815.8,867.3,814.1,869.1z"/>
	<path id="Path_30" class="st0" d="M755,984.1c2.4,3.9,5.1,7.6,8.8,10.5c0.8,0.6,0.9,1.6,0.4,2.4c-0.1,0.1-0.2,0.3-0.4,0.4
		c-2.3-0.7-4.7-1.2-7-2c-2.1-0.7-4.5-1.9-5.8,0.8c-1.1,2.1-0.5,4.6,1.4,5.9c4.3,3.6,5.2,9.4,8.6,13.6c1,1.3,2.1,3.1,0.5,4.6
		c-1.3,1.3-2.7,0.4-4-0.5c-5.8-4-7.1-0.3-7.4,6.4c-2.6-4.8-4.7-7.9-7.4-10.5c-1.8-1.8-3.8-2.3-6-1.4s-2.5,2.8-1.8,4.9
		c0.4,1.2,0.9,2.5-0.8,3c-1.4,0.5-2.3-0.4-2.9-1.6c-1.3-2.6-3.5-5.2-2.8-8.2c2-8.3-3.3-12.3-9-16.1c-1.9-1.2-5.8-0.9-5-4.1
		c0.8-3.1,3.1-5.5,5.6-8c10.4-10.1,20.5-1.1,30.6-0.6C752.2,983.6,753.6,983.8,755,984.1L755,984.1z"/>
	<path id="Path_56" class="st0" d="M773.4,965.4c-1.6,0.9-3.4,1-4.1-0.4c-2.8-5.4-9-5.3-13.2-8.3c-1-0.7-3.5-0.1-2.6-2.4
		c0.6-1.6,2.4-3.2,4.1-1.9c5.6,3.9,11.7,5.4,18.5,5.8c2.6,0.2,2.8,3.2,2.5,5.4C778,967.4,774.6,963.9,773.4,965.4z"/>
	<path id="Path_95" class="st0" d="M783.4,969c3.2,2,6.6,0.9,7.8,4.4c0.1,0.3-0.7,1.4-1.1,1.5C786.8,975,784.7,973.5,783.4,969z"/>
	<path id="Path_100" class="st0" d="M816.9,899.9c0.5-3.6,3.2-5.4,5.8-7.3l1.6,0c-2,2.9-4,5.9-6,8.8
		C817.9,901,817.4,900.4,816.9,899.9z"/>
	<path id="Path_104" class="st0" d="M701.9,986.9c-4.3,0-6.1-1.2-6.4-4c-0.1-0.6,1.3-2.1,1.8-2C700.1,981.5,699.5,984.7,701.9,986.9
		z"/>
	<path id="Path_126" class="st0" d="M790.2,947.7c-0.7,0.7-1.3,1.6-2.1,1.8c-1.5,0.4-2.1-0.8-2.4-2c-0.3-1.2,0.6-1.7,1.6-1.7
		C788.6,945.6,789.8,946.4,790.2,947.7z"/>
	<path id="Path_129" class="st0" d="M778.9,891.6c1.4,0.4,2.7,1.2,2.9,2.7c0.2,1.4-1.1,1.2-2,1.2c-1.2,0.2-2.3-0.6-2.4-1.8
		c0-0.1,0-0.1,0-0.2c-0.2-0.9,0.4-1.7,1.3-1.9C778.7,891.6,778.8,891.6,778.9,891.6z"/>
	<path id="Path_146" class="st0" d="M775.6,982.7l3.1-0.1c1.2,0.7,2.6,1.3,2.1,3.8L775.6,982.7z"/>
	<path id="Path_147" class="st0" d="M809.4,984.1c-0.8,0.5-1.3,1.1-1.8,1.2c-1,0.1-1.9-0.4-1.6-1.5c0.1-0.4,1.1-0.8,1.7-0.8
		C808.1,983,808.6,983.6,809.4,984.1z"/>
	<path id="Path_155" class="st0" d="M763.2,915.1c0.6,0.6,1.2,1.3,1.6,2.1c0.3,0.8-0.5,1.3-1.2,0.8c-0.7-0.7-1.3-1.4-1.8-2.2
		C762.2,915.6,762.6,915.4,763.2,915.1z"/>
	<path id="Path_157" class="st0" d="M763.8,997.3c0-0.9,0-1.8,0-2.7c1.2,0.3,3.2-0.9,3.2,1.1C767.1,997.2,765.2,997.3,763.8,997.3z"
		/>
	<path id="Path_161" class="st0" d="M801.9,978.1l1.2,1.7c-0.5,0.3-1.1,1-1.4,0.9c-0.5-0.2-0.9-0.9-1.3-1.3L801.9,978.1z"/>
</g>
<g>
	<path id="Path_114" class="st0" d="M679.8,32.6c2.3-5.8,5.2,0.2,8.6-1.5C685.1,36,682.3,32.2,679.8,32.6L679.8,32.6z"/>
	<path id="Path_151" class="st0" d="M665.6,38c1.2,1.4,2.2,3.3,1,4.1c-1.3,0.9-2.4-0.6-2.1-2.3C664.7,39.2,665.1,38.5,665.6,38z"/>
	<g>
		<path id="Path_1" class="st0" d="M718.2,338c6.5-5,11.8-12.1,21.2-11.8c1.6,0,3.9,0.9,4.5-1.3c0.6-2.2-1.9-2.2-3.1-3.2
			c-3.9-3.3-7.5-4.5-13-2.8c-5.9,1.8-8.8-3.6-11.1-8.3c-0.7-1.4-0.1-3.8-2.3-4c-1.7-0.2-1.9,1.9-2.9,3c-1.6,1.7-2.1,4.6-5.1,4.8
			c-2.5-4,0.3-7,2-10.1c10.6-18.6,18.7-38.1,25.5-58.5c3.2-9.5-1.7-16.8-8.9-21.6c-1.2-0.8-2.7-1.2-4-1.9
			c-6.3-3.6-13.5-6.7-9.4-16.4c0.4-0.8,0.4-2.4-0.1-2.8c-6.2-4.9-7.5-13.7-14.6-17.6c-1.9-1-3.7-2.2-3.5-4.3
			c0.7-7.8-4.4-14.9-1.9-23.1c1.1-3.4-1.7-7.1-4.3-9.7c-5.4-5.5-8.9-12.3-13.7-18.3c-3.9-4.8-1.9-10.9-0.8-16.4
			c0.8-4,4.7-8.5,2.2-11.8c-3.2-4.1-7.2-7.4-11.9-9.6c-12.1-6-15.5-16.3-10-28.9c2.9-6.7,4.4-14.1,10.4-19c1.9,0.5,5.3,2.6,5.3-0.4
			c0.2-7.6,7.7-7.3,10.8-11.4l0-0.1c-0.2,5.6,1.4,8.6,8,8.1c6.4-0.5,8.5,1.9,10.7,9c0.6-0.4,1.6-0.6,1.6-1c0.9-6.6,4.1-8.3,11.1-9.2
			c11.2-1.5,21.2,0.4,31.8,3.4c9.1,2.6,17.2,9,26.6,9.3c8,0.2,15.1,3.5,22.7,4.9c5.3,1,9.4,8.3,13.1,13.7c5.8,8.4,1.6,16.3-1.9,23.3
			c-4.5,9-10.1,20-21.4,19.7c-13.1-0.4-25.7,6.7-39.4,0.8c-4.6-2-12.3-3.7-18.9-1.1c-2.2,0.9-5.3,0.8-6.5-1.9
			c-3.7-8.9-9.1-4-14.5-2.8c7,9,18.1,11,24.8,19c1.9,2.2,5.2,2.2,8.3,2.3c9.5,0.2,13.3,3.9,12.3,13.1c-0.7,6.3,1.1,10.6,5,15.3
			c3.8,4.7,6.4,10.4,9.4,15.7c2.2,3.7,4.9,5.5,9,2.9c3-1.9,5.1-0.8,7.9,1.1c5.8,4,12.5,5.3,19.5,4.9c5.3-0.3,7.5-5.3,8.2-8.2
			c0.7-3.1-2.5-7.5-4.8-10.7c-1.7-2.3-4.5-1.9-7.2,0c-4.1,2.8-7-0.6-9.5-3.1c-2.4-2.4-6.3-3-4.7-9.4c1.8-6.9,3.6-6.6,8.1-3.9
			c3,1.8,7.6,0.6,9.4,4.9c0.1,0.2,0.5,0.5,0.6,0.4c6.7-3.5,14.5-0.5,20.7-3c3.4-1.4,7.7-1.2,10.6-4c-2.5-8.2-9-13.1-15.6-17.6
			c-4.2-2.8-3.8-6.2-2.7-10.3c3-11.5,10.7-20.8,14.7-31.9c1.3-3.6,7.9-4,12.2-4.2c3.9-0.1,3.2,4.1,3.3,6.3
			c13.5-0.4,9.4-7.5,6.3-14.6c-2.1-4.8-1.2-10.5-5.2-14.9c-2.3-2.5-4.1-4.5-7.8-4.3c-3.7,0.2-5.1-2.1-5.1-5.6c0-2.2-0.3-4.4-0.9-6.5
			c-2.9-10.4-3.8-22.4-19.3-23.3c8.9-0.2,13.8-9,22.5-7.9c4.6,0.5,15,5.6,16.9,9.7c1.6,3.3-0.8,5.1-2.7,5.8
			c-7.6,3.2-4.5,11-7.4,16.2c-1.2,2.1,1.8,3.1,3.9,2.8c4.4-0.5,7.5,1,9.6,5.1c1.9,3.7,4.6,4.2,8.6,2.3c14-6.6,16.7-12.8,10.4-26.8
			c-1.1-2.4-2.5-4.8-0.4-6.6c6.2-5.3,5.5-14,10.5-19.8c49.4,0,98.8,0.1,148.1-0.1c5.3,0,6.9,0.8,6.9,6.6
			c-0.2,233.9-0.2,467.7-0.2,701.6c-2.1,2-4.6,3.2-7.3,2.2c-11.2-4.2-23.5-3.5-34.7-7.8c-4.4-1.7-4.9-3.3-2.1-6.6
			c1-1,2.2-1.9,3.6-2.6c2.7-1.2,4.9-3.3,7.3-4.9c2.1-1.4,2.6-3.1,2-5.6c-2.2-9.5,5.3-15.8,7.2-24.5c-2.1-1.3-5.8-1.1-9.3-2
			c-2.8-0.7-5.1-2.1-5.6-5.1c-0.5-2.8,1.9-3.8,3.8-4.8c7.8-4.1,10-13.1,16.2-18.5c1.3-1,1.5-2.8,0.5-4.1c-0.1-0.2-0.3-0.4-0.5-0.5
			c-1.8-1.7-3.7-1-5.2,0.5c-3.7,3.9-8.1,5.4-13.3,3.5c-2.7-2-3.5-5.7-1.8-8.7c3.6-6.6,5.8-14.2,15.1-16.4c7.5-1.7,9.2-9,4.9-15.9
			c-1.3-2.4-3.2-4.4-5.5-5.8c-2.1-1.1-3.5-3.2-2.7-5.5c1-3,1.8-5.3-1.8-7.2c-1.4-0.7-0.2-2.7,0.5-4c2.6-4.3,2.1-8.4-0.6-12.4
			c-8.7,1.6-16.8-3.9-25.9-1c-5.7,1.8-12.1,0.6-18.1,3.9c-2.7,1.5-7.4-1.3-10-4.7c-2.5-3.3-5.3-3.7-8.6-0.4
			c-5.5,5.6-11.9,7.1-20.2,7.8c-9.4,0.8-14.6,0.5-17.7-9.3c-1.6-5.1-6.7-6.2-12.3-3.8c-9.6,4.1-15.6-0.6-14.8-11.3
			c0.1-0.9,0.8-1.8,0.4-2.8c-3.4-7.7-15.6-12.5-23.4-9c-4,1.8-7.4,4.8-12.1,5.1c-2.2,0.2-2.2,2.3-2.5,4c-0.4,2.4-0.9,4.9-3.5,6.1
			c-8-0.1-10.1-6.8-13-12.2c-1.8-3.4-2.4-7.4-6.2-9.6c-2-1.2-2.9-3.7-2-5.8c1-2.5,3.4-2.7,5.6-2.4c6.8,1.1,10.1-3.7,12.5-8.4
			c2.7-5.4-2.9-7.7-6.2-8.8c-5.9-1.9-10.7-5.6-16-8c-8.6-3.9-12.5-11.4-17.5-18c-3-4-3.3-10-5.6-14.9c-3.6-7.8-9.1-10.5-17-6.6
			c-4.7,2.3-8.7,5-12.4-1.4c-1.2-2.1-3.5-0.8-5.4-0.5c-8.8,1.2-12.9-0.9-17.1-8.7c-2-3.7-4-7.3-7.4-9.9c-0.4-0.3-0.9-0.6-1-1
			c-2.1-7.4-4.4-14.7-10.4-20.1c-0.6-0.8-0.6-1.9-0.1-2.8c3-5.1,0.2-8.5-2.8-12.5c-3.2-4.3-1.1-10.7-4.7-15.1
			c-0.6-6.6-1.1-13.2,4.2-18.4c2.8-2.9,0.5-5.9,0-8.8C715.1,340.2,716.6,339.1,718.2,338z"/>
		<path id="Path_162" class="st0" d="M742,270.2c10.7,4.7,22.3,7.7,30.6,17.2c5.7,6.5,1,13,1,19.5c0,1.8-2.8,3.4-5.3,2.1
			c-4.9-2.5-6.2,0-5.9,4.3c0.2,3-0.5,5-3.8,6c-3.4,1.1-4-1.2-5.6-3c-7.6-8.4-12.5-19.4-22.5-25.7c-6-3.8-1.2-8.3,0-11.1
			C732.3,275.3,733.4,267.7,742,270.2z"/>
		<path id="Path_163" class="st0" d="M773.5,233.5l9.4,11.3c0.8-3.9,0-5.7-1.1-7.5c-0.8-1.2-2.1-2.6-0.2-3.7
			c1.4-0.8,2.7,0.2,3.7,1.5s0.4,4.7,3.6,3c1.6-0.7,2.7-2.3,2.8-4.1c0-2.3-1.8-3.3-3.7-4.1c-2.5-1-5.1-1.5-7.7-1.7
			c-3.2-0.4-6.6-3.1-5.6-6.4c1.3-4.1,4.3-0.4,6.6,0.2c2.4,0.5,4.7,1.2,7,2c5.1,1.9,9,3.9,10,10.8c1,6.3,7.4,10.5,12.5,14.5
			c8,6.3,8.8,14.4,1.8,21.5c-2.6,2.6-5.3,3.5-6.6-0.9c-2.1-6.9-6.9-9.8-13.3-11.8c-4.1-1.3-9.7-1.3-9.1-8.9c0.2-2.6-4.8-5.6-7.3-8.6
			C774.9,238.8,772,237.7,773.5,233.5z"/>
		<path id="Path_165" class="st0" d="M856.2,321.2c0.9,0.2,1.8,0.4,2.8,0.5c2.1,0.1,5,3.2,6.2-0.4c0.9-2.9-2-5-4.3-6
			c-2.1-0.9-6.1,1.5-5-3.9c0.3-1.5-1-3.6,1.5-4.1c2.9-0.7,4.5,2.3,6,2.9c5.8,2.2,9.7,7.4,15.8,8.7c3,0.6,6.4,2,4.7,5.6
			c-1.5,3.1,2.4,10.1-6.9,8.6C868.3,331.6,861.6,328.1,856.2,321.2z"/>
		<path id="Path_167" class="st0" d="M843.3,286.4c-3.5-0.1-5.9-1.2-5.6-4.7c0.4-4,3-5.8,7-5.7c3.5,0.1,6.2,2.9,6.2,6.4
			c0,0.1,0,0.3,0,0.4C850.6,287.1,845.8,285.7,843.3,286.4z"/>
	</g>
</g>
<g id="Romenie">
	<path id="Path_170" class="st0" d="M762.3,807.1c-4.2-0.1-8.3-0.2-12.1,2.3c-1.3,0.9-2.8,1.6-4.8,0.8c-7.5-3.2-15.3-1.4-23.4-0.8
		c3.8-5.4-0.5-7.1-3.9-9.8c-2.2-1.7-9.4-2.6-2.6-7.8c1.2-0.9,0.5-2.4-0.7-3c-2.4-1.4-5.3-1.4-7.7,0c-2.2,1.2-2.2,7-6.1,4.2
		c-4.8-3.4-13.7-2.1-14.1-10.1c-0.4-7.1-5.6-7.5-9.8-9.5c-2.3-1.1-5.2-1.6-5.6-4.1c-1-6.4-5.3-10.1-10.7-14.3
		c17.4-5.4,19.1-20.7,23.4-34.2c1.8-5.6,1.6-11.6,5.9-16.7c4.7-5.6,11.7-8.1,16.4-13.6c1.2-1.5,5.4,0.5,8.4,0.4
		c8.1-0.1,16.8-4.4,24.6,1.2c2.1,1.5,4.8,2.3,5.7,0c2.8-7,10-7,15-10.5c2.8-2,5.3-3.6,7-7c2.2-4.6,6.2-6.6,10.5-1.8
		c3.7,4.1,8.6,7.2,10.6,12.9c1,2.7,3.7,5.3,6.3,6.9c11,6.5,17.8,15,18.3,28.6c0.3,7.3,2.7,14.8,6.3,21.5c3.3,6,14.1,6.9,19.4,0.5
		c3.2-3.8,5.8-3.5,9.4-2.3c5.5,6.6,4,13-3.5,15.2c-3.4,1-2.9-3.6-6.5-3.8c3.9,11.9-1.9,23.8,1.2,35.8c-3.1,2.7-6.2,1.8-9.5,0.4
		c-12.8-5.5-36.8-3.2-43.6,10.5c-3.5,7.1-9.6,8.2-16.5,8.1C767,806.8,764.6,805.4,762.3,807.1z"/>
</g>
<g id="Bulgary">
	<path id="Path_171" class="st0" d="M839,840.9c-2.8,2-5.4,4.6-8.9,1c-1.5-1.4-3.8-1.7-5.6-0.7c-7.5,4.6-14.9,9.4-20.3,16.6
		c-0.6,0.8-0.8,1.8-0.5,2.8c2,5.4,0.5,9.2-5.1,10.6c-4.3,1.1-7.8,4.5-13.3,2.9c-4.5-1.4-9.3-1.2-13.9-3.2c-4-1.8-8.7-0.7-12.5,2.3
		c-4.5,3.6-9.7,5.6-15.1,7.4c-4.5,1.5-7.8,1.3-6.7-4.8c1.1-6.3-1.7-10.3-7.3-12.6c-4.8-2.1-10.7-3.5-7.6-11.1
		c0.7-1.6-0.4-3.2-1.4-4.7c-1.8-2.9-1.3-4.4,1.6-7.1c2.5-2.2,10.2-5.4,3-11.2c-3.6-2-6.6-4.7-10-6.9c-4.9-3.1-5.7-7.7-3.2-13.7
		c1.2-0.3,2.3-0.7,2.7-2.1c0.5-1.7,0.1-4.4,3.4-3c2.6,1.1,1.3,2.4,0.5,4c-1.4,2.9,0.2,4.4,2.9,4c8.6-1.2,16.6-1.9,25.4,1.5
		c3.5,1.3,10.8-3.3,16.7-4.2c1-0.1,1.9-0.2,2.9-0.3c1.2-2.7,4.1-2.1,5.8-1.9c7.2,0.7,10.4-4.1,13.6-9.1c5.9-9,14.7-11.4,24.8-12.3
		c9.8-0.8,18.7,2.9,28,4.1c2.9,2.2,2.6,5.7,3.6,8.6c0.4,1.3,0.6,2.9-1,2.7c-3.8-0.5-6.8,1-7.7,4.1c-1.2,4.3-2.7,9.1-1.5,13.6
		c1.3,4.7,1,7.9-3.6,10.4c-2.1,1.2-5.2,3.9,0.8,4.8C833.9,834.3,836.6,837.5,839,840.9z"/>
</g>
<g id="Italy">
	<g>
		<path id="Path_12" class="st0" d="M514.4,777.5c-5.9,2.9-10.7,7.8-17.9,8.7c-3.8,0.5-3,5.1-2.1,8.1c1.6,5.1,2.3,10,1.2,15.5
			c-1.5,6.6,0.7,13.5,5.7,18c0.6,1.4,0.8,3.2,3,2.9c8,6.1,18.7,8.7,23.3,19.2c1.9,4.3,2.9,8.8,4.4,13.1c4.9,13.8,22.9,26,37.6,25.4
			c1.4-0.1,2.9,0.9,4.3,0.7c3.1-0.5,6.9-2.4,8.9,0.7c2.3,3.5-2.8,4.3-3.9,6.6c-2.2,4.4,0.3,7.3,4.6,7.9
			c18.8,2.5,34.4,12.4,50.3,21.4c4.4,2.5,10.1,6.7,7.6,14.1c-0.4,1.3,0.5,3.2-1.3,3.8c-1.7,0.5-3.6-0.2-4.5-1.8
			c-3.4-8.1-10.2-10.1-18.1-12.6c-8.8-2.8-11.4-3.2-15.4,5c-2.6,5.3-2.3,11.2-4.6,16.5c-1.4,3.3,1.8,3.5,4.4,4
			c9,1.8,11.4,4.7,11.6,12.4c0.1,3.8-0.5,6-4.9,7.3c-3.8,1.2-7.6,4.5-6.9,9.4c1.4,9.3-8,13-10.2,20.4c-0.3,0.9-3.5,2.3-5.2,0.4
			c-1.4-1.6-3.1-3.4-1.4-5.9c1.3-1.8,3.8-3.2,3.2-5.5c-2-6.6,0.4-10.6,6.6-13c0.8-0.3,1.2-1.3,1.9-2c-4.6-4-3-10.8-6.3-15
			c-3.5-4.3-6.3-8.8-7.6-14c-0.9-3.8-3.1-6.1-6.4-5.8c-7.7,0.7-11.3-3-13.5-9.8c-1.6-4.9-3.9-9.9-10.8-6.5c-0.7,0.2-1.4,0.3-2.1,0.3
			c-0.4-6.2-9.3-4-10.1-10.4c-0.6-4.4-4.2-6.1-8.7-6c-13.9,0.1-25.2-4.6-31.5-18c-9.7-1.7-11.5-16.2-23.3-14.5
			c-0.7,0-1.3-0.3-1.8-0.7c1-9.2-7.1-11.8-12.1-16.6c-0.9-0.9-1-2.3-0.3-3.4c1.5-3,0-5.1-2-7.1c-2.4-2.2-3.7-5.3-3.8-8.6
			c0.2-8.2-4.2-12-11.3-13.8c-4.9-1.3-8.1-5.7-13.4-6.5c-11.7-1.9-15.4-0.5-21.8,9.7c-3.7,5.9-8.8,6.9-13.2,2.5
			c2.7-3.7,3.6-6.3-2.8-6.9c-7.8-0.7-11.4-6.4-8.9-13.9c1.2-3.4,1.4-6-1.4-8.6c-3.1-2.9-3.8-5,1.2-7.4c4.6-2.2,6.9-5.7,3.3-11.8
			c-5.4-9.1-4.3-10.2,6.9-11c7.2,0.3,13.6-0.7,16.6-8.8c1.4-3.8,4.4-3.6,6.5-0.1c2.3,3.8,6.5,5.9,7.9,11.2c3.3-3.9,4.4-7.7,6.3-11
			c1.9-3.1,3.6-5.8,8-2.9c2.6,1.7,6.3,0,9.2,1.2c1.4-2.9,0-7.5,5.8-7.5c2.1,0,0.4-3.4,1.2-5.1c0.7-1.7,2.2-3.2,3.8-2.9
			c9.3,1.7,16.4-5.1,24.9-6.3c2.4-0.3,5.4-1.8,6.6,0.9c4.7,10.7,14.2,10,23.2,10.5c2.2,0.1,4.4,0,6.4,1.2
			c-0.8,6.5-1.6,12.9,1.1,19.3c0.6,1.5-0.6,2.7-2.4,2.9C518.2,777,516.2,776.2,514.4,777.5z"/>
		<path id="Path_27" class="st0" d="M577.6,999.4c0.1,4.5-1.9,7.7-4.2,10.4c-5.4,6.4-4.5,13.4,0.2,18.7c5.7,6.5-2.5,9.6-1.9,14.4
			c-3.8,0.3-9.4,1.6-11-1c-5.8-9.9-17.1-8-25.2-13c-6.5-4-13.9-6.5-20.9-9.7c-3.3-1.5-6.1-3.8-4.8-7.9c1.2-3.6,4.6-3.6,7.9-4.7
			c12.2-3.9,24.1,5.5,36.3-0.3C561.3,1003.1,569.4,1001.8,577.6,999.4z"/>
		<path id="Path_28" class="st0" d="M414.4,970.1c-0.2-5.1,1.7-8.6,2-11.8c0.9-8.9-0.2-18-5-26c-0.9-1.5-3.6-2.1-2.6-4.6
			c0.9-2.2,2.8-2.4,4.9-2.4c4.9-0.1,8.7-2.3,12.3-5.6c5.8-5.4,10.3-3.7,13.3,3.7c6.3,15.5,0.2,30.8,0,46.1c0,2.6-1.1,4.1-4.2,3.3
			c-4.7-1.2-8.2-0.1-9.2,5.4c-0.6,2.5-2.9,4.3-5.5,4c-3.8-0.5-4-4.9-5.8-7.6C413.6,973.1,414.4,970.6,414.4,970.1z"/>
		<path id="Path_41" class="st0" d="M438.6,862.7c1.1,6.6,1.2,13.3,0.1,19.8c-1.1,6.7-3.5,13.2-5.4,19.7c-0.5,1.5-0.7,4.1-2.5,3.9
			c-2-0.2-5.3-1.7-5.4-2.9c-0.6-6.7-4.8-12.4-4.8-19.3c0-5.6,1.1-9.1,6.9-10.7c4.4-1.2,8.6-3.3,8.5-9.1
			C436,863.4,436.7,862.4,438.6,862.7z"/>
		<path id="Path_97" class="st0" d="M451.3,868c4.3-2,6.7-3.4,9.3-1.4c0.5,0.3,0.4,2.4,0.3,2.5C458.2,869.8,455.7,869,451.3,868z"/>
		<path id="Path_115" class="st0" d="M563.2,1072.3c-3.4-0.4-5.4-0.9-5.6-3.6c0-0.4,0.8-1.4,1.2-1.4
			C561.3,1067.6,562.2,1069.4,563.2,1072.3z"/>
	</g>
	<path id="Path_125" class="st0" d="M504.2,830.7c-0.8,1.4-1.8,3.4-3.6,2.1c-2-1.5,0.1-3.3,0.5-5
		C502.6,828.2,503.7,829.3,504.2,830.7z"/>
	<path id="Path_183" class="st0" d="M505.1,897c-1.3-2.3-1.9-2.9-1.8-3.4c0-0.9,0.7-1.6,1.6-1.6c0.1,0,0.2,0,0.3,0
		c0.6,0.3,1.1,0.8,1.2,1.5C506,894.8,505.6,895.9,505.1,897z"/>
</g>
<g id="white-russia">
	<path id="Path_184" class="st0" d="M725.5,469.3c0.3-0.6,1-1.6,0.8-1.7c-6.1-5.7-5-11,3.3-14.5c4-1.6,7.5-2.1,8.6-8
		c0.7-3.9,7-5.2,11.2-3.8c2.5,0.8,4.1,0.8,6-0.3c3-1.8,4.5-1.2,6,2.3c1.8,4.1,4.1,5.8,8.7,1.6c8.4-7.8,14.5-5.4,19.1,4.8
		c3.8,8.3,6.4,17.1,12.2,24.5c2.5,3.1,5.8,4.6,8.9,6.2c3,1.6,6.5,1.6,6.8,6.2c0.2,2.3,2.6,2.2,4.2,1.5c1.8-0.8,3.9-0.7,5.6,0.3
		c3.6,2,9.1,4.1,8,8.1c-1.2,4.7-4.4,10-11.4,9.7c-2.7-0.1-6.8-1.4-7.5,2.5c-0.6,3.3,0.7,7,4.7,8.2c4.8,1.6,2.2,6.8,4.7,9.2
		c7.1,7.1,2.8,10.3-3.8,13.9c-6.1,3.4-6.3,9.9-5.5,16.1c0.2,2.1,1.1,4.1,2.1,7.4c-4.6-3.7-8.1-4.1-12.8-2.1c-3.7,1.5-8.4,6.7-13,0.8
		c-0.2-0.1-0.5-0.1-0.7,0c-4.5,6.3-12,1.9-17.3,4.8c-4.9,2.7-9.5,2.7-14.8,1.5c-15.4-3.3-30.9-2-46.1,1.8c-4.7,1.2-8.6,3.4-10,8.6
		c-0.8,3-3.8,4.9-6.9,4.3c-2.9-0.4-4.2-3.8-3.4-6.4c1.4-4.6-0.8-6.5-4.6-7.4c-5.1-1.3-5.4-4.8-2.1-7.3c12.4-9.2,5.2-19.2,1.2-28.6
		c-1.8-4.4-3.2-9.1-7.4-13.2c7.3-1.6,13.5-1.5,19-5.1c3.8-2.5,2.8-8.1,7.6-9.4c1.1-0.3,2.2-2.9,3.3-0.7c1.8,3.6,4.1,2.3,5.9,0.8
		c2.8-2.3-0.1-4.3-1.1-6.3c-0.5-0.8-1.1-1.6-1.7-2.4c-3.6-8,0.2-14.6,3.8-21.3C720.3,474,724.1,473,725.5,469.3L725.5,469.3z"/>
</g>
<g id="Hungary">
	<path id="Path_185" class="st0" d="M582.4,752.5c-4.3-4.6-7.8-8.9-3.6-16c2-3.5,2.4-8.6,2.6-12.6c0.4-6.5,9.2-7.6,7.8-14.7
		c-0.2-1.2,3.3-0.8,4,0.7c2.5,5.4,7.3,4.3,11.5,4.1c4.1-0.2,8.2-1,12.3-1.5c2.4-0.3,4.9-2,5.1-3.8c1.2-11.4,11.3-10.3,18.1-11.8
		c5.8-1.3,9.2-3.3,11.7-8.2c3.1-6,15.6-8.7,21.1-4.4c1.5,1.1,2.9,2.3,4.6,1.7c7.6-2.9,12.7,3.2,18.9,5.1c3.2,1,1.3,3.5-0.3,4.3
		c-13.8,6.4-13.2,20.4-16.2,32c-4.2,16.7-13.1,25-30.1,25.1c-3.4-0.2-6.7,0.9-9.5,2.9c-6.8,5.1-14,9.6-21.2,14
		c-1.5,0.9-3.8,0.5-5.7,0.8c-8.6-0.2-15.7-3.1-20.7-10.4C590.3,756.1,586.6,753.5,582.4,752.5z"/>
</g>
<g id="Austria">
	<path id="Path_186" class="st0" d="M523.5,753.9c-5.2-3.1-11-1.1-16.3-1.2c-6.5-0.1-10.1-2.7-12.2-8.2c-1.7-4.5-3.9-6.3-8.8-3.7
		c-5.7,3-12.6,3-18,7.2c-1.2,0.9-5.9-0.5-7.1-2.2c-4.2-6.2-6.8-1.2-9.9,0.7c-5.2-2.5-8.1-6.4-8.5-12.4c-0.1-2,0.1-3.3,2-4.2
		c1.8-0.8,2.6,0.4,3.5,1.7c3.8,5.6,7,6.7,10.6-0.5c1.9-3.9,6.1-1,8.2,0.1c3.9,2.3,8.8,2.1,12.5-0.5c4.6-3,10.1-3,14.9-5.7
		c2.9-1.7,7.8-2.1,10.2,2.7c0.7,1.6,2.4,2.6,4.2,2.5c4.1-6.1,0.9-11.6-2.2-16.3c-2.3-3.4-1.6-4.5,1.3-6c4.4-2.3,8.5-4.8,9.8-10.1
		c4.3,0.1,6.8-5.3,13-2c5.7,3,12.1-2.5,14.8-8.8c1.9-4.5,4.9-4.6,8.2-3.3c6.9,2.6,13.2,6.5,21.3,3.1c2.1-0.9,7.5,0,5.2,5.8
		c-1.2,2.9,0.8,5.3,2.1,7.5c1.7,2.9,2.8,6.2,3.3,9.5c0.7,4.1,0.9,7.2-4.8,5.1c-3.6-1.3-4.8,1-3.8,3.8c3.4,10.1-0.7,18.4-7,25.2
		c-2.7,2.9-8.4,3.1-12.8,4.4c-3.8,1.1-7.8,1.8-10.1,5.3c-3.4,5.2-8,4.8-12.7,2.7C530.8,754.6,527.1,753.8,523.5,753.9z"/>
</g>
<g id="Chech">
	<path id="Path_187" class="st0" d="M542,625c6.3,6.4,14.3,7.4,23,8.6c-1.7,3.2-3,6.8,1.7,8.6c3.2,1.2,3.8,8,9.3,4.3
		c2.3-1.5,6.5-1.7,3.4-6.4c9.3,2.5,16.2,9.4,25.9,9.6c3.9,0.1,5.5,5.1,7.6,8.3c0.9,1.3-0.5,2.4-2.1,3c-4.7,1.8-6.7,5.5-8.1,10.3
		c-1.3,4.6-4.1,8.8-10.1,9.1c-2.7,0.1-5.3,0.9-7.6,2.4c-3,2.1-5.6,3.7-9,1.1c-0.8-0.5-1.9-0.6-2.8-0.2c-6.8,5.4-12.2-0.9-18.2-2.1
		c-4.8-1-9.2-5.6-11.9,3.7c-2.6,8.8-9.8,9.4-17.7,4.4c-9.4-5.9-17.3-13.5-25.3-21c-2.6-2.5-5.3-5.7-4.4-8.8c1.7-5.6-0.2-8.2-6.3-10
		c12.6-4.7,21.3-14.2,33.3-17.5c1.9-0.6,3.6-1.7,4.8-3.2c2-2.6,2.9-3.5,5.9-0.6C537.8,632.7,539.5,626.9,542,625z"/>
</g>
<g id="servie">
	<path id="Path_188" class="st0" d="M673.9,847c-3.4,3.1-6.5,3.3-10.2,0.1c-4-3.5-8.7-6.2-12.9-9.5c-1.8-1.4-4.4-3.1,0.3-4.7
		c2.5-0.9,2-3.4,1.3-5.7c-0.7-2.6-2-4.7,0.1-8c2.5-4-2.8-4.5-5.1-6.3c-3.8-2.8-7.2-5.1-3.5-11c1.4-2.3,5.2-8.8-2.9-10.6
		c-1.7-0.4-0.8-3.2,0.8-4.1c9.1-4.9,0.7-4.9-1.8-6.6c-4.6-3.4-7.3-8.8-7.2-14.5c0.4-5.6,7.6-9.2,13.4-10.6
		c10.2-2.3,18.2,2.6,21.9,12.7c1.3,3.4,2.8,6.1,6.7,6.9c6.3,1.3,9.3,6.3,10.6,11.8c1,4.4,3,5.7,7,5.5c1.2-0.1,2.7,0,3.5,0.7
		c6.3,5.5,10.8,3.3,14.7-3.7c-0.9,4.2-2,7.6,2.2,10.7c2,1.4-0.1,4.9-1.8,7c-0.7,7.6,0.6,14.3,8.8,17.4c2.8,1.1,3.6,3.6,4.4,6.1
		c1.8,3.6-0.9,5.9-3.1,7.2c-3.2,1.9-4.4,3.3-3.2,7.4c2.6,9.1,1.1,11-8.4,13.3c-1.4,0.3-2.9,0.4-4.3,0.5c2.4-5.6,1.7-9.3-4.7-11.3
		c-5.7-1.8-8.8-7.8-14.5-10.4c-5.9-2.7-8.3-1.7-9.6,4.4C675.9,843.7,674.7,845.3,673.9,847z"/>
</g>
<g id="slowaky">
	<path id="Path_189" class="st0" d="M619.2,661.8c1.4,0.6,3,1,4.1-0.3c5.7-7.3,8.1-1.2,10.5,2.8c3,4.8,5.6,4.8,9.7,0.4
		c2.5-2.7,5.3-6.2,10-4.3c1.6,0.7,3.5,0.4,4.8-0.7c6.5-5,13.7-3,20.4-1c4.8,1.4,8.5,4.4,5.7,11c-1.4,3.2-3.7,6.1-3.5,10.2
		c0.1,2.9-2.7,3.9-5.5,2.4c-6.5-3.7-13.2-2.3-19.8-0.6c-1.2,0.3-3,0.6-3.3,1.4c-4.6,13.4-17.7,11.3-27.4,15.2
		c-1.7,0.7-3.5,1.9-3.6,3.5c-0.3,8.1-6.7,8.2-12,9c-5.2,0.7-10.7,2.6-15.3-3.1c-2.9-3.5-8.3-4.4-10.3-9.7
		c-2.9-7.8,0.4-14.7,8.6-14.6c7.8,0.1,10-5.1,12.1-10.4C607.6,665.1,611.8,661.5,619.2,661.8z"/>
</g>
<g id="Moldavie">
	<path id="Path_190" class="st0" d="M775.1,666.5c12.4-10.2,24.4-1.7,36.4-0.1c1.9,0.3,3.8,1.8,5.6,1.6c5.1-0.6,5.7,2.3,5.7,6.1
		c-0.2,8.9,4.4,14.5,12.1,18.2c1.8,0.8,3.2,2.3,5,3c3.2,1.3,4.8,4.1,4.3,6.9c-0.5,3.1-3.9,2.9-6.6,3.1c-10.8,0.6-10.6,0.6-9.1,12
		c0.9,7.2-3.9,13-6.5,19.1c-1.1,2.6-3.6-1.2-4-2.9c-1.7-6.3-3-12.8-3.8-19.3c-1.2-10.3-6.7-17.5-15.4-22.3c-3.6-2-6.9-4.5-8.4-7.9
		C787.1,676.5,780.9,672,775.1,666.5z"/>
</g>
<g id="slovenie">
	<path id="Path_58" class="st0" d="M523.4,788l13.2-1.5c2.2,2.9,0.4,5.1-1.3,7.4c-1.5,3.3-2.2,9.1-5.6,8.8c-3.2-0.3-4.1-6-5.2-9.7
		C524,791.3,523.7,789.6,523.4,788z"/>
	<path id="Path_191" class="st0" d="M574,744.4c2.8,4.4,2.3,7.4-1.9,10.7c-4.5,3.5-9.7,7-9.1,14.1c0.2,2-2.1,2.5-3.2,3.7
		c-1.2,1.2-3.3,2.6-3.2,3.8c0.9,12.9-7,5.4-10.8,4.2c-2.9-1-3.8-0.8-5.9,1.1c-5.4,5-9,3-12.5-2.6c-3-4.8-4-9.3-4.6-14.6
		c-0.7-5.4,1.8-8.7,7.2-7.5c2.4,0.5,4.6,1.8,7,2.2s6.1,1.1,7.1-0.1c7.1-8.6,17.8-9.3,27.2-12.7C572.2,746.3,573,745.2,574,744.4z"/>
</g>
<g id="Belgium">
	<path id="Path_23" class="st0" d="M316.9,625.6c-0.7-2.5-5.6-5.2-2.6-7c3.6-2.1,7.3-8,12.9-3.4c2.3,1.8,5.1,0.4,7.3,1.7
		c2.3-0.7,4.9-0.9,6.7-2.8c5.1-5.4,10.5-4,16-0.8c2.1,1.2,4,2.8,6.5,3.2c5.2,0.9,6.9,4.4,6.1,9.2c-0.7,3.7,0,5.6,3.7,7.4
		c6.7,3.3,7.2,12.8,1.3,17.1c-1.8,1.3-3.9,2.2-4.8,4.4c-1.3,2.4-1.7,4.8-0.2,7.2c0.5,0.9,0.6,2,0.1,2.9c-3.1,3.5-5.8,3.2-9.4,0.2
		c-3.8-3.2-8.7-5.2-10.2-10.7c-0.6-2.3-1.9-1.9-3.9-1.1c-6.1,2.5-7,1.9-7.6-4.7c-0.3-3.4-0.7-6.4-5-6.7c-2.8-0.2-3.8-2.8-5.7-4.3
		C324.2,633.8,320.4,629.8,316.9,625.6z"/>
	<path id="Path_98" class="st0" d="M340.4,608.8c-4,0.7-6.8,1.5-9.1-0.9c-0.9-0.9,0-1.9,0.9-2.3C335.7,604,337.1,607.2,340.4,608.8z
		"/>
	<path id="Path_118" class="st0" d="M341.9,610.9c-0.9,4.1-4.1,4.3-7.4,4.4c-0.5-1.3-1.3-2.9,1.2-3
		C337.9,612.4,340,611.9,341.9,610.9z"/>
	<path id="Path_198" class="st0" d="M370,669.8c0-2-0.1-4-0.1-6c-0.5-0.5-0.9-0.9-1.4-1.4c-0.4-0.3-0.5-0.6-0.4-0.9
		c0.1-0.3,0.2-0.5,0.4-0.5c2.5-0.7,0.7-16.4,7.5-2.2c1,2,5.7,2,3.3,6C377.2,668.6,374.6,670.9,370,669.8z"/>
	<path id="Path_200" class="st0" d="M372.9,622.6c-1.2,2.8,2.4,8.8-1.6,8.2c-6-0.8,1.1-5,0.1-7.8c-0.6-1.6-0.9-3.2-1.4-4.9
		C372.9,618.4,373,620.5,372.9,622.6z"/>
</g>
<g id="Swiss">
	<path id="Path_201" class="st0" d="M455.6,752.5c-4.7,1.8-7,5.1-6.1,10.2c-3.8-2.4-9.2,0.4-12.4-4c-0.6-0.9-3.1-0.2-3.4,1.6
		c-0.6,5.2-5.3,8.2-6.6,13c-3.3-4.1-7.7-6.9-9.8-12c-1.2-2.9-5.3-1.3-5.8,1c-2.2,10.1-10.2,10.9-18,12.3c-3.9-2-7.9-3.9-8.8-8.9
		c-0.6-3.6-3.2-2.5-5.6-2.4c-2.6,0.1-6.1,2.7-7.6-1.9c-0.8-6.7,5.3-9.9,7.8-15c2.7-5.3,8-9.2,10.2-15.1c0.4-0.6,0.9-1.1,1.5-1.4
		c5.4,4.9,8.6-2,12.9-2.5c1,0,2,0,2.9,0c2,2.6,4,0.8,5.9-0.1c7.8-6.1,16-0.7,24-0.5c2.5,0,3.6,1.8,2.7,4.7
		c-3,10.3-2.9,10.4,7.5,15.3c0.9,0.4,1.8,0.8,2.7,1.3C450.9,750.5,457,746.4,455.6,752.5z"/>
</g>
<g id="Bosnie">
	<path id="Path_202" class="st0" d="M645.8,814.5c1.5,1.2,3,2.3,4.5,3.5c-0.6,1.9-6.1,0.6-3.7,3.3c7,7.8-1.2,8.4-4.6,11.6
		c-5.4,5-8.7,11.7-11.8,18c-1.2,2.4,3.1,7.6,2.2,12.2c-10.2-6.7-21.4-12.3-27-24.2c-1.4-2.9-4.2-4.6-7.1-6.2
		c-8.2-4.7-14.9-10.6-18-20.1c-1.2-3.2-3.4-6-6.3-7.9c-3.3-2.2-3.6-4.9-3.4-8.2c0.3-5.1,3.3-5.6,6.1-2.6c3.6,3.7,4.8,3.1,7.4-1
		c2.4-3.8,8.6-4.2,11.5-3.3c4.5,1.4,9.1,0.9,13.6,2.4s8.8-3.2,14-1.4c2.5,0.9,4.9,1.2,7.1,3.1c2.5,2.2,5,8,8.7,0.8
		c0.6-1.2,3.5-1.1,3.1,1.8c-0.2,1.9-0.4,4.1-1.4,5.6C636.2,808.8,639.5,812.2,645.8,814.5z"/>
</g>
<g id="North-marcedonie">
	<path id="Path_203" class="st0" d="M728.3,864.7c7.2,5.6,8.1,18.5,1.9,25c-1,1.1-2.5,1.6-4,1.4c-5.2-1.1-10.6,1.2-13.3,5.8
		c-3.5,5.8-10.8,2.5-14.1,7.4c-10.1-1.2-13.2-7.5-13.4-16.9c-0.1-4.4-3.1-7.9,1.1-12.8c2.5-2.9,2.5-6.2,7.5-4.3
		c3.3,1.3,3-3.3,5.1-4.2c4.5-1.8,8.3-4.7,13-6.3c6-2,9,1.1,12.8,4.1C725.6,864.7,727.1,864.5,728.3,864.7z"/>
</g>
<g id="kosovo">
	<path id="Path_204" class="st0" d="M673.9,866.1c-6.8-7.1-6.8-7.9,1.3-16.2c1.3-2.8,3.5-5.1,5-7.9c2.7-5,6.8-0.9,9.4,1.1
		c3.9,3,6.2,8,11.8,9.1c1.7,0.3,0.5,9.8-1.8,10.8c-3.1,1.4-8.3,2.6-9.3,3.6C684.1,873,679.2,866.8,673.9,866.1z"/>
</g>
<g id="croatie">
	<path id="Path_21" class="st0" d="M611.9,771.6c4.9,0.2,9.7,0.6,14-2.8c4.1-3.2,3.9,1.3,5.1,3.2c2.1,3.6,1.4,9.3,7.4,10
		c7.5,2.6,0.2,5.6,0,8.3c-0.2,2.8-2.8,5-6,2.9c-7.3-4.8-14.8-5.4-22.9-2.5c-2.9,0.9-6,0.7-8.6-0.7c-4.9-2.5-9.8-1.6-14.3,0.1
		c-4.1,1.5-7.6,5.2-12.4,1.6c-1-0.7-2.6,0.1-2.9,1.5c-0.5,3.3-3.3,7.5-0.5,9.8c6.5,5.4,9,13.3,14.1,19.5c3.1,3.8,6.5,7.3,11,9.5
		c7.4,3.7,10.3,11.7,15.8,17.2c0.9,0.9,1.3,2.6,0.1,3.2c-2.8,1.6-4.5-0.4-5.8-2.6c-5.4-9.7-14.2-13.2-24.5-11
		c-5.6,1.1-4.9-6.1-9.3-5.3c-3.9-1.2-7.8-2.4-10.4-5.8c-0.6-2.4-6.7-3.8-1.4-7.4c0.2-0.2,0.4-0.4,0.6-0.6c0.1-0.5,1.8-0.1,0.8-0.9
		c-1.4-1.1-3.1-1.8-4.4-3.1c-0.5-0.5-0.9-1-1.2-1.6c-1.9-3.4-5-6.1-5.8-10.1c-0.7-3.8-1.9-7.4-5.3-9.9c-1.4-2.9-5.6-3.8-5.5-7.8
		c4.5-4,9.2-0.7,13.8-0.4c4.9,0.3,8.1,0,6-6.1c-0.3-0.9-0.5-2.5-0.1-2.7c8.9-5.8,7.9-20.3,20.2-23.2c5.4-0.3,10.8,0.5,13.5,5.6
		C597.1,767.5,606.3,766.6,611.9,771.6z"/>
	<path id="Path_65" class="st0" d="M535.3,793.8c0.4-2.5,0.9-4.9,1.3-7.4l3-0.1c1.9,2.5,6.1,3.2,5.9,7.4c-0.2,0.2-0.4,0.5-0.5,0.7
		c-0.9,1.7,0.9,2.8,0.9,4.3c-0.1,0.3-0.3,0.6-0.4,0.9l-4.3,0c-3.1-0.7-3.3-3.8-4.5-5.9C536.2,793.8,535.7,793.8,535.3,793.8z"/>
	<path id="Path_74" class="st0" d="M536.7,793.8c1.5,2,3,4,4.5,5.9c-0.5,4.6,1.8,8.7,2.4,14c-2.6-1.2-4-2.6-4.1-5.2
		c-0.5-0.3-0.7-0.7-0.5-1c0.2-0.3,0.3-0.5,0.5-0.5C538.6,802.7,537.7,798.2,536.7,793.8z"/>
	<path id="Path_75" class="st0" d="M606,851.3c1.4,0.9,2.7,1.8,3.9,2.8c2.1,1.9-0.3,1.4-1,1.7l-13.9,1l-0.3-1.4L606,851.3z"/>
	<path id="Path_78" class="st0" d="M545.5,793.8c5.9,1.1,5.7,5.8,5.9,10.2c0.3,0.3,0.5,0.7,0.4,1.1c-0.1,0.4-0.1,0.6-0.2,0.6
		c-1.6,0.8-3-1.4-4.6-0.2c-2.6-1.4,0.3-4.3-1.6-5.8l0-0.1C547,797.7,543.8,795.7,545.5,793.8L545.5,793.8z"/>
	<path id="Path_81" class="st0" d="M583.9,841c3.3,0.8,8.7-2.7,8.9,4.4c-0.7,1-2.3,0.5-3,1.6c-3.3,1.5-2.9-4-5.9-3.1
		c-0.8-0.7-0.9-1.9-0.2-2.7C583.8,841.2,583.8,841.1,583.9,841z"/>
	<path id="Path_90" class="st0" d="M561.7,827.7c4.3,0.5,7.3,3.3,10.4,5.8l-4.5,1.5c-2.3-1.5-5.3-0.9-7.4-3l0,0
		C558.8,830.1,563.9,830.1,561.7,827.7L561.7,827.7z"/>
	<path id="Path_92" class="st0" d="M557.4,814.5c-2.9,0.1-3.7-5.1-7.4-3c-1.1-0.6-1.6-1.8-1.5-3c1-0.9,1.8-2,2.9-2.9
		c0-0.5,0-1,0-1.6C552.5,808,557.5,809.8,557.4,814.5z"/>
	<path id="Path_107" class="st0" d="M560.2,832.2c1.9,2.5,7.2-3.7,7.4,2.9C563.5,838.4,562.1,834.6,560.2,832.2z"/>
	<path id="Path_131" class="st0" d="M583.9,841c0,1,0,1.9,0,2.9c-2.2-0.2-4.8,0.9-6.5-1.9C579.3,839.9,582,843,583.9,841z"/>
	<path id="Path_134" class="st0" d="M561.7,827.7c1.6,2.2-0.7,3.1-1.5,4.5c-1.1-0.3-2.6-0.4-2.3-2
		C558.3,828.3,560,827.8,561.7,827.7z"/>
	<path id="Path_141" class="st0" d="M551.4,805.6c0,1.9-0.9,2.9-2.9,2.9c0.1-1.2-0.5-2.3-1.5-2.9C548.5,801.6,550,804.7,551.4,805.6
		z"/>
	<path id="Path_142" class="st0" d="M539.6,807.1l0,1.5c-1.3,0.4-1.5,2.8-3.3,2.1c-0.5-0.4-0.8-1.1-0.8-1.7
		C536,806.7,538,807.2,539.6,807.1z"/>
	<path id="Path_159" class="st0" d="M589.8,847c0.6-1.3,1.7-1.6,3-1.6l3.1,0.2C594,847.8,591.7,846.6,589.8,847z"/>
	<path id="Path_197" class="st0" d="M560.3,820.4c-1-2-2-4-3-6l8.9,5.4C563.9,821.6,562,819.8,560.3,820.4z"/>
	<path id="Path_205" class="st0" d="M545.5,793.8c0.5,1.9,2.8,3.9,0,5.8c-0.3-2.5-4.8-2.2-3.7-5.4
		C542.5,792.3,544.2,793.3,545.5,793.8z"/>
</g>
<g id="Ukrain">
	<path id="Path_168" class="st0" d="M994,696.4c0.4-2.4-2.4-2.4-3.1-4c2.9-1,4.8,0,6.1,2.5L994,696.4z"/>
	<path id="Path_169" class="st0" d="M1004.3,551.8c4.6,3.4,7.2,6.7,2.4,12.3c-2.6,3.1,1.5,15.2,5.1,17.5c5.7,3.6,6,9.7,6.9,15.4
		c0.4,2.7-2.3,3-4.5,3.8c-10.5,3.6-19.3,16-18.4,25.2c0.2,2,0.9,2.5,2.5,2.9c-0.1,1.6-0.5,3.2-1.9,3.7c-9.2,3.3-13.3,12.2-19.8,18.4
		c-4,3.8-8.9,6.5-13.7,9.4c-2.4,1.6-4.7,3.5-6.9,5.5c-1.8,1.6-2.4,7.7-6.9,2.1c-1.2-1.5-2,0.6-2.2,2.3c-1.1,11.6-2.3,12.2-12.7,16.3
		c-5.6,2.2-13.1,1.1-16.7,7.7c-9.7-1.2-18.5,11.3-28.7,0.5c0.3-3.4,5.2-3.7,7.3-7.1c-3.4-2.9-9.5,1-12.3-4.7
		c-0.7-1.4-1.7,4.2-5.6,4.2c-5.8,0-14.7,9.3-15.9,15.1c-0.4,1.9-0.8,3.8-1.4,5.7c-0.3,0.9-0.8,2.1-1.5,2.3c-2.3,0.8-3.1-2.6-4.9-2.4
		c-4.3,0.5-2,2.8-0.7,4.3s2.6,2.9,1.6,5.2c-0.3,0.9-0.3,1.9-0.3,2.9c-1.4,1.3-4.6,1.3-3,4.6c-0.6,5.5-3,3.2-5.4,1.1
		c-1.6,3.4,0.6,6.1,1.1,9.1c-7.1,1.5-11.9,6.9-18,10c-1.8,0.9-5-0.5-6.5-2.4c-1.6-2,1.3-3.4,1.7-5.1c2.1-8.4,9.8-15.8,4.6-25.5
		c-1.4-2.6,0.3-3.4,2.8-3.5c4.7,0,9.4,0.1,14-0.2c3.4-0.2,4.6-1.6,2.7-5.4c-3.4-6.8-8.9-10.6-15.2-14.4c-5.4-3.2-10.4-7.8-9.3-16.1
		c0.5-3.9-1-6.9-7.3-8.2c-7.8-1.6-16-1.9-23.8-5.2c-8.7-3.7-16.4,2.9-23.3,7.8c-3.8,2.7-6.1,7.5-9.3,11.1
		c-4.9,5.5-14.3,4.1-17.9,11.7c-0.1,0.3-1.8,0.1-2.7-0.2c-11.2-3.9-22.8-1.3-34.1-1c-4.6,0.1-8.3,0-12.5-1.5
		c-4.8-1.6-10.1-4-9.4-8.8c0.7-5,0.7-12,7.8-14.1c3.5-1,2.2-3.4,1.1-5.2c-7.2-12.7-1.4-22.1,7.2-31.2c5.3-5.6,11.5-11.2,7.5-20.7
		c-0.9-2.3-1.4-4.3-3.4-6c-2.6-2.2-4.4-5-6.3-7.9c-3.2-5.1-3.2-7.5,3.2-8.3c1.5-0.1,2.9-1,3.5-2.4c4.6-11,14.5-11.9,24.2-12.5
		c11.6-0.8,23.2-0.9,34.5,2.6c3.2,1,6.2,0.6,9.4-1.8c3-2.2,7.5-4.4,11.3-0.2c0.7,0.6,1.6,1,2.5,1.3c2.8-10.1,14.4,1.5,18.5-7.5
		c1.1-2.5,6.2-1.8,9.8,0.7c3.9,2.7,0.3,4.5,0.5,6.6c0.6,5.8,2.2,11.3,8.2,14.7c-3-8.9,1.4-18.6-4.1-27.2c-3.9-6,1.7-20.7,13.7-21.1
		c2.4-0.1,4.7-0.4,7.1-0.8c0.6-0.4,1.7-0.7,1.8-1.2c2.7-12.8,14.9-11.7,23.4-16c2.3-1.2,3.8,1.6,5.4,3c5.8,4.5,7.1,11.3,9.3,17.8
		c2.7,7.8,5,8.6,12.7,5.7c8-3,13.2-0.1,15.4,8.5c0.8,3.8,4.6,6.2,8.4,5.4c1-0.2,2-0.7,2.8-1.3c3.1-2.4,5.3-2.8,9.2-1.1
		c2.8,1.2,7.3,3.1,10.2-2.3c1.6-2.9,5.7-4.4,8.6-6.7c1.6-1.2,3.5-0.5,3.8,0.5c1.6,5.1,7.7,3.6,10.2,7.4c1,1.5,3.9,1.4,4.4-0.2
		c2.2-6.6,7.6-3.2,11.5-4c8.1-1.8,16.4-1.6,24.4,0.6C1002.5,553.3,1003.5,552.3,1004.3,551.8z"/>
	<path id="Path_172" class="st0" d="M907.6,721.4c2.3-8.4,8.2-12.8,13.1-17.6c3.2-3.1,4.9-5.3-0.2-9.8c10.5,1,19.4,0.6,27.7,4.7
		c1.7,0.9,3.8,1.6,5,3c4.9,5.6,11.2,6.5,16.5,0.9c2.5-2.7,5.7-3.6,8.5-5.5c2.1-1.4,5.6-2.1,6.5,1.6c0.7,2.9,1.3,6.6-3.2,7.7
		c-2.4,0.6-4.7,1.2-7.1,1.6c-4.3,0.8-23.6,17.8-25,22c-1.1,3.3-2.4,6.5-5,8.9c-3.6,3.2-9.6,1.8-10.5-2.3c-3-14.2-3-14.3-17.7-15.3
		C913.7,721.3,911,721.4,907.6,721.4z"/>
	<path id="Path_206" class="st0" d="M906.3,676.8c6.9-5.6,7.4-13,6.9-18.8c-1-10.3,6.7-11.2,12.2-14.3c3-1.7,7.2-1.1,7.8-6
		c0.1-1.3,1.9-1.7,2.9-0.9c1.8,1.5,4.7,2,4.8,5.1c0.1,2,0.1,4-1.9,5.2c-1.2,0.8-2.6,1.3-4.1,1.5c-12.7,0-16,8.9-17.4,19
		C916.6,673.3,914,676.3,906.3,676.8z"/>
	<path id="Path_207" class="st0" d="M855.4,607.3c12.3-6,23.2-5.2,29.5,1.5c1.5,1.6,3.3,2.8,1.9,5.6c-1.5,3.1-3.5,1.3-5.5,1.1
		C872.3,614.5,864.3,610.7,855.4,607.3z"/>
	<path id="Path_208" class="st0" d="M893.6,612.3c9.6-1.1,17.8,1.1,25.6,5.7C913.5,620.7,897.6,617.3,893.6,612.3z"/>
	<path id="Path_209" class="st0" d="M836,598.4c4.4-3.1,7.6-2.5,10.6-2c2.2,0.3,2.8,2.5,2.8,4.6c0,1.4,0.2,3.1-1.7,3.6
		c-2,0.5-3.3-0.8-4-2.4C842.5,599.3,839.6,599.2,836,598.4z"/>
</g>
<g id="Borders_and_rest">
	<path id="Path_14" class="st1" d="M514.4,777.5c6.4-0.7,7.6-4.4,4.9-9.5c-2.7-5.1-1-8.9,2.6-12.5c-0.4-1.3,0.3-2,1.3-2.6
		c4.1-1.5,7.7,0.2,11.4,1.5c3.1,1.1,6.5,2.1,9-0.7c4.6-5,10.6-7,16.8-8.5c12.9-3.2,15.7-12.7,15.1-24.2c-0.2-4.5-0.6-7.7,5.2-8.2
		c4.4-0.4,2.8-4.2,2.2-6.4c-1.5-5.1-5.1-9.4-5.2-15.2c0-2-2.4-2.6-4.1-2c-6.4,2.5-12.2-0.1-17.8-2.4c-4.9-2-7.8-0.9-10.4,3.3
		c-4.4,7.3-10.9,9.6-18.9,6.8c-3.8-1.3-6,3.7-9.6,1.8c-1.5-0.9-2.2-2-1-3.6c1.5-1.6,5-0.8,5.2-3.3c0.2-2.4-2.7-2.9-4.4-4.3
		c-8.1-6.8-17.1-12.7-22.6-22.2c-0.7-1.3-2.3-2.5-1.6-3.9c2.3-4.8-0.1-7.2-3.9-9.4c-1.7-1-3.1-3-2.8-4.9c0.5-3,3.5-0.7,4.7-1.4
		c4.4-2.5,10.1-2.1,13.8-6.3c3.7-4.2,8.3-6.6,13.6-8.4c2.7-0.9,6-2.3,7.4-4.5c3.6-5.5,6.6-4.7,10.3-0.1c4.5-6,3.9-10.7-0.9-16.3
		c-3.5-4-5.2-9.2-4.6-14.5c0.6-7.2-0.5-15.3-6.8-20.9c-3.6-3.2-6.3-6.4-1.3-10.8c2.3-2,1.1-5.1,1.4-7.7l2.8-2.9
		c0,4.6,0.7,9.3-2.8,13.3c-3,3.5,0.7,5.6,2.5,7.2c6.7,5.9,6.7,14.3,7.7,21.9c0.4,3.2-0.6,7.4,1.6,9.6c5.6,5.3,4,14.5,10.8,18.9
		c5.4,3.5,11,6.8,17.5,6.9c4.4,0.1,5.7,1.1,4.2,5.5c-1.5,4.4,2.4,6.3,5.2,7.1c2.9,0.8,3.6-2.3,3.5-5c-0.3-4.7,2.4-4.2,5-2.3
		c3,2.3,5.6,4.7,9.7,2.6c1.3-0.6,3.8,0.5,3.4,1.8c-1.8,6.7,3.7,5.1,6.4,5.3c6.3,0.4,10.5,3.5,13.5,8.6c2.5,4.3,5.1,6.2,9.7,2.3
		c5.4-4.7,8.6,0.1,11.3,3.6c2.5,3.2,3.8,8.2,6.8,0.6c0.2-0.4,0.6-0.8,1.1-0.9c13.4-2.7,26.6-10.7,40.5-1.8c1.6,1,3.6,3,5.2,1.7
		c2-1.6,0.2-3.8-0.5-5.9c-3.3-9.6,1.1-17.6,6.3-25c2.7-4,6.6-7.2,9.7-10.9c4.8-5.7,0.6-11.4-2.2-14.9c-6.5-8.2-10.8-16.7-11.1-27.2
		c-0.1-2.4-1.9-3.8-4-4.9c-6.4-3.2-7.9-7.4-2.2-11.5c9.6-6.8,5.2-14.1,2.5-21.3c-3.1-8-8.2-15.1-11.4-23.2
		c-2.6-6.5-9.1-6.4-14.4-4.6c-15.5,5.4-31.6,4.3-47.5,5.3c-0.3,0-0.7-0.6-1.1-0.9c1.2,0.1,2.4-0.5,3-1.6c3.1-2.8,7-2,10.5-1.9
		c8.6,0.2,17.1-0.8,25.4-2.9c4.7-1,7.6-5.6,6.6-10.2c-0.3-1.2-0.8-2.4-1.6-3.4c-0.7-1.3-2.4-1.9-3.8-1.3c-7.2,2.3-12.9-0.6-18-5.3
		l-1.5-3.1c9-0.5,17.7,2.1,26.4,3.4c3.1,0.4,5.4,4.3,5.1,8.1c-0.4,6,2.7,9,8.1,10.4c1.9,0.6,3.6,1.6,5,3c6.4,5.8,12.9,5.4,18.8-1.3
		c2.7-3.1,5.2-6.4,9.2-8.2c3.6,1,4.8-2.9,7.5-3.8c3.2,1.9,5.7,4.7,4.3,8.4c-1.3,3.6-4.7,3.7-8.1,2.6c-2.7-0.9-4.1,1.1-5.2,3
		c-3.4,6.1-8.8,9-15.6,9.7c-4.2,0.4-5,2-3,5.7c3,5.9,5.6,12,7.7,18.3c2.1,6.2,1.4,11-3.2,15.4c-3.4,3.3-4.8,6.3,0.8,8.9
		c2.6,1.2,3.8,3.7,3.7,6.7c0,2-0.1,4.2,2.5,4.6c2,0.3,3.3-1.1,4-2.7c3.2-7.3,9.9-9.8,16.7-10.6c14.1-1.8,28.2-3.9,42.4-0.1
		c4.2,1.1,8.3,1,12.1-1.4c2.3-1.5,5.1-2,7.8-1.3c2.6,0.7,4.8,0.6,6.6-1.6c0.6-0.8,1.7-1.7,2.5-1.4c7.8,2.6,14.6-2.3,22-2.8
		c1.1,0.1,2.1,0.4,3,1c-2.1-9.8-0.6-18.1,9.2-23c3.2-1.6,3.3-3.5,1.5-6.5c-3.1-4.9-4.5-10.5-9-14.9c-4.8-4.7-2.2-9.6,4.5-10.7
		c1-0.2,2-0.1,2.9-0.3c4.4-0.7,7.9-3.2,8-7.4c0.1-4.6-4.1-6.6-8.2-6.8c-4.2-0.2-7.8-0.5-9.6-5c-0.6-1.4-2.2-1.9-3.5-2.5
		c-10.8-4.9-16.6-13.8-19.6-24.8c-1.2-4.2-3.2-8.2-5.7-11.8c-3.2-4.7-8.3-4.1-12.4-0.8c-4.9,4-8.6,5.1-13.6-0.5
		c-4.1-4.6-17.8-1-20.7,4.8c-1,2-2.7,3.5-4.7,4.2c-10.2,4.4-10.1,4.5-6.7,14c0.4,1-0.5,1.8-1.5,2.2c-2.5,0.2-5.8,0.2-6.6-2.2
		c-3.3-9.3-12.9-10.7-19.3-16c-1.7-1.2-4.3-1.4-4.3-4.3c5.6-3.4,9.7,0.4,14.1,2.9c3.6,2.1,6.3,6.5,11.7,3.5c7.4-4,15-8.2,15.5-17.6
		c0.2-4.6-2.9-8.8-6.7-11.8c-2.8-2-4.6-5.2-4.9-8.7c-0.8-7.7-5.8-11.7-12.9-9.2c-6.6,2.3-11.8,1.2-17.1-2.9c-5.9-4.6-12.3-5.8-19-1
		c-2,1.4-4.3,2.5-6.8,0.6c0-4.9-0.1-9.9-0.1-14.8c5.7,2.1,2.7,6.4,2.6,10.4c9.6-9.9,19.4-6.1,28.5,0.1c5.7,3.9,10.1,1.8,14.7-1.2
		c2.4-1.6,4-4.8,2.1-7c-4.8-5.5-3.7-12.4-5.9-18.5c0.3-1.2,0.8-2,2.2-1.7c1.7,0.7,3.1,2.1,2.9,3.9c-0.6,6.2,2.4,10.8,6.3,15.1
		c1.1,1.2,1.5,2.8,0.5,4.1c-4.3,5.1-2.1,8.3,2.8,11.1c1.4,0.8,3.4,2.6,3.2,3.8c-1.5,12.1,10.8,17.1,14,26.9
		c1.1,3.3,7.8,3.9,12.2,2.6c4.1-1.2,6.8-1.7,8.5,3.4c1.5,4.5,4.3,1.1,6.3-0.1c7.4-4.4,17.2-4.4,19.8,1.5c2.1,4.7,5.6,9.1,5.9,14.4
		c0.2,3.5,2.3,5.4,3.7,8c4.1,7.9,11.1,11.5,17.9,16.2c2.7,1.8,4.7,4,8.1,4.5c2.4,0.3,5.4,0.9,6.7,2.5c2.3,2.9,8.3,3.9,6,9.7
		c-2.5,6.5-9,11-15,10.1c-1.7-0.2-3.7-1-4.6,0.9c-0.8,1.7-0.1,3.8,1.6,4.6c0.2,0.1,0.4,0.2,0.6,0.2c4.7,1.2,4.5,5.2,5.8,8.4
		c2.3,6,5.2,11.4,12,13.4c1.5-0.3,1.9,0.4,1.7,1.8c-1.9,2.4-4.8,2.1-7.4,2.6c-10.1,1.7-14.8,10.4-10.8,19.7c3.3,7.7,1.6,16,3.2,23.9
		c0.4,1.5-0.4,3.1-1.9,3.6c-1.5,0.5-2.9-0.5-3.9-1.5c-3.5-3.8-5.6-8.8-5.8-14c-0.3-6.5-3.3-8.4-8.7-5.3c-4,2.3-7.4,6.1-12.6,2.9
		c-6.3,6.5-15.5-1.9-22.2,4.5c-2.4,2.4-6.7,0.8-10-0.2c-11.3-3.5-22.9-2.8-34.4-1.9c-7.7,0.6-15.6,2.7-19.6,10.9
		c-0.6,1.1-1.4,2-2.5,2.7c-5.8,4.2-6,5.6-1.1,11.3c2.7,3.1,5.8,5.6,6.8,10.2c1.4,7,1.1,12.9-4.6,18.1c-2.7,2.5-5.1,5.3-7.2,8.3
		c-5.1,6.8-8.4,13.8-3.8,22.4c1.7,3.2,3,7-1.2,9.8c-5,3.3-7.1,8.2-5.9,13.9c0.8,3.6,10.1,8,15.1,7.6c12.2-1.1,24.4-2.2,36.7-0.1
		c0.7,0.1,1.7,0.4,2.2,0c6.7-5.7,16.6-6.4,21.7-14.5c5-7.9,12.8-12,21.2-15.1c2.6-1,5.4-1.6,8-0.7c9.3,3.1,19.2,3.8,28.6,6.2
		c4.1,1,5.7,4.2,5.7,7.7c0.1,9.1,5,14.4,12.5,18.4c5.3,2.7,9.5,7.2,11.7,12.7c2.1,5.1,1.2,7.3-4.1,8.4c-1,0.2,0.2,0-0.7,0.1
		c-3.9,0.5-8.4-1.2-11.6,0.8c-4,2.6,0.4,7.2-0.6,10.9c-1.3,4.8-4.2,8.9-5.3,13.7c-0.5,2.2-3.5,4.5-0.4,6.5c2.8,1.7,5.3-0.3,7.1-2.4
		c3.6-4.1,8.2-5.1,13.3-4.7c2.5,2,0.6,4-0.1,5.9c-3.7,1.2-7.1,3-10.2,5.2c-8.1,6-16.9,3.6-21.3-5.5c-3.3-6.6-5.2-13.8-5.5-21.2
		c-0.3-10.6-6.3-17.4-13.9-23c-4.5-3.2-8.6-6.4-11.1-11.4c-1.3-2.4-3-4.5-5-6.4c-7.1-7.3-7.4-7.3-14.4,0.5c-2.2,2.4-5.1,3.8-7.8,5.5
		c-0.8,0.6-1.6,1.1-2.6,1.3c-6.8,0.3-8.6,12.1-16.7,8c-6.6-3.3-13-1.4-19.5-1.6c-13.7-0.5-23.8,5.8-30.8,17.1
		c-3.5,5.7-2.9,12.8-5.2,19.1c-3.6,9.9-5.8,20.5-16.5,25.7c-1.6,0.8-2,2-0.6,3.5c5.3,5.7,7.2,14.7,16.4,16.8c2.7,0.7,4.8,3,5.1,5.8
		c0.8,5,4,7.3,8.7,8.8c3.2,1.1,5.4,1.6,8.7-0.7c6.3-4.6,10.5-2.1,10.7,5.7c0,1.5,0.7,2.9,2,3.7c1.4,1.1,3.6,1.7,4,3.1
		c2.5,7.9,9.1,4.9,14.4,6.2c9,2.2,17.4-2.2,26.1-1.6c1.8,0.3,3.7,0.6,4.2,2.8c-8.4,3.5-16.5,8.7-26.3,4.9c-4.8-1.8-9.6-0.9-14.4-0.3
		c-3.7,0.5-7.7,1.8-9.5-3.8c-0.8-2.6-2.6,1.8-4.4,0.6c-1.1-0.1-2-0.9-2.3-1.9c2.3-5.3-3.2-9.5-2-14c-1.8,4-4.9,5.4-9.4,3.1
		c-2-1-3.9-2.3-6.1-2.4c-5.6-0.2-8.2-3.4-9.8-8.3c-1.2-4.3-4.6-7.8-8.8-9.2c-4-1.4-6.1-4.4-7.8-8.2c-5.8-12.7-17.4-15.4-28.1-6.7
		c-3,2.4-4.8,5-1.9,8.7c2.3,3,2.4,6.9,4.1,10.2c-0.2,1.1-1,2-2,2.2c-5.9,0.9-6.5-4.3-8.1-7.7c-1.7-3.6-3.2-4.9-7.1-3.2
		c-3.6,1.6-7.5,2.1-11.2-0.3c-0.5-1.3,0.2-2.1,1.1-2.7c9.9-2.8,17.3-10.1,25.9-15.1c3.1-2,6.6-3.2,10.3-3.5c18-1.1,23.4-5.4,28.6-23
		c1.5-4.4,2.6-9,3.4-13.6c1-7.4,4.3-13.5,10.4-17.9c3.8-2.7,2.3-4.4-0.8-5.5c-9.4-3.2-18.9-5.9-29-5.7c-3.8-0.1-7.3,2-8.8,5.5
		c-2.5,4.9-6.4,7.3-12.2,8.2c-7.1,1.1-14.8,2.3-17.5,11.1c-0.7,1.9-2.3,3.4-4.3,3.8c-9.2,1.5-18.6,5.7-27.1-0.9
		c-6.6,6.3-9.3,13.8-11.2,22.4c-1.5,6.6-0.9,11.9,2.2,17.4c0.1,1.8-1.1,2.5-2.5,3.3c-6.1,3.6-11.2,7.5-13.3,15.4
		c-1.3,4.8-5.6,8.9-6.9,14.5c-0.7,3.1-4.9,2.4-7.8,2.1c-4.3-0.5-8.7-1.9-12.9,0.3c-1.1,0.3-2.2,0.4-3.4,0.5
		c-4.2-0.3-8.5,2.6-12.7-0.4C523.6,781.7,523.2,776,514.4,777.5z"/>
	<path id="Path_31" class="st1" d="M591.3,88.6c1-0.1,2.5,0.1,2.8-0.4c3.8-6.7,9.7-5.2,15.2-3.6c3.1,0.9,3-0.9,4.4-2.7
		c6-7.6,2.7-15.8,2.6-23.9c0-7.7,0-15.4,10-17.6c1.4-0.3,2.8-2.1,3.7-3.5c2.5-3.8,5-4,7,0.1c1.7,3.5,5.4,3.3,8,4.5
		c6.5,3.1,10.7,6.7,7.4,15.3l2.2-0.3c2.5-4.6,5-9.3,7.5-13.9c0.5,0.5,1.1,1.1,1.6,1.6c-0.1,6.1-5.5,9.7-7.2,15.5
		c-1.6,5.7-2.7,11.6-3.2,17.6c-0.5,6.2,1.8,10.8,8.1,12.1c6.9,1.4,10.1,8.1,16.2,10.7c2,0.9,0.5,4.2-0.5,6.1
		c-8.4,15.7,0,27.2,9.5,38.4c4.4,5.1,8.9,9.4,6.2,17.7c-2,6.2,4.5,12.5,2.3,19.5c-0.1,0.5,1.3,2.1,1.8,2c7.5-1.2,7.8,3.2,7.3,8.8
		c-0.1,0.9,1.7,2.7,2.9,3c9,2.6,7.5,9.2,5.8,15.4c-0.8,2.9-0.5,3.7,2.2,5.3c6.7,4.2,14.6,6.7,19.5,13.8c2.8,4,3.7,8.1,2.4,12.5
		c-6.3,22-15.4,43.1-27,62.9c-1.7,2.7-2.8,5.7-3.4,8.8l-3.2,0c3.3-11.7,11.4-21,15.8-32.2c4.9-12.6,11.4-24.6,14.3-37.9
		c2-9.2,0.6-13.7-7.6-18.5c-4.2-2.4-8.1-5.5-12.7-7c-4.2-1.3-3.9-3.2-3.1-6.5c1.6-6.2,1.3-10.8-5.4-15.4c-4.6-3.2-9.3-9.4-11.6-14.9
		c-2.9-7.1-4.5-15.3-2.3-23.3c0.8-2.6,0-5.5-2.1-7.3c-6.4-5.9-9.4-14.4-15.7-20.2c-2.9-2.7-2.6-6.5-1.6-9.7
		c1.6-5.1,0.3-10.8,3.5-15.6c1.2-1.9,0.3-3.7-1.6-5c-5.1-3.4-8.5-8.7-15.7-9.9c-6.7-1.1-4.7-9.3-7.2-13.9c-4.1-7.5,1.2-14,1.4-20.9
		c0.2-9.6-6.2-11.4-11.6-13.9c-2.5-1.1-5.2-6.1-7.5-3.5c-4.7,5.4-15.5,6.4-13.3,17.4c1,5,0,10.2,0.9,15.3c1,5.9-4.2,10.4-5.7,15.9
		c-0.7,2.6-4.1,1.1-6.3-0.3c-3.2-2-6.8-2.3-9.3,1c-3,3.9-6.5,3.7-10.4,2C588.3,87.3,589.7,87.8,591.3,88.6z"/>
	<path id="Path_32" class="st1" d="M591.3,88.6c-1.2-0.1-2.3,0.4-3,1.4c-3.8,0.6-6.3-0.7-8.3-4.3c-2.2-4-5.4-7.5-8.3-11.3
		c-3,1.4-0.1,6.8-4.9,6.8c-0.5,0,0.8,4.2,2.2,4.7c5,1.6,7.8,5.7,11.6,8.8c1.2,0.8,2.6,1.2,4.1,1.3c10.7,1.3,18.2,10.9,20.4,21.6
		c1.2,6,0.9,12.7,5.2,18.2c3.5,4.1,4.8,9.7,3.5,15c-2.2,10.2,5,15.9,13,20.5l-7.5,0c-0.9-3.7-4.3-5.6-6.2-8.8
		c-2.4-4.2-3.5-8.2-2-12.5c1.2-3.3,0.7-7-1.4-9.7c-5.4-7.8-7.4-16.6-8.1-25.9c-0.3-5.1-8.6-15-13.2-15.1
		c-10.3-0.2-15.6-8.8-23.4-13.1c-1-0.5-1.6-1.8-3.7-1.4c3.2,4.8-0.9,10.4,2.7,15.7c1.4,2.1-1.2,6.8-6.1,5.5
		c-1.9-0.5-3.8-0.9-5.7-1.4c-11.9-3-11.8-3-12.4,8.6c-0.2,4.1-0.1,8.6-6.6,5.3c-3.9-2-5.4,1.9-6.3,4.2c-2.6,6.9-7.1,13.3-3.7,21.8
		c1.9,4.9-2.6,10.1-4.9,15c-0.5,1.1-2.3,1.9-2.3,2.8c0.1,9.6-4.8,15.6-13.1,19.5c0.7,1.6-0.1,1.8-1.4,1.5c-0.6-4.3-0.4-7.5,5.6-7.7
		c3.4-0.4,5.9-3.3,5.8-6.6c-0.2-5.5,1.8-9.7,4.7-14.1c2.6-4,4.5-8.8,1.7-13.9c-3.5-6.3,1.8-11,3.6-16.1c1.8-5.2,3.5-11.6,12.2-9.2
		c3.3,0.9,2.9-3.6,3.1-6c0.7-10.6,0.6-10.6,10.7-8.8c2.1,0.5,4.3,1.1,6.3,1.8c1.6,0.5,3.2,1.5,4.8,0.3c2.1-1.7-0.5-2.9-0.6-4.4
		c-0.3-5-1.6-10.5,0-14.9c1.5-4.1,6.8-6.1,9.7-10.1c2.1-2.9,5.6-0.2,7.5,2.9C580.1,81.8,583.8,87.5,591.3,88.6z"/>
	<path id="Path_33" class="st1" d="M343.3,609.4c10.6-2.3,18,5.1,26.7,8.8c3.7,2.5,1.6,6.1,1.6,9.4c0.5-1.8,0.3-3.5,1.3-5
		c4.5-3.9,5.7-8.8,3.2-14c-2.4-5-2.1-7.9,4.3-8.2c4.6-0.2,6.9-3,9-7.1c1.9-3.9,3.4-6.4-0.3-10.2c-2.8-2.9,1.1-4.3,2.8-6.2
		c4.4-5,7.9-10.5,4.5-17.6l1.7-0.1c2.7,0.3,3.3,2.3,2.7,4.3c-1.9,6.4-2,13.8-9.9,17.3c4.5,3.9,2.3,7.5,1.9,12
		c-0.8,9-6,9.4-11.7,10.5c-3.1,0.6-3.7,1.5-2.3,4.3c2.9,6.1,1.5,11.9-2.4,16.9c-2,2.6,0,4,0.5,6c1.9,7,8.1,13.9-0.1,21.3
		c-2.1,1.9,0.1,5.2,2.9,6.2c2.4,0.9,3.6,2.4,3.5,4.9c-0.7,10.8,3.1,14.4,14.7,16.1c5.3,0.8,10.3,3.7,15.3,5.9c2.9,1.3,1.4,2.9,0,4.5
		c-6.7,7.7-9.9,16.6-10.6,27c-0.4,5.5,1.1,8,5.8,9.5c-0.2,1-0.8,1.8-1.7,2.2c-0.9,0.3-1.9,0.3-2.9,0c-1.9-0.5-3.4-1.9-4.2-3.7
		c1.7-5.2,0.7-10.7,1.6-15.9c1-6.1,1.7-12.6,7-17.2c3.3-2.9,2.6-5.2-1.9-6.3c-5.8-1.4-11.2-4.5-17.6-3.5c-2.6,0.4-4.2-0.9-4.5-3.6
		c-0.7-5.7-4.3-7.1-9.2-6c-2.4,0.7-4.9-0.1-6.4-2.1c0.4-0.5,1-1,1.6-1.2c8.5-2.7,8.7-3.9,2.6-11.1c-2.3-0.1-1,5.7-4.8,2.9
		c0.1-1.8-0.5-3.6,0.6-5.3c-0.4-3,1.5-4.3,3.8-5.6c2.4-1.3,7.1-2,5.8-5.3c-1.4-3.7-0.3-9.6-7.1-10.3c-4-0.4-4.4-3.7-3.1-7.3
		c1.7-4.7,0.9-8.4-5.3-8.3c-1.8,0-3.1-1.2-4.5-2.2c-5.5-3.9-10.9-6.6-16.5,0.2c-1.8,2.2-4.4,3-7,0.7l0-1.6c2-2.3,6-1.1,7.4-4.4
		L343.3,609.4z"/>
	<path id="Path_36" class="st1" d="M606,849.9l6.5,3c-8.1-8.6-12.5-17.6-22.2-22.4c-4.9-2.4-8.6-7.7-11.1-13.1
		c-1.4-3.1-2.7-7-5.3-8.6c-5.9-3.7-6.2-7.9-5.1-14.2c1.1-6.3,4.2-6.4,7.9-4c3,1.9,3.7,0.1,6-0.9c5.4-2.2,11.2-5,17.5-1.8
		c3.9,2,7.8,1.9,12,0.4c6.6-2.6,14-1.5,19.6,2.8c3.1,2.3,5.3,2.6,5-1.6c-0.2-2.9,5.9-4.1,1.6-7.4c0.5-0.5,1.1-0.9,1.6-1.4
		c7.1,0.1,7.7,1,4.9,7.1c-0.2,0.4-0.9,1-0.8,1.2c5.3,6,1,12.4,1.1,18.6c0,1.9,2.5,3,2.6,5.1c-0.2,1-0.9,1.9-1.9,2.4
		c-8.9-1.6-10-4.5-6.1-17.7c-3.7,3.2-6.5,1.7-9.1-0.7c-4.8-4.5-10.3-5.2-16.3-3.2c-5.2,1.8-10.1-0.7-15.1-1.4
		c-5.7-0.7-10.7-0.5-14.9,3.7c-2.2,2.2-4.6,2.5-7.3,0.8c-1.2-0.7-2.5-2.1-3.8-0.4c-0.9,1.2-0.9,3,0.1,4.2
		c9.5,10,12.8,25.3,26.8,31.4c2.9,1.3,5.4,3.6,6.9,6.4c4,7.3,10.1,13.4,17.5,17.3c3,1.7,5.7,3.9,7.8,6.6c0.1,0.3,0.2,0.7,0.3,1
		c-0.8,0.4-1.9,1.4-2.4,1.2c-7.1-2.8-14.2-5.7-21.2-8.6c0.1-2.2-4.3-1.5-2.9-4.5C606,850.8,606,850.3,606,849.9z"/>
	<path id="Path_38" class="st1" d="M684.2,941.3c-2.5-9,5.8-13.4,8.6-20.2c3-7.4,5.7-10.7-4-17.1c-3.8-2.5-5.6-7.6-5.9-12
		c-0.3-5.6-2.3-10.8-1.6-16.7c0.6-5.2-5.3-6-9-8c-0.3-1.3,0.5-1.9,1.6-2.3c5.9,2,12.3,1.8,18.1-0.5c3.4-1.2,6.1-2.4,7.4-6.2
		c1.4-4.3-1.6-5.5-4.2-7.2c-1-0.7-1.9-1.6-2.7-2.5c-7.5-7.2-7.5-7.2-14.5-0.1c-0.8,0.9-1.9,1.5-3.1,1.7c-1.7-0.4-2.2-1.6-2.4-3.1
		c-0.1-2.3,1.1-4.3,1.9-6.3c2.7-6.5,6.5-7.9,12.7-4.7c6.6,3.4,11.5,9.2,18.2,12.5c3,1.5,2.3,5.1,2.9,8c6.4-1.4,10.3-3.8,7.8-10.7
		c-1.3-3.6-0.6-6.7,2.9-9c2.4-1.6,3.4-4.1,4.2-6.7c0.4-1,1.4-1.6,2.4-1.8c5.6,2,4.7,5.8,1.9,9.1c-3.5,4.1-4.6,7.8-4.1,13.6
		c0.5,5.9,3.6,8.6,6.8,12c0.1,1.1-0.6,2.1-1.6,2.5c-1.6,0.7-3.5,0.5-5-0.5c-9.2-7.5-16.5-1.7-23.7,3.4c-2,1.4-3.6,3-6.2,3.5
		c-5,1-8.3,5.9-7.3,10.9c0,0.1,0.1,0.3,0.1,0.4c0.6,2.6,0.9,5.3,1.2,8c0.7,7,5.5,9.9,11.6,11.5c0.6,0.4,1,1,1.3,1.6
		c-4.7,3.8-0.9,10-4.1,14.6c-2.8,3.9-3.4,9.4-8,12.3c-1.8,1.1-1.6,3-0.9,4.6c1.1,2.5,0.6,4.2-1.8,5.4L684.2,941.3z"/>
	<path id="Path_39" class="st1" d="M700.6,904.5l-1.8-0.2c-0.4-1.6,0.6-3.3,2.2-3.7c0.1,0,0.2-0.1,0.4-0.1
		c9.7-1.3,14.5-12,25.2-12.2c5-0.1,7.5-13,4.3-18.6c-0.9-1.6-3-2.7-2.5-5l1.6-1.4c6.6-0.1,8.7,4,9.2,9.8c0.6,6.6,1.4,7,7.7,4.7
		c3.7-1.4,7.2-3.2,10.4-5.5c5.7-3.9,11.6-4.3,18.1-1.7c7.1,3,15.1,2.7,22-0.6c2.9-1.4,5-3.1,4.8-6.6c-0.5-7.4,4.6-12.2,9.4-15.7
		c6.4-4.6,13-11.2,22.5-6.6c1.4,0.7,3.3-0.6,5.1,0c1,1.1,2,2.1,2.9,3.2c-5,0.5-9.7,4.7-15,0.2c-1.4-1.2-14.1,8.2-15.1,10.6
		c-0.5,1.1-1.4,1.5,0.5,2.3c6.8,2.9,4.9,8.2,3.2,13.3l-1.5-1.5c-0.3-9.5,0.9-8.3-8.3-9.7c0.1,3.6,5.1,7.5,0.6,10.4
		c-5.9,3.8-12.2,7.8-19.4,7.6c-5.3-0.1-10.9-0.1-15.7-4.1c-2.6-2.2-6.5,0-9.5,1.6c-5.4,3.3-11.2,5.9-17.2,8
		c-4.1,1.3-10.2,1.2-11.8,7.8c-0.4,1.8-3.6,3.6-6.9,3c-4.7-0.9-9,0.8-11.4,4.9C711.2,904.2,706.2,904.8,700.6,904.5z"/>
	<path id="Path_42" class="st1" d="M673.9,847c-0.1,1.1,0.4,2.3,1.3,2.9c0.3,0.4,0.5,1.1,0.2,1.3c-5.5,4.5-4.2,9.6-1.6,14.9
		l-1.5,1.4c-3.6-0.1-3.5-4.7-7.8-5.2c-10-1.2-6.4,7.9-10,11.3c-2.4,0.6,0.1,4.6-3,4.5c-0.5,0-0.9-1.9-1.4-3
		c1.8-4.9,6.1-8.6,6.2-14.3c0-2.4,1.8-4.3,4.5-2.2c2.8,2.2,4.2,1.1,5.7-1.5c1.5-2.8,0.7-4.2-1.9-5.9c-4.5-2.9-8.6-6.4-13-9.4
		c-2.4-1.7-3.9-6.2-7.5-4.5c-6.6,3.1-9.3,12.6-9.6,18c-0.3,4.9,6,6.2,4,10.8c-2.8,0.7-4.3-1.2-6-2.9l-0.1-0.1
		c-4.6-8.2-4.4-15.7,2.2-23.3c3.4-3.9,5-9.5,10.6-11.5c1.6-0.6,2.3-1.5,1.5-3.4c-1.1-2.5-3.6-5.2,1-7.1c0.4-0.2-2.9-1.2-1.9-3.4
		l1.5-1.5c4.7-0.5,7.8,1.9,6.5,6.1c-1.6,5.2,3.3,10.9-1.9,15.4c-0.8,0.7,0,2,0.9,2.4C659.9,840.4,664.5,848.7,673.9,847z"/>
	<path id="Path_45" class="st1" d="M468.9,391.1c4.9-2,5.2-6.4,3.4-9.9c-4-7.5,0.1-12.6,4.8-16.9c6.8-6.3,8-9.8,4-18.4
		c-1.4-2.8-2.5-5.8-3.2-8.9c-0.5-2.8-0.8-5.5,3.5-6.7c4.4-1.1,6.9-5.1,2.7-8.8c-9.2-8.1-7.3-18.1-7.6-28.7
		c-0.2-8.5-1.1-16.9-2.6-25.3c-0.5-2.1-0.2-4.4,0.9-6.3c2.8-0.1,2.2,1.4,1.4,3c1.7,8.4-0.9,17.2,3.3,25.6c1.6,3.3-0.3,8.5-1.3,12.8
		c-1.1,4.8-0.3,8.6,3.6,11.8c1.9,1.6,3.5,3.4,4.8,5.5c2.5,4,2.5,9.5-1.3,11.1c-9.2,4-4,9.2-1.7,13.4c4.2,7.8,3.5,14.8-3.1,20.7
		c-5,4.4-8.6,9-5.1,16.6c1.8,3.9-1.4,8.5-2.9,12.5c-1.5,3.8-4.3-2.1-6.7-0.2C463.9,390,467.4,391.5,468.9,391.1z"/>
	<path id="Path_46" class="st1" d="M36.6,982.6c-2.1-9.1,4.8-13.3,10.2-18c2.4-2.1,3.7-2.8,2.3-6.7c-2.1-6.1-1.8-12.8,4-17.5
		c3.7-3,4.2-6,1.7-10.1c-1.2-2-1.5-4.6-1.9-7c-0.8-4.4-3.9-10.4,5.7-7.4c3.3,1.1,7.1-2.6,6.8-5.3c-0.8-7.8,5.4-12.7,6.8-19.5
		c0.7-3.7,3.3-7,1.9-11.3c-0.8-2.4,1.6-3.2,3.7-3.4c1.4-0.5,1.8,0.1,1.5,1.5c-3.2,3.3-2.6,8.1-3.9,12c-2.3,7.1-6.6,13.4-7.5,21
		c-0.5,4.4-3,7.4-7.9,6.8c-5.4-0.7-6.1,2.3-4.2,5.9c4.8,9.3,4,16.8-4.4,23.9c-3.5,3-1.4,7.9,1.3,11.3c1.9,2.3,1.8,4.4-0.6,5.4
		c-8.6,3.9-13.5,10.3-14.2,19.8L36.6,982.6z"/>
	<path id="Path_47" class="st1" d="M395,776.1c-1.7-0.1-3.4,0-5.1,0.1c-3.4,0.6-5,1.2-2.2,5.5c6.4,9.6,6.1,10.9-3.7,17.1
		c-3.7,2.3-0.8,3.2,0,3.9c3.9,3.2,4.2,6.4,2.1,10.9c-2.8,6,1.5,12,8.4,12.6c2.3,0.2,5.8-0.9,6.6,1.7c0.9,2.9-2.5,4.2-4.5,5.8
		l-1.5-1.5c2.2-2.3,2.6-3.8-1.4-4.5c-8.8-1.4-12.2-6-10.2-14.5c1-3.9,0.5-6.3-2.3-9c-2.8-2.8-6.1-5.9,1.4-7.9
		c4.6-1.2,7.9-4.5,3.8-10.3c-2.7-3.5-3.4-8.1-2.1-12.2c1.7-6-3.2-9.3-9.4-7.4c-0.7,0.3-1.4,0.6-2,0.9c-2.7,1.3-6.1,3-7.8-0.3
		c-2.3-4.4,3.7-3.2,4.9-5.6c0.5-0.5,1.2-0.7,1.8-0.5c1.2,0.4,2.3,1.1,3.5,0.9c5.8-0.9,10.6-0.4,12.7,6.5c0.8,2.5,4,3.4,6.1,5.1
		C394.9,774.1,395.6,774.9,395,776.1z"/>
	<path id="Path_48" class="st1" d="M288.9,873.5c-9.3,1.4-18.8-1.7-25.4-8.3c-5.6-5.3-10.1-9.8-19.2-6.8c-9.7,3.2-18.5-2.6-26.5-7.6
		c-4.5-2.8-8.6-6.2-13.5-8.3c-4.2-1.8-0.1-8.1-5.3-8.9c0.5-0.5,1-1,1.5-1.5c1.8,0.2,3.6,0.9,4.1,2.7c2.4,9.8,12.1,11.5,18.9,15.6
		c3.6,2.2,7.3,6,12.7,6c4,0,7.3,1.5,11.3-1.9c3.6-3,8,1.4,11.6,3.3c9.4,4.9,16.7,13.9,28.4,14.4C287.9,872.6,288.4,873,288.9,873.5z
		"/>
	<path id="Path_49" class="st1" d="M370,669.8l-1.6,0c-7.4-2-13.5-5.6-17.6-12.3c-1.1-1.8-1.8-3.4-5-1.9c-5,2.4-8.8,0.7-8.4-5.6
		c0.3-4.3-1.4-5.8-5.5-7.7c-6.9-3.1-10.6-10.7-16.7-15.3l1.5-1.5c7.9,4.2,11.9,13.4,20.9,16.3c2,0.7,2.6,4,2.6,6.5
		c0,4.8,1.5,7,5.8,3c4.1-3.7,4.8-2.5,5.8,2.5c1.4,7.5,11.9,12.9,17.9,9.9C371.7,665.8,371.5,667.8,370,669.8z"/>
	<path id="Path_50" class="st1" d="M79.3,877.8l-1.5-1.5c1.4-1.6,2.6-4.3,4.4-4.7c10.4-2.6,6.7-9.7,4.1-14.9
		c-2.1-4.1-7.6-5.8-12.4-4c-4.6,1.7-8.3,2.3-11.9-1.5c-1.9-2-4.6-1.2-7-1.4c-3.2-0.3-4.8-1.3-2.3-4.5c0.5,0.5,1,1,1.6,1.6
		c3.3-0.3,6.7,0.2,9.1,2.1c3.8,3,6.5,2.5,10.4,0.1c4.4-2.7,10.1,0.8,12.3,2.9c3.9,3.8,5.4,10.2,7.7,15.6c0.2,0.5-1.3,2.3-2.2,2.5
		C86.3,870.9,83.4,875.3,79.3,877.8z"/>
	<path id="Path_53" class="st1" d="M679.7,450c-10.1,0.7-20.1,4.1-30.1,2.6c-9.4-1.4-12.4,5.5-17.5,10.2c-1,1.1-1.8,2.2-2.6,3.5
		c-0.5-0.5-1-1-1.6-1.5c4.6-8.7,10.4-15.2,21.7-15c9,0.2,17.9-2.8,27-1.2C678.4,447.8,679.9,447.3,679.7,450z"/>
	<path id="Path_72" class="st1" d="M712.2,371.9c-2.9-7.9-0.6-15.2,2.9-22.3l1.5,1.5c-2.2,6.2-3.1,12.7-2.9,19.2L712.2,371.9z"/>
	<path id="Path_87" class="st1" d="M560.3,820.4c-5-1.1-7.8-4.9-10.3-8.9c-0.1-2.8,1.5-2.5,3-1.5c1.8,1.1,3.3,2.7,4.3,4.5l0,0
		C557.7,816.7,562.7,816.7,560.3,820.4L560.3,820.4z"/>
	<path id="Path_103" class="st1" d="M42.4,1072.5c-2.4,2.6-3.4,7.9-8.8,4.6C36.3,1075,38.5,1072.2,42.4,1072.5z"/>
	<path id="Path_128" class="st1" d="M674.8,946.2c-2.1-0.5-3.5-1.4-3.2-3.8c0.1-0.4,1.2-1,1.7-0.8
		C675.8,942.3,675.6,944.1,674.8,946.2z"/>
	<path id="Path_153" class="st1" d="M773.6,117.7c-0.3-0.3-1-0.7-1.2-1.2c-0.3-0.9,0.4-1.2,1.1-1.1c0.6,0.1,1.2,0.5,1.5,1.1
		C775.2,117.2,774.7,117.7,773.6,117.7z"/>
	<path id="Path_160" class="st1" d="M389.2,839.6c0.3-3.9,2.5-2.3,4.4-1.5C392.5,839.8,390.8,839.5,389.2,839.6z"/>
	<path id="Path_164" class="st1" d="M840.6,537c-0.5-0.5-1-0.9-1.6-1.4c1.1-1.6,1.7-3.6,1.7-5.5c-0.1-3.9,0.7-5.7,5.8-6
		c5.9-0.3,10.5-5.8,17-6.7c3.5-0.5,5.8,0,7.7,2c3.5,3.6,6.4,7.7,11.5,9.5c1.8,0.6,1.4,2.1,0,3.4c-3.7,3.8-0.5,7.3,1.4,10.2
		c2.4,3.6,6,2.2,9.2,0.7c8.3-4,16.1-0.4,17.8,8.8c1,5.2,2.4,7.6,7.4,4c2.1-1.4,4.7-1.8,7.1-1c8.1,2.7,13.6-1.7,18.2-7
		c4.3-4.9,7.5-3,11,0.4c3.7,3.6,6.8,9.5,12,1.4c1.3-2.1,4,0.3,6.2,0.2c8.3-0.4,16.6-4.2,24.9,0.4c1.9,1.1,4.2-0.3,6.1-1.7
		c2.2-1.6,4.2-1.6,4.5,1.9c-1.1,1.3-2.4,2.3-3.8,3.2c-1.5,1-3.4,1.8-4.9,1.2c-8.6-3.7-17.3,0.2-25.9-0.2c-1.5-0.1-3.3-0.4-4.2,0.7
		c-5.9,7.1-11.6,2.1-16-1.1c-4.5-3.2-7.7-2.9-10.7,0.7c-4.8,5.8-10.3,6.8-17,4.3c-2-0.7-3.7,0.6-5.5,1.3c-6.7,2.9-11.2,1-13.9-5.8
		c-2.6-6.6-5.8-8.6-11.5-7.3c-12,2.8-16.7-0.3-18.9-12.5c-1.8-9.9-8.1-14.3-17.4-10.8c-5.7,2.2-12.9,3.5-14.8,11.3
		c-0.3,1.3-1.6,2.1-2.9,1.8C841,537.2,840.8,537.1,840.6,537z"/>
	<path id="Path_166" class="st1" d="M1004.3,551.8c1.1-1.6,2.8-1.3,4.4-1.4c4.5,5.5,4.4,11-0.6,16.7c3.5,1.4,10.5,1.5,3.1,7.2
		c-1.7,1.3-1.1,4.1,1.1,4.8c8.8,3.2,8.9,10.9,9.5,18.2c0.4,3.8-2.2,5.8-5.8,6.2c-9.7,1-13,9.1-17.1,16c-1.4,2.4-0.4,5.2,1,7.7
		c-0.5,0.5-1,1.1-1.5,1.6c-4.1,1.5-3.8-1.8-4.1-4c-0.9-5.5,5.6-18.2,10.8-21.3c1.5-0.9,3-1.6,4.5-2.4c7.9-4.4,9-10.6,2.2-16.5
		c-7.6-6.6-8.3-14.5-5.6-23C1007.4,557.5,1004.8,555,1004.3,551.8z"/>
	<path id="Path_173" class="st1" d="M839.1,789.4c-9.8,0.7-19.2-4.3-29-2.8c-9.1,1.3-18.5,2.8-23,12.5c-4.2,9-12.5,8.4-20.2,9.4
		c-1.1-1.7-2.9-1.3-4.5-1.4c3.4-3.1,8-2.3,11.8-2.3c4.8,0,7-2,9.2-5.5c7-10.7,16.3-14.8,29.7-15.3c9.5-0.4,17.2,4.4,26,3.9
		C839.1,788.3,839.1,788.9,839.1,789.4z"/>
	<path id="Path_174" class="st1" d="M852.3,724.5c-1.4-0.3-3.1-0.6-2.1-2.6c1-2.1,2.6-3.3,5.1-2C855.6,722.4,853.2,723,852.3,724.5z
		"/>
	<path id="Path_175" class="st1" d="M371.5,761.4l-1.6,0c-1.4-9.5,6.7-14.4,10.6-21.4c1.5-2.6,4-4.8,5.4-7.7c1.6-3.3,3.8-6,7.9-4.6
		c3.4,1.1,4.2-1.4,5.6-3.3l4.4,2.9c-2.6,3.4-5.4,6.2-10.3,5.3c-2.8-0.5-3.6,1.7-4.8,3.5C383,744.6,377.2,753,371.5,761.4z"/>
	<path id="Path_176" class="st1" d="M476.2,264.3c-0.1-1.2-0.3-2.3-1.4-3c-0.9-6.4,0.6-11.7,5.3-16.5c3.4-3.5,6.6-6.4,11.9-5.7
		c2.5,0.3,5.3,0.8,6.6-2.9c1.2-3.4,0.4-6-2-7.8c-2.9-2.2-3.9-5.1-2.1-7.6c8.4-11.5,6.6-24.7,6.9-37.6c0.5-0.5,0.9-1,1.4-1.5
		c3,11.6,1.9,23.8-3.1,34.7c-2,4.4-4.5,7.4,0.3,11.9c2.9,2.6,1.7,7.3,0.4,11.1c-1.3,3.9-4.6,2.8-7.4,2.9
		c-7.7,0.2-14.7,6.9-15.4,14.6C477.4,259.2,478.5,262.1,476.2,264.3z"/>
	<path id="Path_177" class="st1" d="M411.1,725.9c9.5-10.1,19.6-1.1,29.3-0.4c3.8,0.3,9,0.3,11.3,5.6c0.8,1.8,3.6,0.4,4.7-1.5
		c1.2-2.3,4-3.2,6.4-2c0,0,0,0,0,0c10,5.8,18-1.5,26.9-3.4c4.8-1,9.3-4.4,14.4-1.2c2.8,1.8,5.4,3.7,4.3,7.7
		c-0.7,0.3-1.7,0.8-2.1,0.3c-8.3-8.3-16.4-2.3-24.2,0.6c-5.4,2-10.5,4-16.2,1.2c-2-1-4.7-1.5-6.2,0.5c-4.7,6.7-9.2,4.5-13.9-0.5
		c-2.8,6.9,3.6,9.2,5.6,13.3c-0.2,1-0.9,1.9-1.9,2.4c-11-1.5-14.4-5.6-12.8-15.8c0.2-1.6,0.5-3.4-1.3-3.5
		c-5.8-0.4-11.2-5.5-17.5-1.7c-1.5,0.9-3.3,1.1-4.9,0.7C412.1,727.8,411.4,726.9,411.1,725.9z"/>
	<path id="Path_178" class="st1" d="M508.6,730.3l-4.4-7.3c2.5-3,1.7-5.4-0.8-8.2c-3-3.4-2.8-6.6,1.9-8.5c5.2-2.1,8.1-6.5,10.7-11.1
		c-0.1,1.1,0.4,2.2,1.4,2.8c2.1,4-1,6.4-3.4,7.7c-6.2,3.3-6.1,7.5-3.5,13c1.4,2.8,2.3,6,1,9.3C511.1,729.2,510.7,730.8,508.6,730.3z
		"/>
	<path id="Path_179" class="st1" d="M411.1,725.9c0.5,0.5,1.1,1,1.6,1.5c-1.9,2.7-3.9,4.7-5.9,0.1c0.5-0.5,1-1,1.5-1.5L411.1,725.9z
		"/>
	<path id="Path_180" class="st1" d="M395,776.1c-0.5-0.5-1.1-1-1.6-1.5c0-0.2-0.1-0.7,0-0.7c7.4-2.7,14.2-5.9,18.1-13.6
		c1.4-2.8,5.5-1.9,7.5,0.9c2.5,3.6,5.7,6.6,7.9,10.3c0.5-4.7,3.9-8,5.6-12.1c0.7-1.9,2.8-2.8,4.6-2.1c0.1,0,0.2,0.1,0.3,0.2
		c4.1,2.5,9.2,1.5,13,4.6c1.5,1.3,1.8,3.6,0.6,5.2c-3.8-4.5-10.7,0.5-14.6-4.7c-0.3-0.4-2.2,3.3-3.3,5.1c-2,3.6-3,9.5-5.8,10.5
		c-4.9,1.8-3.5-6.2-7.6-8c-2.1-0.9-3.2-4.1-5.7-7.4C411.9,773.9,404.7,777,395,776.1z"/>
	<path id="Path_181" class="st1" d="M449.6,748.1l1.6-1.6c2.1-5.4,5.5-6.6,10.3-3.2c3.6,2.6,6.9,2.8,10.8,0.3c2.4-1.6,5.4-2.1,8.2-3
		c10.9-3.5,10.9-3.6,17.6,5.6c1.8,2.7,4.8,4.3,8.1,4.3c3.9,0.1,7.8,0.4,11.7,0.3c2.2,0,5.2-0.7,5.6,3l-1.6,1.5
		c-6.5,0.9-12.8-1.2-19.5-0.4c-5.8,0.7-7.8-5.9-11.1-9.5c-1-1.1-0.8-3.9-3.3-2.5c-5.5,3.1-12.6,1.8-17.4,6.8c-1.8,1.8-4,1.4-6.1,0.5
		c-3-1.2-5.8-1.2-7.4,2.2c-0.6,0.4-1.3,0.4-1.9,0.2C453.9,750.4,449.9,751.6,449.6,748.1z"/>
	<path id="Path_182" class="st1" d="M455.6,752.5h1.5c2.2,6.2,2.2,6.4-3.1,5.7c-2.4-0.3-2.6,0.9-2.3,2.3c0.5,2.3,1.9,4.6-0.6,6.7
		c0-1.7,0.2-3.5-1.6-4.5C447.3,755.3,448.2,753.8,455.6,752.5z"/>
	<path id="Path_192" class="st1" d="M582.4,752.5c7-1.6,11,4.1,13.5,8.1c3.5,5.8,8.3,6.7,13.6,8c1.4,0.3,3,0.2,4,1.5l-1.5,1.5
		c-6.6-2.1-14-1.5-18.5-9.2c-2.6-4.4-8.1-7.6-13.9-8.5C580.6,754.1,581.8,753.5,582.4,752.5z"/>
	<path id="Path_193" class="st1" d="M718.1,475.2c-1.2,7.5-6.5,14.1-4.5,22.2c-3.1,2.5,1.8,3.9,0.7,6.5c-2.4,0.3-3.9-3.1-6.6-2.1
		c2.6-1.5,4-4.4,3.5-7.4c-2.4-8.7,2.6-14.4,6.9-20.6c0.5,0.3,0.7,0.6,0.5,0.9C718.5,475,718.3,475.2,718.1,475.2z"/>
	<path id="Path_194" class="st1" d="M724,830.7c-2.2-3-5.2-5-8.3-7c-6.2-4-7.8-9-5-16.6l1.6,1.5c-0.7,6.4,0.7,11.8,7.6,14.1
		c3.1,1.1,4.4,3.7,5.7,6.4L724,830.7z"/>
	<path id="Path_195" class="st1" d="M679.7,450c-0.6-1.2-1.8-1.4-3-1.5c6-6.6,12.7-3.5,19.3-1.4l4.4,2.9c-4.1-0.5-8.4,2.8-12.2-2.6
		C686,444.3,683.5,451.7,679.7,450z"/>
	<path id="Path_196" class="st1" d="M718.1,475.2c0-0.5,0-0.9,0-1.4c3.4,0,4.6-3.5,7.4-4.5C725.1,473.7,722.7,475.9,718.1,475.2z"/>
	<path id="Path_199" class="st1" d="M368.5,661.1c0,0.5,0,0.9,0.1,1.4c-2.3-2.4-2.2-4.9-0.1-7.4
		C368.4,657.1,368.5,659.1,368.5,661.1z"/>
</g>
</svg>
