<?xml version="1.0" encoding="utf-8"?>
<!-- Generator: Adobe Illustrator 26.5.0, SVG Export Plug-In . SVG Version: 6.00 Build 0)  -->
<svg version="1.1" id="Laag_1" xmlns="http://www.w3.org/2000/svg" xmlns:xlink="http://www.w3.org/1999/xlink" x="0px" y="0px"
	 viewBox="0 0 150 150" style="enable-background:new 0 0 150 150;" xml:space="preserve">
<style type="text/css">
	.Slagschaduw{fill:none;}
	.Afgeronde_x0020_hoeken_x0020_2_x0020_pt{fill:#FFFFFF;stroke:#1D1D1B;stroke-miterlimit:10;}
	.X_x0020_actief_x0020_weerspiegelen{fill:none;}
	.Zachte_x0020_schuine_x0020_kant{fill:url(#SVGID_1_);}
	.Schemering{fill:#FFFFFF;}
	.Gebladerte_AS{fill:#FFDD00;}
	.Pompadoer_AS{fill-rule:evenodd;clip-rule:evenodd;fill:#51AEE2;}
</style>
<linearGradient id="SVGID_1_" gradientUnits="userSpaceOnUse" x1="0" y1="0" x2="0.7071" y2="0.7071">
	<stop  offset="0" style="stop-color:#E6E6EB"/>
	<stop  offset="0.1754" style="stop-color:#E2E2E7"/>
	<stop  offset="0.3552" style="stop-color:#D6D6DB"/>
	<stop  offset="0.5371" style="stop-color:#C2C3C6"/>
	<stop  offset="0.7204" style="stop-color:#A5A7A9"/>
	<stop  offset="0.9031" style="stop-color:#818485"/>
	<stop  offset="1" style="stop-color:#6B6E6E"/>
</linearGradient>
<g>
	<path d="M110.7,38.8c-7.8,0-14.1,6.3-14.1,14.1S102.9,67,110.7,67c7.8,0,14.1-6.3,14.1-14.1S118.5,38.8,110.7,38.8z"/>
	<path d="M110.7,33.1c-1.2,0-2.3-1-2.3-2.3v-6.6c0-1.2,1-2.3,2.3-2.3s2.3,1,2.3,2.3v6.6C113,32.1,112,33.1,110.7,33.1L110.7,33.1z"
		/>
	<path d="M96.8,39c-0.9,0.9-2.3,0.9-3.2,0L89,34.4c-0.9-0.9-0.9-2.3,0-3.2c0.9-0.9,2.3-0.9,3.2,0l4.6,4.7
		C97.7,36.7,97.7,38.1,96.8,39z"/>
	<path d="M91.1,53.1c0,1.3-1,2.3-2.2,2.3h-6.6c-1.2,0-2.2-1-2.2-2.3c0-1.3,1-2.3,2.2-2.3h6.6C90.1,50.8,91.1,51.8,91.1,53.1z"/>
	<path d="M97,67.1c0.9,0.9,0.9,2.3,0,3.2L92.3,75c-0.9,0.9-2.3,0.9-3.2,0c-0.9-0.9-0.9-2.3,0-3.2l4.6-4.7
		C94.7,66.2,96.1,66.2,97,67.1z"/>
	<path d="M110.9,72.9c1.2,0,2.3,1,2.3,2.3v6.6c0,1.2-1,2.3-2.3,2.3c-1.2,0-2.3-1-2.3-2.3v-6.6C108.7,73.9,109.7,72.9,110.9,72.9z"/>
	<path d="M124.9,67c0.9-0.9,2.3-0.9,3.2,0l4.6,4.7c0.9,0.9,0.9,2.3,0,3.2c-0.9,0.9-2.3,0.9-3.2,0l-4.6-4.7
		C124,69.3,124,67.9,124.9,67z"/>
	<path d="M130.6,52.9c0-1.3,1-2.3,2.2-2.3h6.6c1.2,0,2.2,1,2.2,2.3c0,1.3-1,2.3-2.2,2.3h-6.6C131.6,55.2,130.6,54.2,130.6,52.9z"/>
	<path d="M124.7,38.9c-0.9-0.9-0.9-2.3,0-3.2l4.6-4.7c0.9-0.9,2.3-0.9,3.2,0c0.9,0.9,0.9,2.3,0,3.2l-4.6,4.7
		C127,39.8,125.6,39.8,124.7,38.9L124.7,38.9z"/>
</g>
<path d="M134.3,148c-0.1-0.6-2.2-12.3-11-24.2c-8.2-10.9-23.9-24-51.9-24s-43.6,13.1-51.7,24c-8.9,12-11,23.8-11.2,24.2
	c-0.1,0.6,0,1,0.4,1.4c0.3,0.4,0.8,0.6,1.4,0.6h122.3c0.6,0,1-0.3,1.4-0.6C134.1,149.2,134.3,148.6,134.3,148L134.3,148z"/>
<path d="M73,101.4c0-0.4-1.5-11.6-7.8-24.6C61.1,68.4,54.4,58.2,43.8,50C50.2,37.5,67,27.8,67.3,27.7c0.7-0.4,1.1-1.4,0.7-2.1
	c-0.3-0.8-1.1-1.3-2-1.1C43,30.1,36,39.7,33.9,43.9c-0.4-0.1-0.8-0.4-1.3-0.6c3.1-6.4,14.8-13.4,19.3-15.7c0.7-0.4,1.1-1.1,1-2
	c-0.1-0.8-0.8-1.4-1.7-1.4c-19.3,0-24.5,12.3-25.7,16.6c-3.8,0.3-13.4,2.8-17.1,20.4c-0.1,0.8,0.3,1.7,1.1,2
	c0.3,0.1,0.4,0.1,0.6,0.1c0.6,0,1.3-0.3,1.5-1c0-0.1,2.5-4.8,7.3-8.4c-4.3,5-8.5,13-10.5,25.9c-0.1,0.8,0.4,1.7,1.3,2h0.4
	c0.7,0,1.4-0.4,1.7-1.1c0.1-0.1,7.3-19.9,24.7-23.9c7.3,10.3,15.7,26.4,17.2,46.3c0,1,0.8,1.7,1.7,1.7h0.1h0.3
	c4.9-1,10.1-1.5,15.5-1.5c0.6,0,1-0.3,1.3-0.6C73,102.3,73.2,101.9,73,101.4L73,101.4z"/>
</svg>
