<?xml version="1.0" encoding="utf-8"?>
<!-- Generator: Adobe Illustrator 26.5.0, SVG Export Plug-In . SVG Version: 6.00 Build 0)  -->
<svg version="1.1" id="Laag_1" xmlns="http://www.w3.org/2000/svg" xmlns:xlink="http://www.w3.org/1999/xlink" x="0px" y="0px"
	 viewBox="0 0 150 150" style="enable-background:new 0 0 150 150;" xml:space="preserve">
<style type="text/css">
	.Slagschaduw{fill:none;}
	.Afgeronde_x0020_hoeken_x0020_2_x0020_pt{fill:#FFFFFF;stroke:#1D1D1B;stroke-miterlimit:10;}
	.X_x0020_actief_x0020_weerspiegelen{fill:none;}
	.Zachte_x0020_schuine_x0020_kant{fill:url(#SVGID_1_);}
	.Schemering{fill:#FFFFFF;}
	.Gebladerte_AS{fill:#FFDD00;}
	.Pompadoer_AS{fill-rule:evenodd;clip-rule:evenodd;fill:#51AEE2;}
</style>
<linearGradient id="SVGID_1_" gradientUnits="userSpaceOnUse" x1="0" y1="0" x2="0.7071" y2="0.7071">
	<stop  offset="0" style="stop-color:#E6E6EB"/>
	<stop  offset="0.1754" style="stop-color:#E2E2E7"/>
	<stop  offset="0.3552" style="stop-color:#D6D6DB"/>
	<stop  offset="0.5371" style="stop-color:#C2C3C6"/>
	<stop  offset="0.7204" style="stop-color:#A5A7A9"/>
	<stop  offset="0.9031" style="stop-color:#818485"/>
	<stop  offset="1" style="stop-color:#6B6E6E"/>
</linearGradient>
<path d="M98,118.3H52l-9,18.1c-1.3,2.6-4.4,3.6-7,2.3c-2.6-1.3-3.6-4.4-2.3-7l7.4-14.9c-7.8-3.1-13.2-10.7-13.2-19.5V31.7
	c0-11.6,9.4-21,21-21h52.5c11.6,0,21,9.4,21,21v65.6c0,8.9-5.5,16.4-13.2,19.5l7.4,14.9c1.3,2.6,0.2,5.7-2.3,7
	c-2.6,1.3-5.7,0.2-7-2.3L98,118.3z M111.7,31.7c0-5.8-4.7-10.5-10.5-10.5H48.8c-5.8,0-10.5,4.7-10.5,10.5v34.1h73.5L111.7,31.7z
	 M38.3,97.3c0,5.8,4.7,10.5,10.5,10.5h52.5c5.8,0,10.5-4.7,10.5-10.5v-21H38.3L38.3,97.3z M56.6,99.9c-4.3,0-7.9-3.5-7.9-7.9
	c0-4.3,3.5-7.9,7.9-7.9s7.9,3.5,7.9,7.9C64.5,96.4,61,99.9,56.6,99.9z M93.4,99.9c-4.3,0-7.9-3.5-7.9-7.9c0-4.3,3.5-7.9,7.9-7.9
	c4.3,0,7.9,3.5,7.9,7.9C101.2,96.4,97.7,99.9,93.4,99.9z M61.9,139.3c-2.9,0-5.2-2.3-5.2-5.2c0-2.9,2.3-5.2,5.2-5.2h26.2
	c2.9,0,5.2,2.3,5.2,5.2c0,2.9-2.3,5.2-5.2,5.2H61.9z"/>
</svg>
