<?xml version="1.0" encoding="utf-8"?>
<!-- Generator: Adobe Illustrator 26.5.0, SVG Export Plug-In . SVG Version: 6.00 Build 0)  -->
<svg version="1.1" id="Laag_1" xmlns="http://www.w3.org/2000/svg" xmlns:xlink="http://www.w3.org/1999/xlink" x="0px" y="0px"
	 viewBox="0 0 150 150" style="enable-background:new 0 0 150 150;" xml:space="preserve">
<style type="text/css">
	.Slagschaduw{fill:none;}
	.Afgeronde_x0020_hoeken_x0020_2_x0020_pt{fill:#FFFFFF;stroke:#1D1D1B;stroke-miterlimit:10;}
	.X_x0020_actief_x0020_weerspiegelen{fill:none;}
	.Zachte_x0020_schuine_x0020_kant{fill:url(#SVGID_1_);}
	.Schemering{fill:#FFFFFF;}
	.Gebladerte_AS{fill:#FFDD00;}
	.Pompadoer_AS{fill-rule:evenodd;clip-rule:evenodd;fill:#51AEE2;}
</style>
<linearGradient id="SVGID_1_" gradientUnits="userSpaceOnUse" x1="0" y1="0" x2="0.7071" y2="0.7071">
	<stop  offset="0" style="stop-color:#E6E6EB"/>
	<stop  offset="0.1754" style="stop-color:#E2E2E7"/>
	<stop  offset="0.3552" style="stop-color:#D6D6DB"/>
	<stop  offset="0.5371" style="stop-color:#C2C3C6"/>
	<stop  offset="0.7204" style="stop-color:#A5A7A9"/>
	<stop  offset="0.9031" style="stop-color:#818485"/>
	<stop  offset="1" style="stop-color:#6B6E6E"/>
</linearGradient>
<path d="M75,13.1c-1.1,0-2.1,0.5-2.9,1.3c-0.8,0.8-1.2,1.9-1.2,3v16.5c0,1.1,0.4,2.2,1.2,3c0.8,0.8,1.8,1.2,2.9,1.2
	c1.1,0,2.2-0.4,2.9-1.2c0.8-0.8,1.2-1.8,1.2-3V17.3c0-1.1-0.4-2.2-1.2-3C77.2,13.6,76.2,13.1,75,13.1L75,13.1z M32.1,28.3L32.1,28.3
	c-1,0.1-2,0.6-2.7,1.4c-0.7,0.8-1,1.8-1,2.9c0,1,0.5,2,1.2,2.8L42,47.7v0c0.7,0.9,1.8,1.4,3,1.4c1.1,0,2.2-0.4,3-1.2
	c0.8-0.8,1.2-1.9,1.2-3c0-1.1-0.5-2.2-1.4-3L35.5,29.5h0C34.6,28.6,33.3,28.1,32.1,28.3L32.1,28.3z M117.1,28.3
	c-0.9,0.1-1.8,0.6-2.4,1.2l-12.3,12.4c-0.9,0.8-1.4,1.8-1.4,3c0,1.1,0.4,2.2,1.2,3c0.8,0.8,1.9,1.2,3,1.2c1.1,0,2.2-0.5,3-1.4
	l12.3-12.4l0,0c0.8-0.8,1.3-1.9,1.2-3.1c0-1.2-0.6-2.2-1.4-3C119.4,28.5,118.3,28.1,117.1,28.3L117.1,28.3z M75.1,40.7
	c-18.9,0-34.3,15.4-34.3,34.3s15.4,34.3,34.3,34.3c18.9,0,34.3-15.4,34.3-34.3S94,40.7,75.1,40.7z M75.1,48.9
	c14.4,0,26.1,11.6,26.1,26.1s-11.6,26.1-26.1,26.1C60.6,101.1,49,89.5,49,75S60.6,48.9,75.1,48.9L75.1,48.9z M17,70.9
	c-1.1,0.1-2.1,0.5-2.8,1.4c-0.7,0.8-1.1,1.9-1.1,3c0.1,1.1,0.5,2.1,1.4,2.9c0.8,0.7,1.9,1.1,3,1.1h16.5h0c1.1,0,2.2-0.4,2.9-1.2
	c0.8-0.8,1.2-1.8,1.2-2.9c0-1.1-0.4-2.2-1.2-2.9c-0.8-0.8-1.8-1.2-2.9-1.2H17.5h0C17.3,70.9,17.2,70.9,17,70.9L17,70.9z M115.8,70.9
	c-1.1,0.1-2.1,0.5-2.8,1.4c-0.7,0.8-1.1,1.9-1.1,3c0.1,1.1,0.5,2.1,1.4,2.9c0.8,0.7,1.9,1.1,3,1.1h16.5c1.1,0,2.2-0.4,2.9-1.2
	c0.8-0.8,1.2-1.8,1.2-2.9c0-1.1-0.4-2.2-1.2-2.9c-0.8-0.8-1.8-1.2-2.9-1.2h-16.5C116.1,70.9,116,70.9,115.8,70.9L115.8,70.9z
	 M44.4,101.1L44.4,101.1c-0.9,0.1-1.8,0.6-2.4,1.2l-12.3,12.4c-0.9,0.8-1.4,1.8-1.4,3c0,1.1,0.4,2.2,1.2,3c0.8,0.8,1.9,1.2,3,1.2
	c1.1,0,2.2-0.6,3-1.4l12.3-12.4h0c0.8-0.8,1.3-1.9,1.2-3.1c0-1.2-0.6-2.2-1.4-3C46.7,101.3,45.6,100.9,44.4,101.1L44.4,101.1z
	 M104.8,101.1L104.8,101.1c-1,0.1-2,0.6-2.7,1.4s-1,1.8-1,2.9c0,1,0.5,2,1.2,2.8l12.3,12.4c0.7,0.9,1.8,1.4,3,1.4
	c1.1,0,2.2-0.4,3-1.2c0.8-0.8,1.2-1.9,1.2-3c0-1.1-0.5-2.2-1.4-3l-12.3-12.4h0C107.3,101.4,106.1,100.9,104.8,101.1L104.8,101.1z
	 M75,112L75,112c-1.1,0-2.1,0.5-2.9,1.3c-0.8,0.8-1.2,1.9-1.2,3v16.5c0,1.1,0.4,2.2,1.2,3c0.8,0.8,1.8,1.2,2.9,1.2
	c1.1,0,2.2-0.4,2.9-1.2c0.8-0.8,1.2-1.8,1.2-3v-16.5c0-1.1-0.4-2.2-1.2-3C77.2,112.4,76.2,112,75,112L75,112z"/>
</svg>
