<?xml version="1.0" encoding="utf-8"?>
<!-- Generator: Adobe Illustrator 26.5.0, SVG Export Plug-In . SVG Version: 6.00 Build 0)  -->
<svg version="1.1" id="Laag_1" xmlns="http://www.w3.org/2000/svg" xmlns:xlink="http://www.w3.org/1999/xlink" x="0px" y="0px"
	 viewBox="0 0 600 600" style="enable-background:new 0 0 600 600;" xml:space="preserve">
<g>
	<path d="M428.7,300c0-34.1-13.6-66.9-37.7-91c-24.1-24.1-56.9-37.7-91-37.7s-66.9,13.6-91,37.7c-24.1,24.1-37.7,56.9-37.7,91
		s13.6,66.9,37.7,91c24.1,24.1,56.9,37.7,91,37.7s66.9-13.6,91-37.7C415.1,366.9,428.7,334.1,428.7,300z M300,402.7
		c-27.2,0-53.4-10.8-72.6-30.1c-19.3-19.3-30.1-45.4-30.1-72.6c0-27.2,10.8-53.4,30.1-72.6c19.3-19.3,45.4-30.1,72.6-30.1
		c27.2,0,53.4,10.8,72.6,30.1c19.3,19.3,30.1,45.4,30.1,72.6c0,27.2-10.8,53.4-30.1,72.6C353.4,391.9,327.2,402.7,300,402.7z"/>
	<path d="M313,576.9v-91.6c0-7.2-5.8-13-13-13s-13,5.8-13,13v91.6c0,7.2,5.8,13,13,13S313,584.1,313,576.9z"/>
	<path d="M287,23.1v91.6c0,7.2,5.8,13,13,13c7.2,0,13-5.8,13-13V23.1c0-7.2-5.8-13-13-13C292.8,10.1,287,15.9,287,23.1z"/>
	<path d="M23.1,313h91.6c7.2,0,13-5.8,13-13c0-7.2-5.8-13-13-13H23.1c-7.2,0-13,5.8-13,13C10.1,307.2,15.9,313,23.1,313z"/>
	<path d="M589.9,300c0-3.4-1.4-6.8-3.8-9.2c-2.4-2.4-5.7-3.8-9.2-3.8h-91.6c-7.2,0-13,5.8-13,13s5.8,13,13,13h91.6
		c3.5,0,6.8-1.4,9.2-3.8C588.5,306.8,589.9,303.4,589.9,300L589.9,300z"/>
	<path d="M178.5,421.5c-5.1-5-13.1-5-18.2,0l-65,65c-3,2.3-4.9,5.7-5.2,9.5c-0.3,3.8,1.1,7.4,3.8,10.1c2.7,2.7,6.4,4,10.1,3.8
		c3.8-0.3,7.2-2.2,9.5-5.2l65-65C183.4,434.7,183.4,426.6,178.5,421.5L178.5,421.5z"/>
	<path d="M439.7,178.5l65-65c3.9-5.2,3.4-12.4-1.2-17c-4.6-4.6-11.8-5.1-17-1.2l-65,65c-3,2.3-4.9,5.7-5.2,9.5
		c-0.3,3.8,1.1,7.4,3.8,10.1s6.4,4,10.1,3.8C434,183.4,437.5,181.5,439.7,178.5L439.7,178.5z"/>
	<path d="M160.3,178.5c5.2,3.9,12.4,3.4,17-1.2c4.6-4.6,5.1-11.8,1.2-17l-65-65c-5.2-3.9-12.4-3.4-17,1.2c-4.6,4.6-5.1,11.8-1.2,17
		L160.3,178.5z"/>
	<path d="M495.6,508.6c5.2-0.1,9.9-3.2,11.8-8.1c2-4.8,0.9-10.3-2.7-14l-65-65c-5.2-3.9-12.4-3.4-17,1.2c-4.6,4.6-5.1,11.8-1.2,17
		l65,65C488.9,507.2,492.2,508.6,495.6,508.6L495.6,508.6z"/>
</g>
</svg>
