<?xml version="1.0" encoding="utf-8"?>
<!-- Generator: Adobe Illustrator 26.5.0, SVG Export Plug-In . SVG Version: 6.00 Build 0)  -->
<svg version="1.1" id="Laag_1" xmlns="http://www.w3.org/2000/svg" xmlns:xlink="http://www.w3.org/1999/xlink" x="0px" y="0px"
	 viewBox="0 0 150 150" style="enable-background:new 0 0 150 150;" xml:space="preserve">
<style type="text/css">
	.Slagschaduw{fill:none;}
	.Afgeronde_x0020_hoeken_x0020_2_x0020_pt{fill:#FFFFFF;stroke:#1D1D1B;stroke-miterlimit:10;}
	.X_x0020_actief_x0020_weerspiegelen{fill:none;}
	.Zachte_x0020_schuine_x0020_kant{fill:url(#SVGID_1_);}
	.Schemering{fill:#FFFFFF;}
	.Gebladerte_AS{fill:#FFDD00;}
	.Pompadoer_AS{fill-rule:evenodd;clip-rule:evenodd;fill:#51AEE2;}
	.st0{clip-path:url(#SVGID_00000080886825495483677630000012885040461313225397_);}
</style>
<linearGradient id="SVGID_1_" gradientUnits="userSpaceOnUse" x1="0" y1="0" x2="0.7071" y2="0.7071">
	<stop  offset="0" style="stop-color:#E6E6EB"/>
	<stop  offset="0.1754" style="stop-color:#E2E2E7"/>
	<stop  offset="0.3552" style="stop-color:#D6D6DB"/>
	<stop  offset="0.5371" style="stop-color:#C2C3C6"/>
	<stop  offset="0.7204" style="stop-color:#A5A7A9"/>
	<stop  offset="0.9031" style="stop-color:#818485"/>
	<stop  offset="1" style="stop-color:#6B6E6E"/>
</linearGradient>
<g>
	<defs>
		<rect id="SVGID_00000080177735290372598000000000358038333612159927_" width="150" height="150"/>
	</defs>
	<clipPath id="SVGID_00000119103138592570100000000014186302806798238340_">
		<use xlink:href="#SVGID_00000080177735290372598000000000358038333612159927_"  style="overflow:visible;"/>
	</clipPath>
	<g style="clip-path:url(#SVGID_00000119103138592570100000000014186302806798238340_);">
		<path d="M122.6,130.2c-21.6-9.4-42.6-11-59.6-9.5L49.6,80.9L82.3,70c-5.5-12-17.3-20.3-30.4-21.3c-4.5-0.4-9.1,0.1-13.5,1.4
			l-1.9-5.6c-0.4-1.1-1.5-1.6-2.6-1.3c-1.1,0.4-1.6,1.5-1.3,2.6l1.9,5.6C18.2,58.3,9.1,75.9,12.8,93.2l33-11.1l13.1,38.9
			c-21,2.4-35.1,9-35.4,9.2c-1,0.5-1.4,1.7-0.9,2.7c0.5,1,1.7,1.4,2.7,1c0.5-0.2,46.1-21.6,95.7,0c0.3,0.1,0.5,0.2,0.8,0.2
			C123.9,134.1,124.5,131.1,122.6,130.2L122.6,130.2z"/>
		<path d="M109.3,23.7c-7.2,0-13.1,5.9-13.1,13.1S102.1,50,109.3,50c7.2,0,13.1-5.9,13.1-13.1S116.6,23.7,109.3,23.7z"/>
		<path d="M109.3,18.5c-1.2,0-2.1-0.9-2.1-2.1v-6.1c0-1.2,0.9-2.1,2.1-2.1c1.2,0,2.1,0.9,2.1,2.1v6.1
			C111.4,17.5,110.5,18.5,109.3,18.5L109.3,18.5z"/>
		<path d="M96.4,23.9c-0.8,0.8-2.1,0.8-3,0l-4.3-4.3c-0.8-0.8-0.8-2.2,0-3c0.8-0.8,2.1-0.8,3,0l4.3,4.3
			C97.3,21.8,97.2,23.1,96.4,23.9z"/>
		<path d="M91.1,37c0,1.2-0.9,2.1-2.1,2.1h-6.1c-1.2,0-2.1-0.9-2.1-2.1c0-1.2,0.9-2.1,2.1-2.1H89C90.2,34.9,91.1,35.8,91.1,37z"/>
		<path d="M96.6,50c0.8,0.8,0.8,2.2,0,3l-4.3,4.3c-0.8,0.8-2.1,0.8-3,0c-0.8-0.8-0.8-2.2,0-3l4.3-4.3C94.4,49.2,95.7,49.2,96.6,50z"
			/>
		<path d="M109.5,55.4c1.2,0,2.1,0.9,2.1,2.1v6.1c0,1.2-0.9,2.1-2.1,2.1c-1.2,0-2.1-0.9-2.1-2.1v-6.1
			C107.4,56.3,108.4,55.4,109.5,55.4z"/>
		<path d="M122.4,49.9c0.8-0.8,2.1-0.8,3,0l4.3,4.3c0.8,0.8,0.8,2.2,0,3c-0.8,0.8-2.1,0.8-3,0l-4.3-4.3
			C121.6,52.1,121.6,50.7,122.4,49.9z"/>
		<path d="M127.7,36.8c0-1.2,0.9-2.1,2.1-2.1h6.1c1.2,0,2.1,0.9,2.1,2.1s-0.9,2.1-2.1,2.1h-6.1C128.7,38.9,127.7,38,127.7,36.8z"/>
		<path d="M122.3,23.8c-0.8-0.8-0.8-2.2,0-3l4.3-4.3c0.8-0.8,2.1-0.8,3,0c0.8,0.8,0.8,2.2,0,3l-4.3,4.3
			C124.4,24.6,123.1,24.6,122.3,23.8L122.3,23.8z"/>
	</g>
	<path style="clip-path:url(#SVGID_00000119103138592570100000000014186302806798238340_);" d="M161,153l-168,4c0,0-5.6-20.2,1-27
		c6-6.1,11,0,31-2c16.5-1.6,21-8,47-8s35,5,51,10S161,153,161,153z"/>
</g>
</svg>
