<svg id="Production" xmlns="http://www.w3.org/2000/svg" width="29.89" height="24.917" viewBox="0 0 29.89 24.917">
  <g id="Group_1688" data-name="Group 1688">
    <path id="Path_1120" data-name="Path 1120" d="M9.983,30.937a2.99,2.99,0,1,0,2.99,2.99A2.99,2.99,0,0,0,9.983,30.937ZM31.7,27.17a54.111,54.111,0,0,0-3.239-8.326A3.834,3.834,0,0,0,25.985,12H16.972A3.929,3.929,0,0,0,13.5,14H4.013a1.992,1.992,0,0,0-1.993,1.993V31.934a1.993,1.993,0,0,0,1.993,1.993h.909a5.091,5.091,0,0,1,4.983-5.11,5.09,5.09,0,0,1,4.983,5.11h3.987a4.985,4.985,0,1,1,9.966,0A2.674,2.674,0,0,0,30.906,32.9C32.062,31.486,32.055,28.929,31.7,27.17ZM12.973,23.96a1,1,0,0,1-1,1H6.993a1,1,0,0,1-1-1V20.97a1,1,0,0,1,1-1h4.983a1,1,0,0,1,1,1Zm12.11,1H20.869a1,1,0,0,1-1-1V20.97a1,1,0,0,1,1-1h2.9a1,1,0,0,1,.783.38,9.827,9.827,0,0,1,1.5,3.387A1,1,0,0,1,25.084,24.957Zm-1.147,5.98a2.99,2.99,0,1,0,2.99,2.99A2.99,2.99,0,0,0,23.937,30.937Z" transform="translate(-2.019 -12)" fill="#fff"/>
  </g>
</svg>
