<svg id="Group_1657" data-name="Group 1657" xmlns="http://www.w3.org/2000/svg" width="17.673" height="16.37" viewBox="0 0 17.673 16.37">
  <path id="Path_1090" data-name="Path 1090" d="M11.941,16.912a13.882,13.882,0,0,1-1.49-4.638c2.3-.251,3.893.415,4.745,2.549a.476.476,0,0,0,.916-.208V14.6c-.211-3.149-2.43-4.679-4.793-5.314a2.7,2.7,0,0,1,3.559-.767.52.52,0,0,0,.653-.792c-.884-1.078-4.164-2.522-6.978.451a4.507,4.507,0,0,0-6.438.293l-.006.007a.507.507,0,0,0,.662.751,2.684,2.684,0,0,1,3.459.453A5.846,5.846,0,0,0,2,15.2a.509.509,0,0,0,1,.127c.6-2.162,2.569-3.172,4.906-2.925a18.157,18.157,0,0,0,.489,4.866c-3.057.755-5.223,2.466-5.223,3.372,0,1.183,3.692,2.142,8.247,2.142s8.245-.959,8.245-2.142C19.662,19.5,16.249,17.1,11.941,16.912Z" transform="translate(-1.989 -6.413)" fill="#939393"/>
</svg>
