<?xml version="1.0" encoding="utf-8"?>
<!-- Generator: Adobe Illustrator 26.5.0, SVG Export Plug-In . SVG Version: 6.00 Build 0)  -->
<svg version="1.1" id="Laag_1" xmlns="http://www.w3.org/2000/svg" xmlns:xlink="http://www.w3.org/1999/xlink" x="0px" y="0px"
	 viewBox="0 0 150 150" style="enable-background:new 0 0 150 150;" xml:space="preserve">
<style type="text/css">
	.Slagschaduw{fill:none;}
	.Afgeronde_x0020_hoeken_x0020_2_x0020_pt{fill:#FFFFFF;stroke:#1D1D1B;stroke-miterlimit:10;}
	.X_x0020_actief_x0020_weerspiegelen{fill:none;}
	.Zachte_x0020_schuine_x0020_kant{fill:url(#SVGID_1_);}
	.Schemering{fill:#FFFFFF;}
	.Gebladerte_AS{fill:#FFDD00;}
	.Pompadoer_AS{fill-rule:evenodd;clip-rule:evenodd;fill:#51AEE2;}
</style>
<linearGradient id="SVGID_1_" gradientUnits="userSpaceOnUse" x1="0" y1="0" x2="0.7071" y2="0.7071">
	<stop  offset="0" style="stop-color:#E6E6EB"/>
	<stop  offset="0.1754" style="stop-color:#E2E2E7"/>
	<stop  offset="0.3552" style="stop-color:#D6D6DB"/>
	<stop  offset="0.5371" style="stop-color:#C2C3C6"/>
	<stop  offset="0.7204" style="stop-color:#A5A7A9"/>
	<stop  offset="0.9031" style="stop-color:#818485"/>
	<stop  offset="1" style="stop-color:#6B6E6E"/>
</linearGradient>
<path d="M138.3,109.1L98.8,40.7c-1.6-2.8-4.5-4.5-7.8-4.5c-3.3,0-6.2,1.7-7.8,4.5l-20.8,36L52.8,60c-1.3-2.3-3.7-3.7-6.4-3.7
	c-2.6,0-5,1.4-6.4,3.7l-28.3,49.1L9,113.8h132L138.3,109.1z M52.2,75l-2.3,2.8l-5.5-4.4L40.9,75l-7.3,4.1l10.1-17.5
	c1.2-2.1,4.2-2.1,5.4,0l8.4,14.5L52.2,75z M103.2,69.1l-6.3,5.2l-7.5-8.1L78.5,85l0.9-16c-1,0-9,3.6-8.6,2.8L87.4,43
	c1.7-2.9,5.8-2.9,7.5,0l19.4,33.6L103.2,69.1z"/>
</svg>
