<svg id="Production" xmlns="http://www.w3.org/2000/svg" width="29.464" height="29.456" viewBox="0 0 29.464 29.456">
  <g id="Group_1841" data-name="Group 1841">
    <path id="Path_1278" data-name="Path 1278" d="M25.21,21.658c1.582,0,3.723-.227,4.223-2.19.465-1.826-.815-3.427-3.458-4.283a44.935,44.935,0,0,0-5.166-1.136L13.186,3.441a2.173,2.173,0,0,0-1.129-.783c-.317-.09-2.689-.516-3.161-.6a.489.489,0,0,0-.536.68L12.781,12.8c-1.8-.254-3.457-.473-4.732-.638-.978-1.8-2.17-4-2.24-4.136a1.415,1.415,0,0,0-1-.7c-.21-.033-2.237-.238-2.237-.238a.465.465,0,0,0-.522.583c1.667,6.977,1.536,6.659,1.722,7.216.781,2.36,5.883,4.317,16.053,6.163A31.536,31.536,0,0,0,25.21,21.658Zm-2.557,2.959a1.961,1.961,0,1,0,1.965-1.956A1.965,1.965,0,0,0,22.652,24.616ZM10.86,27.574V31.5H31.5V27.574Z" transform="translate(-2.032 -2.048)" fill="#e2e2e2"/>
  </g>
</svg>
