<svg id="Production" xmlns="http://www.w3.org/2000/svg" width="25.066" height="26.844" viewBox="0 0 25.066 26.844">
  <g id="Group_1894" data-name="Group 1894">
    <path id="Path_1331" data-name="Path 1331" d="M4.433,28.891H11.8l1.184-1.919A16.543,16.543,0,0,1,6.8,25.055ZM20.11,26.972l1.184,1.919h7.368l-2.37-3.836A16.544,16.544,0,0,1,20.11,26.972ZM29,15.794C28.24,9.91,26.094,2.047,16.548,2.047S4.856,9.91,4.1,15.794c-.743,5.783,3.379,9.52,12.448,9.52S29.738,21.577,29,15.794ZM11.977,21.741a5.868,5.868,0,0,1-4.4-2.143,1.716,1.716,0,0,1-.155-1.805,1.843,1.843,0,0,1,2.167-.812c1.476.423,2.608,2.288,3.151,3.373C13.214,21.291,12.879,21.772,11.977,21.741ZM10.072,10.774c0-2.648,2.372-5.389,6.476-5.389s6.476,2.741,6.476,5.389-3,5.811-6.476,5.811S10.072,13.422,10.072,10.774ZM25.515,19.6a5.867,5.867,0,0,1-4.4,2.145c-1,.034-1.184-.551-.766-1.387.543-1.085,1.673-2.949,3.152-3.373a1.839,1.839,0,0,1,2.164.812A1.707,1.707,0,0,1,25.515,19.6Z" transform="translate(-4.015 -2.047)" fill="#e2e2e2"/>
  </g>
</svg>
