<svg id="Production" xmlns="http://www.w3.org/2000/svg" width="17.3" height="17.31" viewBox="0 0 17.3 17.31">
  <g id="Group_1549" data-name="Group 1549">
    <path id="Path_979" data-name="Path 979" d="M20.963,16.979l-4.249-2.227a.622.622,0,0,0-.73.123c-.071.059-1.951,1.786-1.951,1.786a.631.631,0,0,1-.772.1,13.365,13.365,0,0,1-4.42-4.417.632.632,0,0,1,.093-.773l1.834-1.834,0-.005A.615.615,0,0,0,10.9,8.89L8.548,4.6l-.013,0a.611.611,0,0,0-.715-.311h0A4.165,4.165,0,0,0,5.2,5.444C2.793,7.855,4.187,13.151,8.319,17.283s9.428,5.528,11.839,3.117a4.087,4.087,0,0,0,1.159-2.678A.658.658,0,0,0,20.963,16.979Z" transform="translate(-4.021 -4.272)" fill="#ed8f3e"/>
  </g>
</svg>
