<svg id="Production" xmlns="http://www.w3.org/2000/svg" width="17.3" height="16.147" viewBox="0 0 17.3 16.147">
  <g id="Group_1613" data-name="Group 1613">
    <path id="Path_1043" data-name="Path 1043" d="M18.775,6.443l-5.56-2.376a.911.911,0,0,0-.751.034L8.384,6.3,3.208,4.069A.865.865,0,0,0,2,4.863V16.876a.864.864,0,0,0,.522.794l5.56,2.4a.864.864,0,0,0,.754-.033l4.082-2.2,5.177,2.211a.865.865,0,0,0,1.2-.8V7.239A.865.865,0,0,0,18.775,6.443Zm-7.067,8.521a2.741,2.741,0,0,0-.64.984,4.814,4.814,0,0,1-.915,1.293c-.532.6-.667.1-.782-.168a6.493,6.493,0,0,1-.212-1.1.811.811,0,0,0-.649-.617c-1.352-.219-.751-2.273-.751-2.273a3.564,3.564,0,0,0-2.16-.915,6.337,6.337,0,0,1-1.869-.32V6.179L7.484,7.8c.327.61.71.795.855,1.294.31,1.065-.421,1.528-.573,1.179-.279-.644-1.312-.495-1.814-.332-.76.247-1.068.72-.493.976s.413.175.577,0,.351-.238.536-.079.623.261.675.656.074.58.519.577c.539,0,.38-.145.75-.048s.732-.1,1.02-.1a2.343,2.343,0,0,1,.841.342,3.021,3.021,0,0,1,1.384.31,1.764,1.764,0,0,1,.577,1.24A1.348,1.348,0,0,1,11.707,14.964Zm5.862-.6c-.329.37-.671.591-.815.574a1.036,1.036,0,0,1-.7-.486,7.056,7.056,0,0,1-.329-1.87c.12-1.308-.207-1.458-1.25-1.656a2.38,2.38,0,0,1-1.38-.55c-1.113-1.312-1.033-2.081-.029-2.923a8.146,8.146,0,0,1,1.658-.864L17.57,7.81Z" transform="translate(-2 -3.997)" fill="#939393"/>
  </g>
</svg>
