<?xml version="1.0" encoding="utf-8"?>
<!-- Generator: Adobe Illustrator 26.5.0, SVG Export Plug-In . SVG Version: 6.00 Build 0)  -->
<svg version="1.1" id="Laag_1" xmlns="http://www.w3.org/2000/svg" xmlns:xlink="http://www.w3.org/1999/xlink" x="0px" y="0px"
	 viewBox="0 0 150 150" style="enable-background:new 0 0 150 150;" xml:space="preserve">
<style type="text/css">
	.Slagschaduw{fill:none;}
	.Afgeronde_x0020_hoeken_x0020_2_x0020_pt{fill:#FFFFFF;stroke:#1D1D1B;stroke-miterlimit:10;}
	.X_x0020_actief_x0020_weerspiegelen{fill:none;}
	.Zachte_x0020_schuine_x0020_kant{fill:url(#SVGID_1_);}
	.Schemering{fill:#FFFFFF;}
	.Gebladerte_AS{fill:#FFDD00;}
	.Pompadoer_AS{fill-rule:evenodd;clip-rule:evenodd;fill:#51AEE2;}
</style>
<linearGradient id="SVGID_1_" gradientUnits="userSpaceOnUse" x1="0" y1="0" x2="0.7071" y2="0.7071">
	<stop  offset="0" style="stop-color:#E6E6EB"/>
	<stop  offset="0.1754" style="stop-color:#E2E2E7"/>
	<stop  offset="0.3552" style="stop-color:#D6D6DB"/>
	<stop  offset="0.5371" style="stop-color:#C2C3C6"/>
	<stop  offset="0.7204" style="stop-color:#A5A7A9"/>
	<stop  offset="0.9031" style="stop-color:#818485"/>
	<stop  offset="1" style="stop-color:#6B6E6E"/>
</linearGradient>
<path d="M86.6,16.3c-1,0-1.9,0.4-2.6,1.1c-0.7,0.7-1.1,1.7-1,2.6v14.8c0,1,0.4,1.9,1.1,2.6c0.7,0.7,1.6,1.1,2.6,1.1
	c1,0,1.9-0.4,2.6-1.1c0.7-0.7,1.1-1.7,1.1-2.6V20c0-1-0.4-2-1.1-2.7C88.5,16.7,87.6,16.3,86.6,16.3L86.6,16.3z M48.1,29.9L48.1,29.9
	c-0.9,0.1-1.8,0.6-2.4,1.3c-0.6,0.7-0.9,1.6-0.9,2.6c0,0.9,0.4,1.8,1.1,2.5l11.1,11.1v0c0.7,0.8,1.6,1.2,2.6,1.3c1,0,2-0.4,2.7-1.1
	c0.7-0.7,1.1-1.7,1.1-2.7c0-1-0.5-2-1.2-2.7L51.1,31h0C50.3,30.2,49.2,29.7,48.1,29.9L48.1,29.9z M124.3,29.9
	c-0.8,0.1-1.6,0.5-2.2,1.1l-11.1,11.1c-0.8,0.7-1.2,1.6-1.2,2.7c0,1,0.4,2,1.1,2.7c0.7,0.7,1.7,1.1,2.7,1.1c1,0,2-0.5,2.6-1.3
	l11.1-11.1l0,0c0.7-0.7,1.1-1.7,1.1-2.8c0-1-0.5-2-1.3-2.7C126.4,30,125.4,29.7,124.3,29.9L124.3,29.9z M86.6,41
	c-16.9,0-30.8,13.8-30.8,30.8s13.8,30.8,30.8,30.8c16.9,0,30.8-13.8,30.8-30.8S103.6,41,86.6,41z M34.6,68.1c-1,0.1-1.9,0.5-2.6,1.2
	C31.3,70,31,71,31.1,72c0.1,1,0.5,1.9,1.2,2.6c0.7,0.7,1.7,1,2.7,0.9h14.8h0c1,0,1.9-0.4,2.6-1.1c0.7-0.7,1.1-1.6,1.1-2.6
	c0-1-0.4-1.9-1.1-2.6c-0.7-0.7-1.7-1.1-2.6-1.1H34.9h0C34.8,68.1,34.7,68.1,34.6,68.1L34.6,68.1z M123.2,68.1
	c-1,0.1-1.9,0.5-2.6,1.2c-0.7,0.7-1,1.7-0.9,2.7c0.1,1,0.5,1.9,1.2,2.6c0.7,0.7,1.7,1,2.7,0.9h14.8c1,0,1.9-0.4,2.6-1.1
	c0.7-0.7,1.1-1.6,1.1-2.6c0-1-0.4-1.9-1.1-2.6c-0.7-0.7-1.7-1.1-2.6-1.1h-14.8C123.4,68.1,123.3,68.1,123.2,68.1L123.2,68.1z
	 M59.1,95.1L59.1,95.1c-0.8,0.1-1.6,0.5-2.2,1.1l-11.1,11.1c-0.8,0.7-1.2,1.6-1.2,2.7c0,1,0.4,2,1.1,2.7c0.7,0.7,1.7,1.1,2.7,1.1
	c1,0,2-0.5,2.6-1.3l11.1-11.1h0c0.7-0.7,1.1-1.7,1.1-2.8c0-1-0.5-2-1.3-2.7C61.2,95.3,60.2,95,59.1,95.1L59.1,95.1z M113.3,95.1
	L113.3,95.1c-0.9,0.1-1.8,0.6-2.4,1.3c-0.6,0.7-0.9,1.6-0.9,2.6c0,0.9,0.4,1.8,1.1,2.5l11.1,11.1c0.7,0.8,1.6,1.2,2.6,1.3
	c1,0,2-0.4,2.7-1.1c0.7-0.7,1.1-1.7,1.1-2.7c0-1-0.5-2-1.2-2.7l-11.1-11.1h0C115.5,95.4,114.4,95,113.3,95.1L113.3,95.1z M86.6,105
	L86.6,105c-1,0-1.9,0.4-2.6,1.1c-0.7,0.7-1.1,1.7-1,2.6v14.8c0,1,0.4,1.9,1.1,2.6c0.7,0.7,1.6,1.1,2.6,1.1c1,0,1.9-0.4,2.6-1.1
	c0.7-0.7,1.1-1.7,1.1-2.6v-14.8c0-1-0.4-2-1.1-2.7C88.5,105.3,87.6,105,86.6,105L86.6,105z"/>
<path d="M125.5,86.1c0.2-1.4,0.2-2.8,0.2-4.2c-0.1-10.8-4.9-21.1-13.3-28c-8.3-6.9-19.3-9.8-30-7.9c-10.7,1.9-19.9,8.5-25.3,17.9
	C54,62,50.4,61,46.7,61.1c-5.6,0-10.9,2.2-14.9,6.2c-3.9,3.9-6.2,9.3-6.2,14.9v2v0c-6.8,1.1-12.6,5.4-15.6,11.6
	c-3,6.2-2.8,13.5,0.6,19.5c3.4,6,9.5,10,16.3,10.6c7.9,6.4,16.1,6.7,24,0.8c4.4,4.5,10.4,7.1,16.7,7.2c6.3,0.1,12.4-2.3,16.9-6.7
	c4.1,3.8,9.5,5.9,15.1,5.8c5.6-0.1,10.9-2.3,14.9-6.3c1.9,0.4,3.8,0.7,5.8,0.9c5.6,0,10.9-2.2,14.9-6.2c3.9-3.9,6.2-9.3,6.2-14.9
	c0-4.7-1.6-9.2-4.4-12.9C134.1,89.8,130.1,87.2,125.5,86.1L125.5,86.1z"/>
</svg>
